<svg width="36" height="36" viewBox="0 0 36 36" fill="none" xmlns="http://www.w3.org/2000/svg">
<g clip-path="url(#clip0)">
<path d="M21.1845 21.4246L20.1122 27.287H15.8875L14.8152 21.4246H21.1845Z" fill="#CAC1C8"/>
<path d="M20.1122 27.287L21.1845 21.4246L23.3455 23.9155C23.6127 24.2235 23.5628 24.6934 23.2369 24.9383L20.1122 27.287Z" fill="#303F9F"/>
<path d="M15.8875 27.287L14.8153 21.4246L12.6543 23.9155C12.3871 24.2235 12.437 24.6934 12.7629 24.9383L15.8875 27.287Z" fill="#303F9F"/>
<path d="M20.1122 27.287L17.9998 28.8882L15.8875 27.287L17.1909 25.1746H18.8089L20.1122 27.287Z" fill="#303F9F"/>
<path d="M18.809 25.1746L19.4659 23.4271L17.9998 20.9971L16.5338 23.4271L17.1907 25.1746H18.809Z" fill="#303F9F"/>
<path d="M19.8878 19.6865L17.9999 20.9972L16.1121 19.6865V17.4178H19.8878V19.6865Z" fill="#FFB2A1"/>
<path d="M24.0506 12.2355C25.2282 12.2355 26.1828 11.2809 26.1828 10.1033C26.1828 8.92567 25.2282 7.97104 24.0506 7.97104C22.873 7.97104 21.9184 8.92567 21.9184 10.1033C21.9184 11.2809 22.873 12.2355 24.0506 12.2355Z" fill="#F69583"/>
<path d="M11.9492 12.2355C13.1268 12.2355 14.0814 11.2809 14.0814 10.1033C14.0814 8.92567 13.1268 7.97104 11.9492 7.97104C10.7716 7.97104 9.81696 8.92567 9.81696 10.1033C9.81696 11.2809 10.7716 12.2355 11.9492 12.2355Z" fill="#F69583"/>
<path d="M18 18.147C14.72 18.147 12.0612 15.4881 12.0612 12.2082V6.26941H23.9388V12.2082C23.9388 15.4881 21.2798 18.147 18 18.147Z" fill="#FFCEC0"/>
<path d="M11.0188 5.18658V8.29524C11.0188 8.69736 11.3448 9.0234 11.747 9.0234H13.5839C14.2518 9.0234 14.7931 8.48206 14.7931 7.81423V6.83112L15.3891 7.75257C15.9016 8.54492 16.7808 9.0234 17.7245 9.0234H24.2529C24.6551 9.0234 24.9811 8.69736 24.9811 8.29524V5.18658C24.9811 2.61343 22.8951 0.527466 20.322 0.527466H15.6779C13.1048 0.527466 11.0188 2.61343 11.0188 5.18658Z" fill="#FF9A1B"/>
<path d="M24.9814 5.18669V8.29513C24.9814 8.69704 24.6552 9.02329 24.2532 9.02329H22.7969C23.1988 9.02329 23.5251 8.69711 23.5251 8.29513V5.18669C23.5251 2.61339 21.4389 0.527222 18.8657 0.527222H20.322C22.8952 0.527292 24.9814 2.61339 24.9814 5.18669Z" fill="#F47E14"/>
<path d="M16.112 19.6864L13.9838 21.8147L16.5339 23.4271L17.9999 20.9971L16.112 19.6864Z" fill="#E6E2E6"/>
<path d="M19.8878 19.6864L22.016 21.8147L19.4659 23.4271L17.9999 20.9971L19.8878 19.6864Z" fill="#E6E2E6"/>
<path d="M16.9802 15.7851C17.7375 15.7851 18.3513 15.1712 18.3513 14.414C18.3513 13.6568 17.7375 13.0429 16.9802 13.0429C16.223 13.0429 15.6091 13.6568 15.6091 14.414C15.6091 15.1712 16.223 15.7851 16.9802 15.7851Z" fill="#E43C53"/>
<path d="M5.92963 28.3194H30.0702V35.4725H5.92963V28.3194Z" fill="#759DFD"/>
<path d="M28.5491 28.3194H30.0703V35.4725H28.5491V28.3194Z" fill="#759DFD"/>
<path d="M31.7109 29.3905H4.289C3.90067 29.3905 3.58588 29.0757 3.58588 28.6874V27.914C3.58588 27.5256 3.90067 27.2108 4.289 27.2108H31.7109C32.0992 27.2108 32.414 27.5256 32.414 27.914V28.6874C32.414 29.0757 32.0992 29.3905 31.7109 29.3905Z" fill="#759DFD"/>
<path d="M32.414 27.914V28.6874C32.414 29.0755 32.099 29.3905 31.7109 29.3905H30.2449C30.633 29.3905 30.948 29.0755 30.948 28.6874V27.914C30.948 27.5258 30.633 27.2108 30.2449 27.2108H31.7109C32.099 27.2108 32.414 27.5258 32.414 27.914Z" fill="#759DFD"/>
<path d="M32.7454 20.5658L31.5293 21.782L27.4404 18.2897L29.2531 16.477L32.7454 20.5658Z" fill="#E6E2E6"/>
<path d="M27.8623 18.6681C28.8394 18.6681 29.6315 17.876 29.6315 16.8989C29.6315 15.9218 28.8394 15.1297 27.8623 15.1297C26.8852 15.1297 26.0931 15.9218 26.0931 16.8989C26.0931 17.876 26.8852 18.6681 27.8623 18.6681Z" fill="#7A7179"/>
<path d="M29.1136 18.1497C28.6052 18.6581 27.8655 18.7924 27.2348 18.5533C27.4626 18.4675 27.6757 18.3325 27.8585 18.1497C28.5489 17.4592 28.5489 16.3392 27.8585 15.648C27.6757 15.4652 27.4626 15.3302 27.2348 15.2444C27.8655 15.0053 28.6052 15.1396 29.1136 15.648C29.804 16.3392 29.804 17.4592 29.1136 18.1497Z" fill="#686068"/>
<path d="M3.25452 20.5658L4.47064 21.782L8.55952 18.2897L6.74687 16.477L3.25452 20.5658Z" fill="#E6E2E6"/>
<path d="M8.13755 18.6681C9.11465 18.6681 9.90675 17.876 9.90675 16.8989C9.90675 15.9218 9.11465 15.1297 8.13755 15.1297C7.16045 15.1297 6.36835 15.9218 6.36835 16.8989C6.36835 17.876 7.16045 18.6681 8.13755 18.6681Z" fill="#7A7179"/>
<path d="M9.38876 18.1497C8.8804 18.6581 8.14071 18.7924 7.51001 18.5526C7.73712 18.4668 7.95017 18.3325 8.13368 18.1497C8.82415 17.4592 8.82415 16.3391 8.13368 15.648C7.95017 15.4652 7.73712 15.3309 7.51001 15.2451C8.14071 15.0053 8.8804 15.1396 9.38876 15.648C10.0792 16.3391 10.0792 17.4592 9.38876 18.1497Z" fill="#686068"/>
<path d="M16.1365 11.5369V11.1728C16.1365 10.8816 15.9004 10.6454 15.6091 10.6454C15.3179 10.6454 15.0818 10.8816 15.0818 11.1728V11.5369C15.0818 11.8281 15.3179 12.0642 15.6091 12.0642C15.9004 12.0642 16.1365 11.8281 16.1365 11.5369Z" fill="black"/>
<path d="M19.8633 11.1728V11.5369C19.8633 11.8281 20.0994 12.0642 20.3906 12.0642C20.6819 12.0642 20.918 11.8281 20.918 11.5369V11.1728C20.918 10.8816 20.6819 10.6454 20.3906 10.6454C20.0994 10.6454 19.8633 10.8816 19.8633 11.1728Z" fill="black"/>
<path d="M16.9802 16.3124C18.027 16.3124 18.8787 15.4608 18.8787 14.414C18.8787 13.3672 18.027 12.5156 16.9802 12.5156C15.9334 12.5156 15.0818 13.3672 15.0818 14.414C15.0818 15.4608 15.9335 16.3124 16.9802 16.3124ZM16.9802 13.5703C17.4455 13.5703 17.824 13.9487 17.824 14.414C17.824 14.8793 17.4455 15.2578 16.9802 15.2578C16.515 15.2578 16.1365 14.8793 16.1365 14.414C16.1365 13.9487 16.515 13.5703 16.9802 13.5703Z" fill="black"/>
<path d="M29.8036 21.0015L31.1868 22.1829C31.2858 22.2674 31.4076 22.3093 31.5292 22.3093C31.6646 22.3093 31.7996 22.2574 31.9022 22.1548L33.1182 20.9387C33.3129 20.7441 33.3251 20.4326 33.1464 20.2234L31.965 18.8402L31.9764 18.8288C32.1823 18.6229 32.1823 18.2889 31.9764 18.0831C31.7865 17.8931 31.4878 17.8788 31.2809 18.0393L30.1499 16.7151C30.108 16.1898 29.8872 15.6761 29.4862 15.2751C28.5908 14.3798 27.1338 14.3798 26.2384 15.2751C25.343 16.1706 25.343 17.6275 26.2384 18.5229C26.6394 18.9239 27.1529 19.1446 27.6783 19.1865L28.9991 20.3145L28.6331 20.6805C28.5342 20.7793 28.4786 20.9135 28.4786 21.0533V26.6835H27.8243L27.4013 22.8619C27.3407 22.3145 27.1749 21.7925 26.9088 21.3105C26.768 21.0556 26.4472 20.9629 26.1923 21.1037C25.9373 21.2445 25.8447 21.5652 25.9855 21.8202C26.1841 22.18 26.3077 22.5696 26.353 22.9779L26.7632 26.6835H21.7927L23.5536 25.3598C23.8255 25.1555 24.0019 24.8444 24.0379 24.5063C24.0738 24.168 23.9666 23.8268 23.7437 23.57L22.4632 22.094C22.5045 22.0278 22.5312 21.9525 22.5399 21.873C22.5577 21.7138 22.502 21.5552 22.3887 21.4419L21.1608 20.214H23.2658C23.6493 20.214 24.0242 20.2834 24.3802 20.4205C24.4425 20.4444 24.5065 20.4558 24.5695 20.4558C24.7814 20.4558 24.9811 20.3272 25.0618 20.1177C25.1664 19.8459 25.0308 19.5407 24.759 19.4362C24.2817 19.2524 23.7793 19.1593 23.2658 19.1593H20.415V18.2058C20.7897 18.0547 21.1514 17.8685 21.495 17.6473C21.7398 17.4896 21.8105 17.1633 21.6528 16.9184C21.4952 16.6736 21.1688 16.603 20.9239 16.7606C20.0509 17.3228 19.0396 17.6199 17.9997 17.6199C15.0158 17.6199 12.5883 15.1924 12.5883 12.2085V9.55106H13.5837C14.3348 9.55106 14.9761 9.07167 15.2177 8.40272C15.8415 9.12869 16.7498 9.55106 17.7243 9.55106H23.4112V12.2085C23.4112 13.2608 23.1076 14.282 22.5333 15.1616C22.3741 15.4054 22.4428 15.7322 22.6866 15.8914C22.7756 15.9495 22.8755 15.9773 22.9744 15.9773C23.1465 15.9773 23.3153 15.893 23.4165 15.7381C24.0069 14.8338 24.3572 13.8043 24.4439 12.7338C25.7244 12.543 26.71 11.4363 26.71 10.1035C26.71 9.20182 26.2542 8.36925 25.5082 7.87987V5.18655C25.5082 4.06978 25.1522 3.03527 24.5495 2.18793C24.7911 2.12184 25.1189 2.04358 25.4834 1.98888C25.7714 1.94564 25.9699 1.67711 25.9267 1.38911C25.8834 1.10104 25.6153 0.90255 25.3269 0.945862C25.0477 0.987769 24.7893 1.04135 24.566 1.09485C24.616 0.976097 24.6667 0.84412 24.7166 0.696253C24.8098 0.420346 24.6617 0.121096 24.3858 0.0278619C24.1101 -0.0654428 23.8106 0.0827057 23.7174 0.358682C23.6109 0.673823 23.5046 0.892847 23.4248 1.03326C22.5589 0.384698 21.4844 0.000158795 20.3218 0.000158795H15.6777C12.8179 0.000158795 10.4913 2.3268 10.4913 5.18662V7.88022C9.74785 8.36918 9.28948 9.21061 9.28948 10.1033C9.28948 11.4359 10.2748 12.5425 11.555 12.7335C11.7557 15.2178 13.3668 17.3098 15.5846 18.2061V19.1591H12.7337C10.6098 19.1591 8.83203 20.751 8.59831 22.8619L8.17524 26.6835H7.52105V21.0533C7.52105 20.9135 7.4655 20.7793 7.36657 20.6805L7.0006 20.3145L8.32135 19.1865C8.84672 19.1446 9.36028 18.9238 9.76121 18.5229C10.6566 17.6274 10.6566 16.1705 9.76121 15.2751C8.86585 14.3798 7.4089 14.3797 6.51347 15.2751C6.11248 15.6761 5.89163 16.1898 5.84979 16.7151L4.71875 18.0393C4.51189 17.8788 4.21327 17.8931 4.02328 18.0831C3.81734 18.289 3.81734 18.6229 4.02328 18.8288L4.03468 18.8402L2.85328 20.2234C2.67455 20.4327 2.68678 20.7442 2.88141 20.9387L4.09746 22.1548C4.19998 22.2573 4.33498 22.3093 4.47047 22.3093C4.59204 22.3093 4.71389 22.2674 4.81289 22.1829L6.19608 21.0015L6.46629 21.2717V26.6834H4.289C3.61055 26.6834 3.05853 27.2354 3.05853 27.9139V28.6873C3.05853 29.3658 3.61055 29.9178 4.289 29.9178H5.40225V35.4725C5.40225 35.7637 5.63836 35.9998 5.9296 35.9998C6.22083 35.9998 6.45694 35.7637 6.45694 35.4725V29.9178H29.5429V35.4725C29.5429 35.7637 29.779 35.9998 30.0702 35.9998C30.3614 35.9998 30.5975 35.7637 30.5975 35.4725V29.9178H31.7108C32.3892 29.9178 32.9413 29.3658 32.9413 28.6873V27.9139C32.9413 27.2354 32.3892 26.6834 31.7108 26.6834H29.5334V21.2717L29.8036 21.0015ZM32.0278 20.5376L31.5011 21.0643L30.5517 20.2534L31.2169 19.5882L32.0278 20.5376ZM26.9843 16.0208C27.2263 15.7787 27.5444 15.6576 27.8624 15.6576C28.1803 15.6576 28.4984 15.7787 28.7405 16.0208C29.2247 16.505 29.2247 17.2928 28.7405 17.7771C28.2563 18.2612 27.4685 18.2612 26.9843 17.7771C26.5001 17.2928 26.5001 16.505 26.9843 16.0208ZM28.9754 18.9071C29.1586 18.8057 29.331 18.678 29.4863 18.5227C29.6415 18.3674 29.7692 18.1951 29.8707 18.0119L30.5299 18.7837L29.7473 19.5663L28.9754 18.9071ZM24.4661 11.6533V9.53123C24.7885 9.47576 25.0685 9.2973 25.2571 9.04558C25.5097 9.33379 25.6556 9.70743 25.6556 10.1032C25.6555 10.8445 25.1502 11.4697 24.4661 11.6533ZM11.5461 5.18655C11.5461 2.90828 13.3996 1.05478 15.6779 1.05478H20.3219C22.6002 1.05478 24.4537 2.90828 24.4537 5.18655V8.29521C24.4537 8.40595 24.3636 8.49602 24.2529 8.49602H22.7511C21.9831 8.49602 21.2756 8.11099 20.8584 7.46615C20.7003 7.22154 20.3738 7.15158 20.1292 7.30978C19.8847 7.46798 19.8146 7.79444 19.9728 8.03899C20.0792 8.20345 20.1992 8.35561 20.3296 8.49609H17.7245C16.9565 8.49609 16.249 8.11106 15.8319 7.46622L15.2359 6.54478C15.1369 6.39178 14.9687 6.30382 14.7931 6.30382C14.7435 6.30382 14.6933 6.31085 14.6438 6.32547C14.4197 6.39164 14.2658 6.59751 14.2658 6.83123V7.81434C14.2658 8.1903 13.96 8.49616 13.584 8.49616H11.7471C11.6364 8.49616 11.5463 8.40609 11.5463 8.29535V5.18655H11.5461ZM10.3443 10.1032C10.3443 9.70448 10.488 9.3326 10.742 9.0446C10.9306 9.29681 11.2109 9.47569 11.5338 9.53123V11.6533C10.8496 11.4697 10.3443 10.8445 10.3443 10.1032ZM6.51361 18.5228C6.66886 18.678 6.84127 18.8057 7.0245 18.9071L6.25268 19.5664L5.4701 18.7838L6.12935 18.012C6.23068 18.1951 6.35836 18.3675 6.51361 18.5228ZM7.25942 16.0208C7.74366 15.5366 8.53144 15.5367 9.01568 16.0208C9.49986 16.505 9.49986 17.2928 9.01568 17.7771C8.53151 18.2612 7.74373 18.2612 7.25942 17.7771C6.77525 17.2928 6.77525 16.505 7.25942 16.0208ZM4.49881 21.0643L3.9721 20.5376L4.78301 19.5882L5.44824 20.2534L4.49881 21.0643ZM19.3936 25.118L19.8972 23.7782L20.2598 23.5489L19.8404 25.8421L19.3936 25.118ZM18.4439 24.6472H17.556L17.1174 23.4807L17.9999 22.018L18.8824 23.4807L18.4439 24.6472ZM16.1025 23.7782L16.6062 25.118L16.1594 25.8421L15.7399 23.5489L16.1025 23.7782ZM17.2929 21.1482L16.3606 22.6935L14.823 21.7212L16.1734 20.3709L17.2929 21.1482ZM14.4035 22.7039L14.5275 22.7823L15.1261 26.0549L13.0798 24.5167C13.0267 24.4768 13.0137 24.4231 13.0106 24.3948C13.0077 24.3664 13.0091 24.3113 13.0527 24.2611L14.4035 22.7039ZM17.4852 25.7019H18.5146L19.1202 26.6834H16.8796L17.4852 25.7019ZM22.9892 24.3948C22.9861 24.4232 22.9731 24.4768 22.92 24.5167L20.8737 26.0549L21.4722 22.7823L21.5962 22.7039L22.9471 24.261C22.9907 24.3113 22.9922 24.3664 22.9892 24.3948ZM19.6393 22.6935L18.7069 21.1482L19.8265 20.371L21.1769 21.7213L19.6393 22.6935ZM17.9999 18.6743C18.4603 18.6743 18.916 18.6253 19.3604 18.5298V19.4106L17.9999 20.3551L16.6393 19.4106V18.5298C17.0782 18.6242 17.5333 18.6743 17.9999 18.6743ZM31.8867 27.9139V28.6874C31.8867 28.7843 31.8078 28.8632 31.7109 28.8632H4.289C4.19211 28.8632 4.11321 28.7843 4.11321 28.6874V27.9139C4.11321 27.8171 4.19211 27.7382 4.289 27.7382H10.2165C10.5077 27.7382 10.7438 27.5021 10.7438 27.2108C10.7438 26.9196 10.5077 26.6835 10.2165 26.6835H9.23646L9.64667 22.9779C9.82111 21.4021 11.1483 20.2137 12.7337 20.2137H14.8388L13.6109 21.4417C13.4976 21.555 13.4419 21.7136 13.4596 21.8728C13.4685 21.9523 13.4952 22.0276 13.5364 22.0938L12.2559 23.5698C12.0331 23.8266 11.9258 24.1679 11.9617 24.506C11.9976 24.8442 12.1741 25.1553 12.4459 25.3596L14.2069 26.6833H12.7051C12.4139 26.6833 12.1778 26.9194 12.1778 27.2106C12.1778 27.5018 12.4139 27.738 12.7051 27.738H31.7107C31.8078 27.7382 31.8867 27.817 31.8867 27.9139Z" fill="black"/>
</g>
<defs>
<clipPath id="clip0">
<rect width="36" height="36" fill="white"/>
</clipPath>
</defs>
</svg>
