<svg width="40" height="40" viewBox="0 0 40 40" fill="none" xmlns="http://www.w3.org/2000/svg">
<path d="M19.7334 31.0667C26.5081 31.0667 32.0001 25.5747 32.0001 18.8C32.0001 12.0253 26.5081 6.53333 19.7334 6.53333C12.9587 6.53333 7.46674 12.0253 7.46674 18.8C7.46674 25.5747 12.9587 31.0667 19.7334 31.0667Z" fill="#759DFD"/>
<path d="M15.154 9.15787L21.6893 16.3769C22.0344 16.7524 22.0002 17.3389 21.6139 17.6717C21.2039 18.0249 20.5773 17.9404 20.2755 17.4912L14.6451 9.59613L15.154 9.15787Z" fill="#FFE8DC"/>
<path d="M21.0246 18.4237C20.9607 18.4237 20.8967 18.4196 20.8328 18.4107C20.426 18.356 20.0618 18.1292 19.8328 17.7885L14.2112 9.90574C14.0511 9.6812 14.0883 9.37187 14.2972 9.19187L14.806 8.7536C15.026 8.5656 15.356 8.5856 15.5495 8.8L22.0847 16.0191C22.3478 16.3051 22.4814 16.6797 22.4584 17.0715C22.4355 17.4632 22.2592 17.8199 21.9618 18.0759C21.7 18.3013 21.3664 18.4237 21.0246 18.4237ZM17.0404 12.0361L20.7098 17.1815C20.7988 17.3135 20.9139 17.3453 20.9754 17.3536C21.0363 17.3615 21.1563 17.3619 21.2658 17.2675C21.3423 17.2016 21.3876 17.1099 21.3936 17.0093C21.3994 16.9085 21.365 16.812 21.2967 16.7377L17.0404 12.0361Z" fill="#4C241D"/>
<path d="M22.8062 16.2563L21.2799 16.3309L24 19.3333L24.6667 16.6669L22.8062 16.2563Z" fill="#FFE8DC"/>
<path d="M24.0001 19.8667C23.8514 19.8667 23.7074 19.8044 23.6047 19.6915L20.8847 16.6891C20.7465 16.5363 20.7085 16.3172 20.7874 16.1268C20.8663 15.9361 21.0481 15.8083 21.2541 15.7981L22.7803 15.7233C22.8273 15.7209 22.8749 15.7249 22.9213 15.7353L24.7817 16.146C24.9223 16.1769 25.0445 16.2637 25.1202 16.3861C25.1959 16.5085 25.2191 16.6564 25.1842 16.7963L24.5175 19.4627C24.4697 19.6536 24.3206 19.8028 24.1298 19.8507C24.0867 19.8615 24.0433 19.8667 24.0001 19.8667ZM22.4323 16.8085L23.7247 18.2351L24.0162 17.0695L22.761 16.7924L22.4323 16.8085Z" fill="#4C241D"/>
<path d="M15.1057 16.6756L13.6001 14.2667L15.2001 7.33335L13.6001 5.20001V7.86668L11.8679 13.9291C11.6078 14.8395 11.6575 15.8104 12.0091 16.6895L13.6001 20.6667L16.2667 35.6H19.4667L17.3334 34V23.8667" fill="#FFE8DC"/>
<path d="M19.4667 36.1333H16.2667C16.0083 36.1333 15.787 35.9481 15.7417 35.6937L13.0847 20.814L11.5139 16.8875C11.1207 15.9036 11.0642 14.8011 11.3554 13.7823L13.0667 7.79187V5.2C13.0667 4.97027 13.2137 4.76667 13.4313 4.694C13.6495 4.62107 13.8889 4.69667 14.0266 4.88L15.6266 7.01333C15.7211 7.13907 15.755 7.3 15.7198 7.45347L14.1693 14.1715L15.5581 16.3928C15.7141 16.6428 15.6383 16.9717 15.3886 17.128C15.1386 17.2848 14.8099 17.2083 14.6534 16.9585L13.1477 14.5497C13.0727 14.4297 13.0485 14.2849 13.0802 14.1469L14.6245 7.4552L14.1334 6.8V7.86667C14.1334 7.91613 14.1263 7.9656 14.1129 8.01333L12.3809 14.0756C12.1546 14.868 12.1983 15.7261 12.5046 16.4912L14.0955 20.4685C14.1089 20.5024 14.119 20.5373 14.1253 20.5729L16.7134 35.0667H17.8667L17.0134 34.4265C16.8793 34.326 16.8001 34.168 16.8001 34V23.8667C16.8001 23.5721 17.0389 23.3333 17.3334 23.3333C17.6279 23.3333 17.8667 23.5721 17.8667 23.8667V33.7333L19.7867 35.1735C19.9703 35.3112 20.0453 35.5508 19.9727 35.7688C19.9001 35.9864 19.6965 36.1333 19.4667 36.1333Z" fill="#4C241D"/>
<path d="M30.4 6.53334C30.1055 6.53334 29.8667 6.29454 29.8667 6V4.4C29.8667 4.10547 30.1055 3.86667 30.4 3.86667C30.6946 3.86667 30.9334 4.10547 30.9334 4.4V6C30.9334 6.29454 30.6946 6.53334 30.4 6.53334Z" fill="#4C241D"/>
<path d="M30.4 10.2667C30.1055 10.2667 29.8667 10.0279 29.8667 9.73334V8.13334C29.8667 7.83881 30.1055 7.60001 30.4 7.60001C30.6946 7.60001 30.9334 7.83881 30.9334 8.13334V9.73334C30.9334 10.0279 30.6946 10.2667 30.4 10.2667Z" fill="#4C241D"/>
<path d="M29.3333 7.59999H27.7333C27.4388 7.59999 27.2 7.36119 27.2 7.06666C27.2 6.77213 27.4388 6.53333 27.7333 6.53333H29.3333C29.6279 6.53333 29.8667 6.77213 29.8667 7.06666C29.8667 7.36119 29.6279 7.59999 29.3333 7.59999Z" fill="#4C241D"/>
<path d="M33.0667 7.59999H31.4667C31.1721 7.59999 30.9333 7.36119 30.9333 7.06666C30.9333 6.77213 31.1721 6.53333 31.4667 6.53333H33.0667C33.3612 6.53333 33.6 6.77213 33.6 7.06666C33.6 7.36119 33.3612 7.59999 33.0667 7.59999Z" fill="#4C241D"/>
<path d="M34.1333 13.4667C34.4279 13.4667 34.6667 13.2279 34.6667 12.9333C34.6667 12.6388 34.4279 12.4 34.1333 12.4C33.8388 12.4 33.6 12.6388 33.6 12.9333C33.6 13.2279 33.8388 13.4667 34.1333 13.4667Z" fill="#4C241D"/>
<path d="M25.0667 28.9333C25.3613 28.9333 25.6001 28.6946 25.6001 28.4C25.6001 28.1055 25.3613 27.8667 25.0667 27.8667C24.7722 27.8667 24.5334 28.1055 24.5334 28.4C24.5334 28.6946 24.7722 28.9333 25.0667 28.9333Z" fill="#4C241D"/>
<path d="M7.46668 20.9333C7.76123 20.9333 8.00002 20.6946 8.00002 20.4C8.00002 20.1055 7.76123 19.8667 7.46668 19.8667C7.17213 19.8667 6.93335 20.1055 6.93335 20.4C6.93335 20.6946 7.17213 20.9333 7.46668 20.9333Z" fill="#4C241D"/>
<path d="M18.6667 18.8L14.778 15.7984C14.778 15.7984 10.7631 20.3535 14.4 26.8L17.6 24.6667L17.6919 23.5581L20.593 21.8751L23.4667 20.9333L24 19.3333L21.2799 16.3309L18.6667 18.8Z" fill="#303F9F"/>
<path d="M14.4 27.3333C14.3586 27.3333 14.317 27.3287 14.276 27.3188C14.1318 27.2844 14.0083 27.1912 13.9354 27.062C11.9666 23.5721 12.1832 20.6084 12.7119 18.7368C13.2874 16.6991 14.3338 15.4961 14.378 15.4459C14.564 15.2352 14.8814 15.2047 15.1038 15.3764L18.6316 18.0993L20.9136 15.9433C21.0175 15.8449 21.1491 15.7892 21.3006 15.7983C21.4438 15.8037 21.5787 15.8668 21.6751 15.9731L24.3951 18.9755C24.5243 19.1181 24.5667 19.3195 24.5058 19.5023L23.9724 21.1023C23.9191 21.2624 23.793 21.3877 23.6326 21.4403L20.812 22.3645L18.2003 23.8799L18.1312 24.7108C18.1176 24.8731 18.031 25.0201 17.8955 25.1105L14.6955 27.2439C14.6076 27.3027 14.5044 27.3333 14.4 27.3333ZM14.8766 16.5481C14.0776 17.702 12.1578 21.2481 14.5924 26.0307L17.0898 24.3659L17.1603 23.514C17.1746 23.34 17.2734 23.1843 17.4242 23.0968L20.3252 21.4137C20.3575 21.3949 20.3916 21.3796 20.4268 21.3681L23.0456 20.51L23.3956 19.4603L21.2503 17.0925L19.0328 19.1876C18.8419 19.3679 18.5482 19.3821 18.341 19.222L14.8766 16.5481Z" fill="#4C241D"/>
<path d="M7.20004 9.73333C6.17084 9.73333 5.33337 8.89587 5.33337 7.86667C5.33337 6.83747 6.17084 6 7.20004 6C8.22924 6 9.06671 6.83747 9.06671 7.86667C9.06671 8.89587 8.22924 9.73333 7.20004 9.73333ZM7.20004 7.06667C6.75884 7.06667 6.40004 7.42547 6.40004 7.86667C6.40004 8.30787 6.75884 8.66667 7.20004 8.66667C7.64124 8.66667 8.00004 8.30787 8.00004 7.86667C8.00004 7.42547 7.64124 7.06667 7.20004 7.06667Z" fill="#4C241D"/>
<path d="M26.1334 16.6667V13.4667C26.1158 12.4267 25.2299 11.5537 24.2266 11.5707C23.2232 11.5876 22.424 12.4444 22.4416 13.4844L22.4 15.0667C22.4138 15.8805 23.215 16.6855 24 16.6667H26.1334Z" fill="#FFE8DC"/>
<path d="M23.9628 17.2005C23.4844 17.2005 22.9748 16.9803 22.5704 16.592C22.1324 16.1717 21.8762 15.6191 21.8668 15.0759L21.9087 13.4704C21.8858 12.1616 22.9218 11.0597 24.2175 11.0373C24.2303 11.0371 24.243 11.0371 24.2558 11.0371C25.5443 11.0371 26.644 12.1368 26.6667 13.4576V16.6667C26.6667 16.9612 26.4279 17.2 26.1334 17.2H24C23.9875 17.2003 23.975 17.2005 23.9628 17.2005ZM24.2555 12.1036C24.2487 12.1036 24.2422 12.1036 24.2358 12.1039C23.5279 12.1159 22.9623 12.7312 22.9751 13.4752L22.9332 15.0807C22.9376 15.3148 23.0783 15.6007 23.3092 15.8223C23.5174 16.0225 23.7704 16.1356 23.9874 16.1335L25.6 16.1333V13.4667C25.5875 12.7396 24.9615 12.1036 24.2555 12.1036Z" fill="#4C241D"/>
<path d="M32.5334 18.3024L22.7984 18.0616C22.2887 18.0452 21.8667 18.4538 21.8667 18.9637C21.8667 19.5049 22.3396 19.9244 22.877 19.86L32.5334 18.974V18.3024Z" fill="#FFE8DC"/>
<path d="M22.7643 20.4008C22.4231 20.4008 22.0812 20.2732 21.8162 20.038C21.5094 19.7656 21.3334 19.374 21.3334 18.9637C21.3334 18.5716 21.4886 18.2052 21.7703 17.9323C22.052 17.6593 22.4247 17.5161 22.8156 17.5287L32.5466 17.7693C32.8359 17.7764 33.0666 18.0131 33.0666 18.3024V18.974C33.0666 19.2497 32.8564 19.48 32.5819 19.5049L22.9254 20.391C22.8722 20.3976 22.8183 20.4008 22.7643 20.4008ZM22.7722 18.5948C22.6724 18.5948 22.5818 18.6312 22.5123 18.6987C22.4399 18.7687 22.4 18.8629 22.4 18.9637C22.4 19.1082 22.4779 19.1989 22.5243 19.24C22.571 19.2812 22.6702 19.346 22.8136 19.3306L29.1219 18.7515L22.7852 18.5947C22.781 18.5948 22.7766 18.5948 22.7722 18.5948Z" fill="#4C241D"/>
<path d="M15.2279 18.8984C15.1722 18.8984 15.1151 18.8896 15.0591 18.8708L13.4591 18.3375C13.1796 18.2443 13.0286 17.9421 13.1219 17.6627C13.2148 17.3832 13.5164 17.2315 13.7967 17.3255L15.3967 17.8588C15.6762 17.952 15.8272 18.2541 15.7339 18.5336C15.6594 18.7571 15.4514 18.8984 15.2279 18.8984Z" fill="#4C241D"/>
<path d="M14.714 21.4667H13.114C12.8195 21.4667 12.5807 21.2279 12.5807 20.9333C12.5807 20.6388 12.8195 20.4 13.114 20.4H14.714C15.0086 20.4 15.2474 20.6388 15.2474 20.9333C15.2474 21.2279 15.0086 21.4667 14.714 21.4667Z" fill="#4C241D"/>
<path d="M13.3339 24.6667C13.138 24.6667 12.9498 24.5588 12.8563 24.3719C12.7246 24.1083 12.8312 23.788 13.0948 23.6563L14.1615 23.1229C14.4254 22.9907 14.7454 23.0981 14.8771 23.3615C15.0088 23.6251 14.9022 23.9453 14.6386 24.0771L13.5719 24.6104C13.4954 24.6487 13.4139 24.6667 13.3339 24.6667Z" fill="#4C241D"/>
</svg>
