<svg width="36" height="36" viewBox="0 0 36 36" fill="none" xmlns="http://www.w3.org/2000/svg">
<path d="M3.9375 24.1875L5.31169 32.4326C5.49225 33.5171 6.43106 34.3125 7.53075 34.3125H28.4687C29.5684 34.3125 30.5072 33.5171 30.6883 32.4326L32.0625 24.1875H3.9375Z" fill="#303F9F"/>
<path d="M9 12.9375C9.62132 12.9375 10.125 12.4338 10.125 11.8125C10.125 11.1912 9.62132 10.6875 9 10.6875C8.37868 10.6875 7.875 11.1912 7.875 11.8125C7.875 12.4338 8.37868 12.9375 9 12.9375Z" fill="#303F9F"/>
<path d="M3.9375 10.125C5.18014 10.125 6.1875 9.11764 6.1875 7.875C6.1875 6.63236 5.18014 5.625 3.9375 5.625C2.69486 5.625 1.6875 6.63236 1.6875 7.875C1.6875 9.11764 2.69486 10.125 3.9375 10.125Z" fill="#303F9F"/>
<path d="M31.5 4.5V1.125H28.125V4.5L26.4375 5.625V6.75H28.125V9C28.125 9.62156 28.6284 10.125 29.25 10.125H31.5C32.1216 10.125 32.625 9.62156 32.625 9V6.1875L31.5 4.5Z" fill="#F2C09D"/>
<path d="M16.875 4.5V1.125H13.5V4.5L12.375 6.1875V9C12.375 9.62156 12.8784 10.125 13.5 10.125H15.75C16.3716 10.125 16.875 9.62156 16.875 9V6.75H18.5625V5.625L16.875 4.5Z" fill="#F2C09D"/>
<path d="M32.0625 21.375H29.8125V22.5H32.0625C32.796 22.5 33.4215 22.9703 33.6538 23.625H29.8125V24.75H31.3987L30.1331 32.3398C29.997 33.1566 29.2973 33.75 28.4687 33.75H7.53131C6.70275 33.75 6.003 33.1566 5.86688 32.3398L4.60125 24.75H15.1875V23.625H2.34619C2.5785 22.9703 3.204 22.5 3.9375 22.5H15.1875V21.375H6.24431C6.50588 20.0931 7.64156 19.125 9 19.125C9.38363 19.125 9.756 19.2015 10.1081 19.3517C10.2566 19.4164 10.4242 19.4119 10.5699 19.3433C10.7156 19.2741 10.8242 19.1458 10.8692 18.9917C11.1634 17.9798 11.8097 17.0983 12.6883 16.5083L12.0611 15.5745C11.1274 16.2011 10.404 17.0927 9.98213 18.1238C9.66319 18.0416 9.33469 18 9 18C7.02056 18 5.382 19.4704 5.1075 21.375H3.9375C2.38669 21.375 1.125 22.6367 1.125 24.1875C1.125 24.4986 1.37644 24.75 1.6875 24.75H3.46106L4.75706 32.5243C4.98375 33.8867 6.15094 34.875 7.53131 34.875H28.4692C29.8496 34.875 31.0162 33.8867 31.2435 32.5243L32.5389 24.75H34.3125C34.6236 24.75 34.875 24.4986 34.875 24.1875C34.875 22.6367 33.6133 21.375 32.0625 21.375Z" fill="black"/>
<path d="M10.6875 11.8125C10.6875 10.8821 9.93038 10.125 9 10.125C8.06962 10.125 7.3125 10.8821 7.3125 11.8125C7.3125 12.7429 8.06962 13.5 9 13.5C9.93038 13.5 10.6875 12.7429 10.6875 11.8125ZM8.4375 11.8125C8.4375 11.502 8.6895 11.25 9 11.25C9.3105 11.25 9.5625 11.502 9.5625 11.8125C9.5625 12.123 9.3105 12.375 9 12.375C8.6895 12.375 8.4375 12.123 8.4375 11.8125Z" fill="black"/>
<path d="M3.9375 10.6875C5.48831 10.6875 6.75 9.42581 6.75 7.875C6.75 6.32419 5.48831 5.0625 3.9375 5.0625C2.38669 5.0625 1.125 6.32419 1.125 7.875C1.125 9.42581 2.38669 10.6875 3.9375 10.6875ZM3.9375 6.1875C4.86788 6.1875 5.625 6.94463 5.625 7.875C5.625 8.80538 4.86788 9.5625 3.9375 9.5625C3.00713 9.5625 2.25 8.80538 2.25 7.875C2.25 6.94463 3.00713 6.1875 3.9375 6.1875Z" fill="black"/>
<path d="M13.968 4.81219C14.0293 4.71994 14.0625 4.61081 14.0625 4.5V1.125H12.9375V4.32956L11.907 5.87531C11.8457 5.96756 11.8125 6.07669 11.8125 6.1875V9C11.8125 9.93038 12.5696 10.6875 13.5 10.6875H15.2347L13.5506 14.3921C13.4871 14.5322 13.4831 14.6919 13.5405 14.8348C13.5979 14.9771 13.7109 15.0902 13.8538 15.1476L16.3125 16.1308V22.5C16.3125 22.8111 16.5639 23.0625 16.875 23.0625H23.0625V23.625C23.0625 24.5554 23.8196 25.3125 24.75 25.3125C24.9474 25.3125 25.137 25.2782 25.3125 25.2163V25.3125C25.3125 26.2429 26.0696 27 27 27C27.9304 27 28.6875 26.2429 28.6875 25.3125V16.1308L31.1462 15.1476C31.2891 15.0902 31.4021 14.9771 31.4595 14.8348C31.5174 14.6919 31.5135 14.5322 31.4494 14.3921L29.7653 10.6875H31.5C32.4304 10.6875 33.1875 9.93038 33.1875 9V6.1875C33.1875 6.07669 33.1543 5.96756 33.093 5.87531L32.0625 4.32956V1.125H30.9375V4.5C30.9375 4.61081 30.9707 4.71994 31.032 4.81219L32.0625 6.35794V9C32.0625 9.3105 31.8105 9.5625 31.5 9.5625H29.25C28.9395 9.5625 28.6875 9.3105 28.6875 9V6.75C28.6875 6.43894 28.4361 6.1875 28.125 6.1875H27V5.92594L28.4372 4.968C28.5936 4.86337 28.6875 4.68788 28.6875 4.5V1.125H27.5625V4.19906L26.1253 5.157C25.9689 5.26163 25.875 5.43713 25.875 5.625V6.75C25.875 7.06106 26.1264 7.3125 26.4375 7.3125H27.5625V7.875H25.3125C25.0014 7.875 24.75 8.12644 24.75 8.4375C24.75 9.67838 23.7409 10.6875 22.5 10.6875C21.2591 10.6875 20.25 9.67838 20.25 8.4375C20.25 8.12644 19.9986 7.875 19.6875 7.875H17.4375V7.3125H18.5625C18.8736 7.3125 19.125 7.06106 19.125 6.75V5.625C19.125 5.43713 19.0311 5.26163 18.8747 5.157L17.4375 4.19906V1.125H16.3125V4.5C16.3125 4.68788 16.4064 4.86337 16.5628 4.968L18 5.92594V6.1875H16.875C16.5639 6.1875 16.3125 6.43894 16.3125 6.75V9C16.3125 9.3105 16.0605 9.5625 15.75 9.5625H13.5C13.1895 9.5625 12.9375 9.3105 12.9375 9V6.35794L13.968 4.81219ZM19.1717 9C19.4406 10.5941 20.8305 11.8125 22.5 11.8125C24.1695 11.8125 25.5594 10.5941 25.8283 9H27.5625C27.5625 9.63113 27.9146 10.1756 28.4288 10.4648L30.1821 14.3218L27.9169 15.2274C27.7026 15.3135 27.5625 15.5199 27.5625 15.75V25.3125C27.5625 25.623 27.3105 25.875 27 25.875C26.6895 25.875 26.4375 25.623 26.4375 25.3125V23.625C26.4375 23.3139 26.1861 23.0625 25.875 23.0625C25.5639 23.0625 25.3125 23.3139 25.3125 23.625C25.3125 23.9355 25.0605 24.1875 24.75 24.1875C24.4395 24.1875 24.1875 23.9355 24.1875 23.625V22.5C24.1875 22.1889 23.9361 21.9375 23.625 21.9375H17.4375V15.75C17.4375 15.5199 17.2974 15.3135 17.0837 15.2274L14.8185 14.3218L16.5718 10.4648C17.0854 10.1756 17.4375 9.63113 17.4375 9H19.1717Z" fill="black"/>
</svg>
