<svg width="37" height="37" viewBox="0 0 37 37" fill="none" xmlns="http://www.w3.org/2000/svg">
<path d="M34.1094 27.1719V31.7969C34.1085 32.1033 33.9864 32.3968 33.7697 32.6135C33.5531 32.8301 33.2595 32.9522 32.9532 32.9531H14.4532C14.2884 32.9531 14.1256 32.9174 13.9759 32.8486C13.8262 32.7797 13.6932 32.6793 13.586 32.5542C13.3978 32.3471 13.2946 32.0767 13.2969 31.7969V27.1719C13.2978 26.8655 13.4199 26.5719 13.6366 26.3553C13.8532 26.1387 14.1468 26.0165 14.4532 26.0156H32.9532C33.2595 26.0165 33.5531 26.1387 33.7697 26.3553C33.9864 26.5719 34.1085 26.8655 34.1094 27.1719Z" fill="#FFD422"/>
<path d="M30.6406 30.6406C31.2792 30.6406 31.7969 30.123 31.7969 29.4844C31.7969 28.8458 31.2792 28.3281 30.6406 28.3281C30.002 28.3281 29.4844 28.8458 29.4844 29.4844C29.4844 30.123 30.002 30.6406 30.6406 30.6406Z" fill="#FF9811"/>
<path d="M31.2188 21.3906H16.1875L16.6558 19.5175C16.6868 19.3922 16.7588 19.2808 16.8605 19.2012C16.9621 19.1215 17.0875 19.0782 17.2166 19.0781H30.1897C30.3188 19.0782 30.4442 19.1215 30.5458 19.2012C30.6474 19.2808 30.7195 19.3922 30.7505 19.5175L31.2188 21.3906Z" fill="#FFD422"/>
<path d="M20.8125 16.7656H26.5938V19.0781H20.8125V16.7656Z" fill="#303F9F"/>
<path d="M16.7656 30.6406C17.4042 30.6406 17.9219 30.123 17.9219 29.4844C17.9219 28.8458 17.4042 28.3281 16.7656 28.3281C16.127 28.3281 15.6094 28.8458 15.6094 29.4844C15.6094 30.123 16.127 30.6406 16.7656 30.6406Z" fill="#FF9811"/>
<path d="M8.67188 35.2656H4.04688V27.75H13.2969V31.7969V34.6875V35.2656H8.67188Z" fill="#303F9F"/>
<path d="M11.9672 15.1469L10.4062 16.7656L8.67188 15.0312L10.4062 14.4531L11.9672 15.1469Z" fill="#303F9F"/>
<path d="M8.6719 15.0312L6.93752 16.7656L5.37659 15.1469L6.93752 14.4531L8.6719 15.0312Z" fill="#303F9F"/>
<path d="M15.6094 27.1719V27.75C15.6094 28.21 15.4266 28.6511 15.1014 28.9764C14.7761 29.3016 14.335 29.4844 13.875 29.4844H13.2969V27.1719H15.6094Z" fill="#FFC477"/>
<path d="M4.04688 27.75V29.4844H3.46875C3.00877 29.4844 2.56762 29.3016 2.24236 28.9764C1.9171 28.6511 1.73438 28.21 1.73438 27.75V27.1719H4.04688V27.75Z" fill="#FFC477"/>
<path d="M6.9375 12.7188V12.9037V13.2969V14.4531L8.67188 15.0312L10.4062 14.4531V13.2969V12.9037V12.7188H6.9375Z" fill="#FFC477"/>
<path d="M14.4531 8.67188C14.4522 8.97825 14.3301 9.27182 14.1135 9.48846C13.8968 9.7051 13.6033 9.82721 13.2969 9.82812H12.1406V7.51562H13.2969C13.6033 7.51654 13.8968 7.63865 14.1135 7.85529C14.3301 8.07193 14.4522 8.3655 14.4531 8.67188Z" fill="#FFCDBE"/>
<path d="M5.20312 7.51562V9.82812H4.04688C3.74022 9.82812 3.44612 9.70631 3.22928 9.48947C3.01244 9.27263 2.89063 8.97853 2.89062 8.67188C2.89062 8.36522 3.01244 8.07112 3.22928 7.85428C3.44612 7.63744 3.74022 7.51562 4.04688 7.51562H5.20312Z" fill="#FFCDBE"/>
<path d="M12.7187 6.35938V9.25C12.721 9.44372 12.7056 9.63724 12.6725 9.82813C12.5796 10.4886 12.3238 11.1155 11.9282 11.6524C11.5325 12.1894 11.0095 12.6194 10.4062 12.9038C9.83438 13.1767 9.20632 13.3111 8.57286 13.2963C7.9394 13.2814 7.31835 13.1176 6.75995 12.8181C6.20154 12.5186 5.72149 12.0919 5.35862 11.5725C4.99576 11.053 4.76027 10.4555 4.67123 9.82813C4.63815 9.63724 4.62267 9.44372 4.62498 9.25V6.35938H12.7187Z" fill="#FFCDBE"/>
<path d="M13.875 2.89062L13.4877 4.04688H3.85609L3.46875 2.89062L4.625 1.73438H12.7188L13.875 2.89062Z" fill="#303F9F"/>
<path d="M10.4062 12.9037V14.06C9.86469 14.3188 9.27209 14.4531 8.67188 14.4531C8.07166 14.4531 7.47906 14.3188 6.9375 14.06V12.9037C7.47906 13.1625 8.07166 13.2969 8.67188 13.2969C9.27209 13.2969 9.86469 13.1625 10.4062 12.9037Z" fill="#FFCDBE"/>
<path d="M12.7188 6.35938C12.7183 6.76556 12.6106 7.16443 12.4066 7.51562C12.3318 7.64839 12.2426 7.77247 12.1406 7.88563C11.9243 8.13276 11.6576 8.33078 11.3585 8.46638C11.0594 8.60199 10.7347 8.67206 10.4062 8.67187H6.9375C6.60906 8.67206 6.28439 8.60199 5.98525 8.46638C5.68612 8.33078 5.41944 8.13276 5.20312 7.88563C5.10111 7.77247 5.01192 7.64839 4.93719 7.51562C4.73311 7.16443 4.62542 6.76556 4.625 6.35938H12.7188Z" fill="#303F9F"/>
<path d="M13.7883 15.3261L10.9844 14.0773V13.2506C11.5142 12.9421 11.9779 12.532 12.3489 12.0439C12.7199 11.5558 12.991 10.9993 13.1466 10.4062H13.2969C13.7569 10.4062 14.198 10.2235 14.5233 9.89826C14.8485 9.573 15.0312 9.13186 15.0312 8.67188C15.0312 8.21189 14.8485 7.77074 14.5233 7.44549C14.198 7.12023 13.7569 6.9375 13.2969 6.9375V6.45187L14.4242 3.07563C14.4572 2.97311 14.4617 2.86356 14.4373 2.75868C14.4129 2.6538 14.3604 2.55753 14.2855 2.48016L13.1292 1.32391C13.019 1.21742 12.872 1.15739 12.7188 1.15625H4.625C4.47173 1.15739 4.32477 1.21742 4.21453 1.32391L3.05828 2.48016C2.98337 2.55753 2.9309 2.6538 2.90646 2.75868C2.88202 2.86356 2.88654 2.97311 2.91953 3.07563L4.04688 6.45187V6.9375C3.58689 6.9375 3.14575 7.12023 2.82049 7.44549C2.49523 7.77074 2.3125 8.21189 2.3125 8.67188C2.3125 9.13186 2.49523 9.573 2.82049 9.89826C3.14575 10.2235 3.58689 10.4062 4.04688 10.4062H4.19719C4.35274 10.9993 4.6238 11.5558 4.99483 12.0439C5.36586 12.532 5.82957 12.9421 6.35938 13.2506V14.0773L3.55547 15.3261C2.84149 15.6444 2.23497 16.1626 1.8092 16.8182C1.38343 17.4738 1.15665 18.2386 1.15625 19.0203V27.75C1.15625 28.3633 1.39989 28.9515 1.83357 29.3852C2.26724 29.8189 2.85544 30.0625 3.46875 30.0625V35.2656C3.46875 35.419 3.52966 35.566 3.63808 35.6744C3.7465 35.7828 3.89355 35.8438 4.04688 35.8438H13.2969C13.4502 35.8438 13.5973 35.7828 13.7057 35.6744C13.8141 35.566 13.875 35.419 13.875 35.2656V30.0625C14.4883 30.0625 15.0765 29.8189 15.5102 29.3852C15.9439 28.9515 16.1875 28.3633 16.1875 27.75V19.0203C16.1871 18.2386 15.9603 17.4738 15.5346 16.8182C15.1088 16.1626 14.5023 15.6444 13.7883 15.3261ZM13.2969 8.09375C13.4502 8.09375 13.5973 8.15466 13.7057 8.26308C13.8141 8.3715 13.875 8.51855 13.875 8.67188C13.875 8.8252 13.8141 8.97225 13.7057 9.08067C13.5973 9.18909 13.4502 9.25 13.2969 9.25V8.09375ZM4.04688 9.25C3.89355 9.25 3.7465 9.18909 3.63808 9.08067C3.52966 8.97225 3.46875 8.8252 3.46875 8.67188C3.46875 8.51855 3.52966 8.3715 3.63808 8.26308C3.7465 8.15466 3.89355 8.09375 4.04688 8.09375V9.25ZM4.12781 3.04672L4.86203 2.3125H12.4817L13.2159 3.04672L13.0714 3.46875H4.27234L4.12781 3.04672ZM4.65391 4.625H12.6898L12.3025 5.78125H5.04125L4.65391 4.625ZM12.0423 6.9375C11.9217 7.27514 11.6999 7.56735 11.4071 7.77427C11.1143 7.9812 10.7648 8.09276 10.4062 8.09375H6.9375C6.57896 8.09276 6.22946 7.9812 5.93666 7.77427C5.64387 7.56735 5.42203 7.27514 5.30141 6.9375H12.0423ZM5.20312 9.25V8.65453C5.69974 9.03889 6.30952 9.24825 6.9375 9.25H10.4062C11.0342 9.24825 11.644 9.03889 12.1406 8.65453V9.25C12.1406 10.17 11.7752 11.0523 11.1247 11.7028C10.4741 12.3533 9.59184 12.7188 8.67188 12.7188C7.75191 12.7188 6.86962 12.3533 6.2191 11.7028C5.56858 11.0523 5.20312 10.17 5.20312 9.25ZM7.51562 14.0369V13.7247C8.27343 13.9251 9.07032 13.9251 9.82812 13.7247V14.0369L8.67188 14.4242L7.51562 14.0369ZM7.60234 15.2856L6.94328 15.9389L6.36516 15.3377L6.96641 15.0717L7.60234 15.2856ZM10.3773 15.0717L10.9786 15.3377L10.4005 15.9389L9.74141 15.2856L10.3773 15.0717ZM3.46875 28.9062C3.16237 28.9053 2.86881 28.7832 2.65217 28.5666C2.43553 28.3499 2.31342 28.0564 2.3125 27.75H3.46875V28.9062ZM12.7188 34.6875H9.25V30.0625H8.09375V34.6875H4.625V28.3281H12.7188V34.6875ZM13.875 28.9062V27.75H15.0312C15.0303 28.0564 14.9082 28.3499 14.6916 28.5666C14.4749 28.7832 14.1814 28.9053 13.875 28.9062ZM15.0312 26.5938H13.875V18.5H12.7188V27.1719H4.625V18.5H3.46875V26.5938H2.3125V19.0203C2.31308 18.4612 2.47553 17.9142 2.78022 17.4453C3.08491 16.9765 3.51881 16.6059 4.02953 16.3783L5.24359 15.8406L6.52125 17.1645C6.57368 17.221 6.63719 17.2661 6.70782 17.2969C6.77844 17.3277 6.85466 17.3437 6.93172 17.3438H6.9375C7.09055 17.3415 7.23712 17.2816 7.34797 17.1761L8.67188 15.8464L9.99578 17.1761C10.1066 17.2816 10.2532 17.3415 10.4062 17.3438H10.412C10.4891 17.3437 10.5653 17.3277 10.6359 17.2969C10.7066 17.2661 10.7701 17.221 10.8225 17.1645L12.1002 15.8406L13.3142 16.3783C13.8249 16.6059 14.2588 16.9765 14.5635 17.4453C14.8682 17.9142 15.0307 18.4612 15.0312 19.0203V26.5938Z" fill="black"/>
<path d="M20.8125 30.0625H26.5938V31.2188H20.8125V30.0625Z" fill="black"/>
<path d="M20.8125 27.75H26.5938V28.9062H20.8125V27.75Z" fill="black"/>
<path d="M32.375 29.4844C32.375 29.1413 32.2733 28.806 32.0827 28.5208C31.8921 28.2356 31.6213 28.0133 31.3043 27.882C30.9874 27.7508 30.6387 27.7164 30.3023 27.7833C29.9658 27.8502 29.6568 28.0154 29.4142 28.258C29.1717 28.5005 29.0065 28.8096 28.9396 29.146C28.8727 29.4825 28.907 29.8312 29.0383 30.1481C29.1695 30.465 29.3918 30.7359 29.6771 30.9265C29.9623 31.117 30.2976 31.2187 30.6406 31.2187C31.1006 31.2187 31.5418 31.036 31.867 30.7108C32.1923 30.3855 32.375 29.9444 32.375 29.4844ZM30.0625 29.4844C30.0625 29.37 30.0964 29.2583 30.1599 29.1632C30.2235 29.0681 30.3137 28.994 30.4194 28.9503C30.525 28.9065 30.6413 28.8951 30.7534 28.9174C30.8656 28.9397 30.9686 28.9947 31.0494 29.0756C31.1303 29.1564 31.1853 29.2594 31.2076 29.3716C31.2299 29.4837 31.2185 29.6 31.1747 29.7056C31.131 29.8113 31.0569 29.9015 30.9618 29.9651C30.8667 30.0286 30.755 30.0625 30.6406 30.0625C30.4873 30.0625 30.3402 30.0016 30.2318 29.8932C30.1234 29.7848 30.0625 29.6377 30.0625 29.4844Z" fill="black"/>
<path d="M16.7656 31.2188C17.2256 31.2188 17.6668 31.036 17.992 30.7108C18.3173 30.3855 18.5 29.9444 18.5 29.4844C18.5 29.0244 18.3173 28.5832 17.992 28.258C17.6668 27.9327 17.2256 27.75 16.7656 27.75V28.9062C16.8671 28.9063 16.9667 28.9331 17.0546 28.9839C17.1424 29.0348 17.2153 29.1078 17.266 29.1957C17.3166 29.2836 17.3433 29.3833 17.3432 29.4847C17.3431 29.5862 17.3164 29.6858 17.2656 29.7737C17.2148 29.8615 17.1418 29.9345 17.054 29.9852C16.9661 30.0358 16.8664 30.0625 16.7649 30.0625C16.6635 30.0625 16.5638 30.0357 16.476 29.985C16.3881 29.9343 16.3151 29.8613 16.2644 29.7734L15.2637 30.3516C15.4163 30.6148 15.6354 30.8334 15.8989 30.9856C16.1625 31.1378 16.4613 31.2182 16.7656 31.2188Z" fill="black"/>
<path d="M35.2656 24.8594C35.2643 24.3998 35.0811 23.9595 34.7561 23.6345C34.4312 23.3095 33.9908 23.1264 33.5312 23.125C33.1981 23.1257 32.8724 23.2242 32.5947 23.4083L31.7738 21.2172L31.3113 19.373C31.2489 19.123 31.1045 18.9011 30.9012 18.7428C30.6979 18.5846 30.4473 18.4991 30.1897 18.5H27.1719V16.7656C27.1719 16.6123 27.111 16.4652 27.0025 16.3568C26.8941 16.2484 26.7471 16.1875 26.5938 16.1875H20.8125C20.6592 16.1875 20.5121 16.2484 20.4037 16.3568C20.2953 16.4652 20.2344 16.6123 20.2344 16.7656V18.5H17.3438V19.6562H30.1897L30.4788 20.8125H17.3438V21.9688H30.8198L32.1206 25.4375H21.8878C21.7616 24.9414 21.4737 24.5016 21.0695 24.1874C20.6654 23.8732 20.1681 23.7027 19.6562 23.7027C19.1444 23.7027 18.6471 23.8732 18.243 24.1874C17.8388 24.5016 17.5509 24.9414 17.4247 25.4375H17.3438V26.5938H32.9531C33.1065 26.5938 33.2535 26.6547 33.3619 26.7631C33.4703 26.8715 33.5312 27.0185 33.5312 27.1719V31.7969C33.5312 31.9502 33.4703 32.0973 33.3619 32.2057C33.2535 32.3141 33.1065 32.375 32.9531 32.375H15.0312V33.5312H16.1875V34.6875H15.0312V35.8438H16.1875C16.4939 35.8428 16.7874 35.7207 17.0041 35.5041C17.2207 35.2874 17.3428 34.9939 17.3438 34.6875V33.5312H30.0625V34.6875C30.0634 34.9939 30.1855 35.2874 30.4022 35.5041C30.6188 35.7207 30.9124 35.8428 31.2188 35.8438H33.5312C33.8376 35.8428 34.1312 35.7207 34.3478 35.5041C34.5645 35.2874 34.6866 34.9939 34.6875 34.6875V27.1719C34.6864 26.8732 34.6066 26.5801 34.4562 26.322C34.7041 26.1668 34.9084 25.9512 35.05 25.6953C35.1916 25.4395 35.2658 25.1518 35.2656 24.8594ZM26.0156 18.5H21.3906V17.3438H26.0156V18.5ZM18.6619 25.4375C18.7618 25.2619 18.9065 25.1159 19.0811 25.0143C19.2558 24.9128 19.4542 24.8593 19.6562 24.8593C19.8583 24.8593 20.0567 24.9128 20.2314 25.0143C20.406 25.1159 20.5507 25.2619 20.6506 25.4375H18.6619ZM33.5312 34.6875H31.2188V33.5312H32.9531C33.1503 33.5297 33.3459 33.4945 33.5312 33.4272V34.6875ZM33.5312 25.4375C33.4661 25.4372 33.4015 25.4255 33.3405 25.4028L33.0341 24.5761C33.0825 24.4866 33.1543 24.4118 33.2419 24.3599C33.3294 24.308 33.4295 24.2808 33.5312 24.2812C33.6846 24.2812 33.8316 24.3422 33.94 24.4506C34.0485 24.559 34.1094 24.706 34.1094 24.8594C34.1094 25.0127 34.0485 25.1598 33.94 25.2682C33.8316 25.3766 33.6846 25.4375 33.5312 25.4375Z" fill="black"/>
</svg>
