<svg width="36" height="36" viewBox="0 0 36 36" fill="none" xmlns="http://www.w3.org/2000/svg">
<path d="M6.38715 8.88C5.46087 8.88 4.70715 8.12628 4.70715 7.2C4.70715 6.27372 5.46087 5.52 6.38715 5.52C7.31343 5.52 8.06715 6.27372 8.06715 7.2C8.06715 8.12628 7.31343 8.88 6.38715 8.88ZM6.38715 6.48C5.99007 6.48 5.66715 6.80292 5.66715 7.2C5.66715 7.59708 5.99007 7.92 6.38715 7.92C6.78423 7.92 7.10715 7.59708 7.10715 7.2C7.10715 6.80292 6.78423 6.48 6.38715 6.48Z" fill="#4C241D"/>
<path d="M32.3071 5.34348C32.6073 5.34348 32.8506 5.10016 32.8506 4.8C32.8506 4.49984 32.6073 4.25652 32.3071 4.25652C32.0069 4.25652 31.7636 4.49984 31.7636 4.8C31.7636 5.10016 32.0069 5.34348 32.3071 5.34348Z" fill="#4C241D"/>
<path d="M24.4655 6.16176C24.3427 6.16176 24.2198 6.11484 24.1261 6.02112C23.9387 5.83368 23.9387 5.52984 24.1261 5.3424L25.8895 3.579C26.077 3.39156 26.3808 3.39156 26.5682 3.579C26.7557 3.76644 26.7557 4.07028 26.5682 4.25772L24.8048 6.02112C24.7111 6.11484 24.5882 6.16176 24.4655 6.16176Z" fill="#4C241D"/>
<path d="M26.2289 6.16176C26.1061 6.16176 25.9832 6.11484 25.8895 6.02112L24.1261 4.2576C23.9387 4.07016 23.9387 3.76632 24.1261 3.57888C24.3136 3.39144 24.6174 3.39144 24.8048 3.57888L26.5682 5.34228C26.7557 5.52972 26.7557 5.83356 26.5682 6.021C26.4745 6.11484 26.3518 6.16176 26.2289 6.16176Z" fill="#4C241D"/>
<path d="M25.3472 32.88H8.06716C7.80208 32.88 7.58716 32.6651 7.58716 32.4V28.4518C7.58716 26.4872 8.72344 24.7018 10.4817 23.9026L16.5087 21.1632C16.6348 21.1056 16.7796 21.1056 16.9058 21.1632L22.9328 23.9028C24.691 24.7018 25.8273 26.4872 25.8273 28.4518V32.4C25.8272 32.6651 25.6122 32.88 25.3472 32.88ZM8.54716 31.92H24.8672V28.4518C24.8672 26.863 23.9519 25.4203 22.5356 24.7768L16.7072 22.1274L10.8788 24.7765C9.4624 25.4203 8.54716 26.863 8.54716 28.4518V31.92Z" fill="#4C241D"/>
<path d="M16.7072 24.24C15.6468 24.24 14.7872 23.3804 14.7872 22.32V21.36H18.6272V22.32C18.6271 23.3804 17.7676 24.24 16.7072 24.24Z" fill="#E7D1C4"/>
<path d="M16.7071 24.72C15.3839 24.72 14.3071 23.6432 14.3071 22.32V21.36C14.3071 21.0949 14.522 20.88 14.7871 20.88H18.6271C18.8922 20.88 19.1071 21.0949 19.1071 21.36V22.32C19.1071 23.6432 18.0305 24.72 16.7071 24.72ZM15.2671 21.84V22.32C15.2671 23.114 15.9131 23.76 16.7071 23.76C17.5012 23.76 18.1471 23.114 18.1471 22.32V21.84H15.2671Z" fill="#4C241D"/>
<path d="M22.9471 14.4C22.9119 14.4 22.9068 14.0471 22.9126 13.6439C22.9225 12.9454 22.455 12.324 21.7767 12.1566C18.4595 11.3381 14.8977 11.491 11.6646 12.4838C11.2409 12.6139 10.9629 13.0206 10.9753 13.4638C10.9879 13.9133 10.9913 14.3999 10.947 14.3999C10.2697 14.3999 9.72349 14.961 9.74785 15.6437C9.76153 16.0276 9.99757 16.3745 10.3159 16.5893C10.702 16.8498 11.0335 16.8313 11.3277 16.7323C11.8038 19.0554 13.4903 20.9981 15.8189 21.7476C16.4865 21.9625 17.2086 21.942 17.8758 21.7258L18.0888 21.6568C20.38 20.9142 22.0516 19.0121 22.5496 16.7273C22.8425 16.8306 23.1762 16.8487 23.5541 16.6133C23.86 16.4227 24.0935 16.11 24.1375 15.7524C24.2278 15.0216 23.6601 14.4 22.9471 14.4Z" fill="#E7D1C4"/>
<path d="M16.7973 22.3802C16.4142 22.3802 16.0356 22.3219 15.6721 22.2049C13.368 21.4631 11.6 19.5994 10.9653 17.2802C10.6489 17.2876 10.3444 17.1878 10.0476 16.9876C9.57789 16.6704 9.28653 16.1748 9.26805 15.6612C9.25185 15.2002 9.41877 14.7642 9.73821 14.4334C9.95217 14.2118 10.2152 14.0569 10.5037 13.9787C10.5037 13.8612 10.5018 13.6996 10.4958 13.4773C10.477 12.8138 10.9 12.2166 11.5239 12.0251C14.8916 10.9908 18.5737 10.8718 21.8917 11.6909C22.7884 11.9119 23.4057 12.718 23.3926 13.6507C23.3905 13.7874 23.3902 13.8952 23.3907 13.9798C23.703 14.0653 23.9872 14.2402 24.2059 14.4874C24.5246 14.8476 24.6733 15.3299 24.6141 15.8108C24.5548 16.2908 24.2536 16.7432 23.8081 17.0207C23.5179 17.2014 23.2152 17.2909 22.9053 17.2789C22.2524 19.5508 20.499 21.38 18.2371 22.1134L18.0236 22.1825C17.6174 22.3141 17.2047 22.3802 16.7973 22.3802ZM11.3277 16.2526C11.4109 16.2526 11.4934 16.2742 11.567 16.3165C11.6863 16.3849 11.7702 16.5014 11.7979 16.6362C12.2464 18.824 13.8438 20.6077 15.9662 21.2911C16.5144 21.4674 17.1402 21.4596 17.7278 21.2693L17.9413 21.2002C20.0268 20.5242 21.613 18.7711 22.0808 16.6252C22.1101 16.4906 22.1959 16.3751 22.3161 16.308C22.4364 16.2407 22.5798 16.229 22.7094 16.2748C22.9273 16.3519 23.0986 16.332 23.3007 16.2059C23.5023 16.0802 23.6373 15.8887 23.6612 15.6937C23.6872 15.4825 23.6253 15.2801 23.4868 15.1232C23.3499 14.9686 23.1534 14.88 22.9471 14.88C22.8187 14.88 22.6906 14.8261 22.6004 14.7347C22.4431 14.5748 22.4211 14.4314 22.4326 13.6369C22.4395 13.1537 22.1226 12.7364 21.6618 12.6228C18.5096 11.8452 15.0099 11.9591 11.8056 12.943C11.5928 13.0084 11.4486 13.2169 11.4552 13.4506C11.4826 14.4443 11.4519 14.5723 11.2968 14.7319C11.2063 14.8249 11.0767 14.88 10.9471 14.88C10.7499 14.88 10.566 14.958 10.4289 15.1001C10.292 15.2419 10.2206 15.4289 10.2276 15.627C10.2349 15.8314 10.3717 16.048 10.5846 16.1918C10.8182 16.3495 10.9896 16.3402 11.1747 16.2776C11.2246 16.2607 11.2762 16.2526 11.3277 16.2526ZM23.4019 14.2751H23.4068H23.4019Z" fill="#4C241D"/>
<path d="M19.3471 16.8C19.6122 16.8 19.8271 16.5851 19.8271 16.32C19.8271 16.0549 19.6122 15.84 19.3471 15.84C19.082 15.84 18.8671 16.0549 18.8671 16.32C18.8671 16.5851 19.082 16.8 19.3471 16.8Z" fill="#4C241D"/>
<path d="M14.5471 16.8C14.8122 16.8 15.0271 16.5851 15.0271 16.32C15.0271 16.0549 14.8122 15.84 14.5471 15.84C14.282 15.84 14.0671 16.0549 14.0671 16.32C14.0671 16.5851 14.282 16.8 14.5471 16.8Z" fill="#4C241D"/>
<path d="M13.8271 12.24C14.9057 13.4714 19.1071 16.56 22.9472 14.16C22.9472 13.68 22.944 13.8868 22.9472 13.68C22.9576 12.9949 22.4613 12.3262 21.7962 12.1618C19.7922 11.6663 15.2671 11.28 13.8271 12.24Z" fill="#6B4F5B"/>
<path d="M19.8681 15.5378C16.8156 15.5378 14.1807 13.3722 13.4659 12.5561C13.3749 12.4523 13.3331 12.3139 13.3513 12.1769C13.3693 12.0397 13.4457 11.9172 13.5608 11.8405C15.2831 10.6931 20.1657 11.2642 21.9114 11.6957C22.7893 11.9128 23.4409 12.7688 23.4271 13.6872L23.4259 13.8121L23.4271 14.1599C23.4271 14.3254 23.3418 14.4791 23.2014 14.567C22.0827 15.2663 20.9491 15.5378 19.8681 15.5378ZM14.667 12.3886C16.0175 13.562 19.3475 15.6403 22.4663 13.8874L22.466 13.8229L22.4672 13.6729C22.4743 13.2054 22.1215 12.7366 21.6809 12.6276C19.7334 12.146 16.2959 11.9046 14.667 12.3886Z" fill="#4C241D"/>
<path d="M23.4271 12.24H9.98712V11.04C9.98712 7.46124 12.8884 4.56 16.4671 4.56H16.9471C20.5259 4.56 23.4271 7.46124 23.4271 11.04V12.24Z" fill="#303F9F"/>
<path d="M23.4271 12.72H9.98714C9.72206 12.72 9.50714 12.5051 9.50714 12.24V11.04C9.50714 7.2024 12.6295 4.08 16.4671 4.08H16.9471C20.7847 4.08 23.9071 7.2024 23.9071 11.04V12.24C23.9071 12.5051 23.6922 12.72 23.4271 12.72ZM10.4671 11.76H22.9471V11.04C22.9471 7.7316 20.2555 5.04 16.9471 5.04H16.4671C13.1587 5.04 10.4671 7.7316 10.4671 11.04V11.76Z" fill="#4C241D"/>
<path d="M11.4615 14.1488C12.5567 13.8588 13.6461 12.8017 14.3773 11.9503C13.5976 12.0916 12.8275 12.2748 12.0762 12.5063C11.6921 12.6246 11.4414 12.9936 11.4535 13.3954C11.4615 13.661 11.4669 13.9495 11.4615 14.1488Z" fill="#6B4F5B"/>
<path d="M11.4614 14.6287C11.3545 14.6287 11.2493 14.5928 11.1636 14.5252C11.045 14.4312 10.9775 14.2871 10.9817 14.1359C10.9868 13.9436 10.9814 13.6657 10.9738 13.4095C10.9553 12.7877 11.3504 12.2275 11.935 12.0475C12.681 11.8178 13.4738 11.6261 14.2919 11.478C14.4894 11.4416 14.6929 11.535 14.794 11.7116C14.895 11.8879 14.8741 12.109 14.7416 12.2629C13.9739 13.1568 12.8032 14.2901 11.5843 14.6128C11.5436 14.6236 11.5024 14.6287 11.4614 14.6287ZM12.8892 12.7726C12.6614 12.8333 12.437 12.8975 12.2174 12.965C12.0445 13.0184 11.9275 13.1896 11.9332 13.3811C11.9339 13.4012 11.9344 13.4214 11.9351 13.4418C12.2376 13.2794 12.5582 13.0544 12.8892 12.7726Z" fill="#4C241D"/>
<path d="M22.9471 13.2H10.4671C9.93698 13.2 9.50714 12.7702 9.50714 12.24C9.50714 11.7098 9.93698 11.28 10.4671 11.28H22.9471C23.4773 11.28 23.9071 11.7098 23.9071 12.24C23.9071 12.7702 23.4774 13.2 22.9471 13.2Z" fill="white"/>
<path d="M22.9471 13.68H10.4671C9.67306 13.68 9.0271 13.034 9.0271 12.24C9.0271 11.446 9.67306 10.8 10.4671 10.8H22.9471C23.7411 10.8 24.3871 11.446 24.3871 12.24C24.3871 13.034 23.7413 13.68 22.9471 13.68ZM10.4671 11.76C10.2025 11.76 9.9871 11.9754 9.9871 12.24C9.9871 12.5046 10.2025 12.72 10.4671 12.72H22.9471C23.2117 12.72 23.4271 12.5046 23.4271 12.24C23.4271 11.9754 23.2117 11.76 22.9471 11.76H10.4671Z" fill="#4C241D"/>
<path d="M16.143 10.3183C16.0218 10.3183 15.9005 10.2726 15.8071 10.1812C15.6178 9.99552 15.6146 9.69156 15.8 9.50244L16.4333 8.85624L15.8504 8.83728C15.6685 8.8314 15.5059 8.7234 15.4297 8.55816C15.3538 8.39292 15.3776 8.19912 15.4914 8.05728L16.8018 6.42324C16.9678 6.21648 17.2703 6.18348 17.4766 6.34896C17.6836 6.51492 17.7166 6.81696 17.5508 7.02372L16.8409 7.90896L17.5562 7.93212C17.7468 7.93824 17.9153 8.05632 17.9863 8.23308C18.0571 8.41008 18.0168 8.6118 17.8837 8.74776L16.486 10.1742C16.392 10.2703 16.2674 10.3183 16.143 10.3183Z" fill="#4C241D"/>
<path d="M29.6773 6.23808L26.5655 11.0786H28.2943L26.9113 14.8819L30.3689 10.0414H28.9858L29.6773 6.23808Z" fill="#FC8C29"/>
<path d="M26.9109 15.3619C26.8352 15.3619 26.7585 15.3442 26.6876 15.3066C26.4752 15.1948 26.378 14.9434 26.4601 14.7179L27.609 11.5588H26.5656C26.39 11.5588 26.2283 11.4629 26.1441 11.3087C26.06 11.1547 26.0667 10.9669 26.1617 10.8193L29.2735 5.97876C29.3972 5.78568 29.6396 5.7066 29.8533 5.79168C30.0666 5.87556 30.1907 6.09876 30.1496 6.324L29.5611 9.56148H30.369C30.5487 9.56148 30.7135 9.66204 30.7958 9.82188C30.8781 9.98172 30.864 10.1742 30.7595 10.3204L27.3018 15.1609C27.2088 15.2909 27.0617 15.3619 26.9109 15.3619ZM27.4446 10.5986H28.2942C28.4508 10.5986 28.5974 10.6751 28.6872 10.8032C28.7772 10.9314 28.7988 11.0956 28.7453 11.2427L28.5631 11.7431L29.4359 10.5212H28.9856C28.8433 10.5212 28.7083 10.458 28.6172 10.3487C28.5261 10.2394 28.4879 10.0954 28.5134 9.95544L28.7719 8.53368L27.4446 10.5986Z" fill="#4C241D"/>
<path d="M8.66507 19.9121C8.66507 18.5597 7.5378 17.4635 6.14723 17.4635C4.75667 17.4635 3.62939 18.5598 3.62939 19.9121C3.62939 20.6356 3.95279 21.2844 4.46615 21.7321C4.75799 21.9868 4.91975 22.3597 4.96055 22.7449L5.06807 23.76H7.22627L7.33391 22.7449C7.37471 22.3597 7.53647 21.9868 7.82831 21.7321C8.34155 21.2844 8.66507 20.6356 8.66507 19.9121Z" fill="#FFEC95"/>
<path d="M7.22629 24.24H5.06809C4.82245 24.24 4.61665 24.0548 4.59061 23.8106L4.48309 22.7956C4.45213 22.503 4.33381 22.2539 4.15057 22.0938C3.51421 21.539 3.14929 20.7438 3.14929 19.912C3.14929 18.2971 4.49413 16.9835 6.14713 16.9835C7.80013 16.9835 9.14497 18.2971 9.14497 19.912C9.14497 20.7438 8.78005 21.539 8.14369 22.0938C7.96045 22.2539 7.84201 22.503 7.81093 22.7958L7.70353 23.8106C7.67761 24.0548 7.47193 24.24 7.22629 24.24ZM5.49985 23.28H6.79453L6.85645 22.6943C6.91345 22.1602 7.14661 21.69 7.51297 21.3706C7.94029 20.998 8.18521 20.4664 8.18521 19.9121C8.18521 18.8267 7.27093 17.9436 6.14737 17.9436C5.02381 17.9436 4.10953 18.8267 4.10953 19.9121C4.10953 20.4664 4.35445 20.998 4.78177 21.3706C5.14813 21.69 5.38129 22.1602 5.43805 22.694L5.49985 23.28Z" fill="#4C241D"/>
<path d="M6.14713 25.68C5.61697 25.68 5.18713 25.2502 5.18713 24.72V23.76H7.10713V24.72C7.10713 25.2502 6.67741 25.68 6.14713 25.68Z" fill="#6B4F5B"/>
<path d="M6.14715 26.16C5.35311 26.16 4.70715 25.514 4.70715 24.72V23.76C4.70715 23.4949 4.92207 23.28 5.18715 23.28H7.10715C7.37223 23.28 7.58715 23.4949 7.58715 23.76V24.72C7.58715 25.514 6.94131 26.16 6.14715 26.16ZM5.66715 24.24V24.72C5.66715 24.9846 5.88255 25.2 6.14715 25.2C6.41175 25.2 6.62715 24.9846 6.62715 24.72V24.24H5.66715Z" fill="#4C241D"/>
<path d="M29.6672 32.4C28.872 32.4 28.2272 31.7552 28.2272 30.96V25.2H31.1072V30.96C31.1071 31.7552 30.4625 32.4 29.6672 32.4Z" fill="#9DC1E4"/>
<path d="M29.6671 32.88C28.6085 32.88 27.7471 32.0186 27.7471 30.96V25.2C27.7471 24.9349 27.9621 24.72 28.2271 24.72H31.1071C31.3722 24.72 31.5871 24.9349 31.5871 25.2V30.96C31.5871 32.0186 30.7259 32.88 29.6671 32.88ZM28.7071 25.68V30.96C28.7071 31.4894 29.1377 31.92 29.6671 31.92C30.1966 31.92 30.6271 31.4894 30.6271 30.96V25.68H28.7071Z" fill="#4C241D"/>
<path d="M29.6671 25.68C29.4021 25.68 29.1871 25.4651 29.1871 25.2V19.92C29.1871 19.6549 29.4021 19.44 29.6671 19.44C29.9322 19.44 30.1471 19.6549 30.1471 19.92V25.2C30.1471 25.4651 29.9322 25.68 29.6671 25.68Z" fill="#4C241D"/>
<path d="M29.1871 16.56H30.1471L31.1071 18.96L29.6737 20.3935L28.2271 18.96L29.1871 16.56Z" fill="#B5A19C"/>
<path d="M29.6737 20.8734C29.5516 20.8734 29.4295 20.827 29.3358 20.7344L27.8892 19.301C27.7523 19.1653 27.7099 18.9607 27.7814 18.7817L28.7414 16.3817C28.8145 16.1995 28.991 16.08 29.1872 16.08H30.1472C30.3434 16.08 30.5198 16.1995 30.593 16.3817L31.553 18.7817C31.6243 18.96 31.5823 19.1638 31.4466 19.2994L30.0132 20.7328C29.9194 20.8266 29.7966 20.8734 29.6737 20.8734ZM28.7911 18.843L29.6722 19.716L30.5441 18.8443L29.8222 17.04H29.5123L28.7911 18.843Z" fill="#4C241D"/>
<path d="M6.14711 23.76C5.88203 23.76 5.66711 23.5451 5.66711 23.28V21.2034L4.82495 20.235C4.65083 20.0348 4.67219 19.7318 4.87211 19.5578C5.07251 19.3835 5.37527 19.4051 5.54927 19.605L6.50927 20.7089C6.58523 20.7964 6.62711 20.9081 6.62711 21.0239V23.28C6.62711 23.5451 6.41219 23.76 6.14711 23.76Z" fill="#4C241D"/>
<path d="M6.14712 21.36C6.02436 21.36 5.90148 21.3131 5.80776 21.2194C5.62032 21.0319 5.62032 20.7281 5.80776 20.5406L6.76776 19.5806C6.9552 19.3932 7.25904 19.3932 7.44648 19.5806C7.63392 19.7681 7.63392 20.0719 7.44648 20.2594L6.48648 21.2194C6.39276 21.3131 6.27 21.36 6.14712 21.36Z" fill="#4C241D"/>
<path d="M11.4271 32.88C11.1621 32.88 10.9471 32.6651 10.9471 32.4V30C10.9471 29.7349 11.1621 29.52 11.4271 29.52C11.6922 29.52 11.9071 29.7349 11.9071 30V32.4C11.9071 32.6651 11.6922 32.88 11.4271 32.88Z" fill="#4C241D"/>
<path d="M22.4671 32.88C22.202 32.88 21.9871 32.6651 21.9871 32.4V30C21.9871 29.7349 22.202 29.52 22.4671 29.52C22.7322 29.52 22.9471 29.7349 22.9471 30V32.4C22.9471 32.6651 22.7322 32.88 22.4671 32.88Z" fill="#4C241D"/>
<path d="M18.6125 22.466C18.5367 23.457 17.7176 24.24 16.7073 24.24L19.1073 27.6L20.8502 23.4832L18.6125 22.466Z" fill="#303F9F"/>
<path d="M19.1071 28.08C18.9531 28.08 18.8071 28.006 18.7164 27.8789L16.3164 24.5189C16.2121 24.3726 16.198 24.1802 16.2802 24.0204C16.3624 23.8606 16.5273 23.76 16.7071 23.76C17.45 23.76 18.0768 23.1755 18.1338 22.4294C18.1458 22.2731 18.2331 22.1324 18.3681 22.0528C18.5029 21.9731 18.6679 21.964 18.811 22.0291L21.0486 23.0464C21.2853 23.1539 21.3933 23.4307 21.2918 23.6702L19.549 27.7871C19.4814 27.9472 19.3324 28.058 19.1598 28.0772C19.1421 28.079 19.1245 28.08 19.1071 28.08ZM17.533 24.5705L18.9993 26.6233L20.2256 23.7266L18.9504 23.1468C18.7072 23.8052 18.1839 24.3272 17.533 24.5705Z" fill="#4C241D"/>
<path d="M16.7071 24.24C15.6967 24.24 14.8777 23.457 14.8018 22.466L12.5642 23.4832L14.3071 27.6L16.7071 24.24Z" fill="#303F9F"/>
<path d="M14.3071 28.08C14.2897 28.08 14.2722 28.079 14.2544 28.0772C14.0818 28.058 13.9328 27.9472 13.8652 27.7871L12.1224 23.6702C12.0209 23.4307 12.129 23.1539 12.3656 23.0464L14.6032 22.0291C14.7458 21.9637 14.9116 21.9731 15.0461 22.0528C15.1811 22.1324 15.2686 22.2731 15.2804 22.4294C15.3374 23.1755 15.9641 23.76 16.7071 23.76C16.8869 23.76 17.0516 23.8606 17.134 24.0204C17.2163 24.1802 17.2021 24.3727 17.0978 24.5189L14.6978 27.8789C14.6071 28.006 14.4612 28.08 14.3071 28.08ZM13.1887 23.7268L14.415 26.6234L15.8813 24.5706C15.2304 24.3274 14.7071 23.8054 14.464 23.147L13.1887 23.7268Z" fill="#4C241D"/>
<path d="M21.0271 30H18.6271C18.362 30 18.1471 29.7851 18.1471 29.52C18.1471 29.2549 18.362 29.04 18.6271 29.04H21.0271C21.2922 29.04 21.5071 29.2549 21.5071 29.52C21.5071 29.7851 21.2922 30 21.0271 30Z" fill="#4C241D"/>
<path d="M16.7071 32.88C16.442 32.88 16.2271 32.6651 16.2271 32.4V24.24C16.2271 23.9749 16.442 23.76 16.7071 23.76C16.9722 23.76 17.1871 23.9749 17.1871 24.24V32.4C17.1871 32.6651 16.9722 32.88 16.7071 32.88Z" fill="#4C241D"/>
</svg>
