<svg width="36" height="36" viewBox="0 0 36 36" fill="none" xmlns="http://www.w3.org/2000/svg">
<path d="M27.9956 5.17725C26.1562 2.28769 23.0136 0.5625 19.5885 0.5625H19.4642C16.3249 0.5625 13.3577 2.05313 11.4823 4.56131C9.70481 5.02087 8.4375 6.63975 8.4375 8.49319V15.1875H9.07931C9.03263 15.0069 9 14.8202 9 14.625C9 13.3824 10.0074 12.375 11.25 12.375V11.25L14.0625 9.5625L14.0799 9.56981C16.6663 10.6785 19.4507 11.25 22.2649 11.25H22.5C23.5586 11.25 24.4406 11.9841 24.6803 12.969L24.75 12.375C25.9926 12.375 27 13.3824 27 14.625C27 14.8202 26.9674 15.0069 26.9207 15.1875H27.5625V10.3101C27.5625 9.32569 28.0513 8.41275 28.8692 7.86713L29.4576 7.47563L27.9956 5.17725Z" fill="#303E9F"/>
<path d="M19.125 31.5L21.8306 24.8338L23.8854 25.6747L21.375 31.5H19.125Z" fill="#303E9F"/>
<path d="M14.625 31.5L12.1146 25.6747L14.1694 24.8338L16.875 31.5H14.625Z" fill="#303E9F"/>
<path d="M21.375 13.5C21.6857 13.5 21.9375 13.2482 21.9375 12.9375C21.9375 12.6268 21.6857 12.375 21.375 12.375C21.0643 12.375 20.8125 12.6268 20.8125 12.9375C20.8125 13.2482 21.0643 13.5 21.375 13.5Z" fill="black"/>
<path d="M14.625 13.5C14.9357 13.5 15.1875 13.2482 15.1875 12.9375C15.1875 12.6268 14.9357 12.375 14.625 12.375C14.3143 12.375 14.0625 12.6268 14.0625 12.9375C14.0625 13.2482 14.3143 13.5 14.625 13.5Z" fill="black"/>
<path d="M20.25 18H19.125C19.125 18.6204 18.6204 19.125 18 19.125C17.3796 19.125 16.875 18.6204 16.875 18H15.75C15.75 19.2409 16.7591 20.25 18 20.25C19.2409 20.25 20.25 19.2409 20.25 18Z" fill="black"/>
<path d="M27.6317 26.5995L21.861 24.2387C21.2242 23.9782 20.8125 23.3651 20.8125 22.6766V22.2727C22.5433 21.0768 23.8652 19.3893 24.6144 17.4375H24.75C26.3008 17.4375 27.5625 16.1758 27.5625 14.625C27.5625 13.0742 26.3008 11.8125 24.75 11.8125V11.8299C24.237 11.1408 23.4231 10.6875 22.5 10.6875H22.2649C19.5109 10.6875 16.8317 10.1373 14.3055 9.0551L14.022 8.93079L10.6875 10.9316V11.8693C9.40556 12.1308 8.4375 13.2665 8.4375 14.625C8.4375 16.1758 9.69919 17.4375 11.25 17.4375H11.3856C12.1348 19.3899 13.4567 21.0768 15.1875 22.2727V22.6766C15.1875 23.3651 14.7758 23.9777 14.139 24.2381L8.36831 26.5989C4.99331 27.9804 2.8125 31.2288 2.8125 34.875V35.4375H33.1875V34.875C33.1875 31.2288 31.0067 27.9804 27.6317 26.5995ZM26.4375 14.625C26.4375 15.4755 25.8024 16.1741 24.9829 16.2888C25.1961 15.4552 25.3125 14.5873 25.3125 13.6974V13.5C25.3125 13.338 25.2911 13.181 25.2647 13.0263C25.9425 13.2452 26.4375 13.8752 26.4375 14.625ZM9.5625 14.625C9.5625 13.8926 10.0344 13.2738 10.6875 13.041V13.6968C10.6875 14.5867 10.8039 15.4552 11.0171 16.2888C10.1976 16.1741 9.5625 15.4755 9.5625 14.625ZM11.8125 13.6974V11.5689L14.1069 10.1925C16.7046 11.2674 19.4479 11.8125 22.2649 11.8125H22.5C23.4304 11.8125 24.1875 12.5696 24.1875 13.5V13.6974C24.1875 17.6478 21.7091 21.1488 18 22.4679C14.2909 21.1488 11.8125 17.6478 11.8125 13.6974ZM17.8223 23.5957L18 23.6553L18.1778 23.5963C18.7104 23.4185 19.2212 23.2014 19.7072 22.9483C19.7381 23.2695 19.8174 23.5783 19.9491 23.8623L18 26.136L16.0504 23.8612C16.182 23.5772 16.2613 23.2689 16.2923 22.9477C16.7783 23.2009 17.2896 23.4185 17.8223 23.5957ZM23.0625 34.3125H12.9375V32.0625H23.0625V34.3125ZM27.5625 34.3125V30.9375H26.4375V34.3125H24.1875V30.9375H11.8125V34.3125H9.5625V30.9375H8.4375V34.3125H3.95719C4.167 31.3565 6.01875 28.7763 8.79413 27.6412L14.5654 25.2804C14.8629 25.1583 15.1273 24.9868 15.3591 24.7826L17.2344 26.9707L15.6713 28.5339L16.1308 29.6657L18 27.7953L19.8698 29.6645L20.3288 28.5328L18.7656 26.9696L20.6409 24.7815C20.8727 24.9857 21.1371 25.1572 21.4346 25.2793L27.2053 27.6401C29.9807 28.7758 31.8324 31.3554 32.0422 34.3113H27.5625V34.3125Z" fill="black"/>
<path d="M15.2134 5.49281L14.4884 4.63275C14.0603 4.99388 13.671 5.40169 13.3313 5.84606L14.2257 6.5295C14.5154 6.14981 14.8478 5.8005 15.2134 5.49281Z" fill="black"/>
<path d="M19.4642 3.9375L19.6785 3.93806L19.6971 2.81306L19.4642 2.8125C17.9938 2.8125 16.5583 3.23213 15.3141 4.02581L15.9188 4.97419C16.9819 4.29638 18.2081 3.9375 19.4642 3.9375Z" fill="black"/>
</svg>
