<svg width="36" height="36" viewBox="0 0 36 36" fill="none" xmlns="http://www.w3.org/2000/svg">
<path d="M30.375 32.625H28.6875V19.6875H32.625V30.375C32.625 31.6176 31.6176 32.625 30.375 32.625Z" fill="#303E9F"/>
<path d="M26.4375 10.6875H24.1875C24.1875 8.82338 25.6984 7.3125 27.5625 7.3125H29.8125C29.8125 9.17662 28.3016 10.6875 26.4375 10.6875Z" fill="#68E96D"/>
<path d="M9.71157 3.24619C9.68851 3.18262 9.66208 3.12019 9.62833 3.05269C9.4202 2.637 9.06245 2.3265 8.62145 2.17912C8.17876 2.03119 7.70739 2.06606 7.2917 2.27362L7.15108 2.34393C6.73539 2.55206 6.42489 2.90981 6.27751 3.35081C6.13014 3.79237 6.16389 4.26487 6.37314 4.68281C6.40801 4.75087 6.44683 4.81781 6.48901 4.88025L8.73564 8.18719L11.0453 6.91369L9.71157 3.24619Z" fill="#68E96D"/>
<path d="M12.4284 0.5625H12.3221C11.421 0.5625 10.6875 1.296 10.6875 2.19656C10.6875 2.25281 10.6903 2.30738 10.6959 2.35913L11.1454 6.85519H13.6052L14.0541 2.36363C14.0597 2.30794 14.0625 2.25281 14.0625 2.19656C14.0625 1.296 13.329 0.5625 12.4284 0.5625Z" fill="#68E96D"/>
<path d="M18.4731 3.35137C18.3257 2.91037 18.0158 2.55262 17.5995 2.3445L17.4589 2.27419C17.0432 2.06662 16.5718 2.03175 16.1291 2.17969C15.6881 2.32706 15.3304 2.637 15.1189 3.06C15.088 3.12019 15.0615 3.18262 15.0385 3.24619L13.7048 6.91425L16.0144 8.18775L18.261 4.88137C18.3032 4.81894 18.3426 4.752 18.378 4.68169C18.5867 4.26544 18.6205 3.79294 18.4731 3.35137Z" fill="#68E96D"/>
<path d="M30.9375 20.8125H29.8125V21.9375H30.9375V20.8125Z" fill="black"/>
<path d="M30.9375 25.3125H29.8125V26.4375H30.9375V25.3125Z" fill="black"/>
<path d="M30.9375 29.8125H29.8125V30.9375H30.9375V29.8125Z" fill="black"/>
<path d="M8.4375 33.1875C5.33588 33.1875 2.8125 30.6641 2.8125 27.5625H3.9375C3.9375 30.0437 5.95631 32.0625 8.4375 32.0625V33.1875Z" fill="black"/>
<path d="M15.1875 9.5625H14.0625V10.6875H15.1875V9.5625Z" fill="black"/>
<path d="M34.3125 16.3125H30.8413C30.5511 14.9844 29.9244 13.7559 29.007 12.7367C27.7892 11.3839 25.8722 10.9389 24.1875 11.5886V8.4375C24.1875 7.19662 25.1966 6.1875 26.4375 6.1875V5.0625C24.5762 5.0625 23.0625 6.57619 23.0625 8.4375V11.5881C21.3767 10.9367 19.4597 11.3828 18.243 12.7361C18.0984 12.897 17.9629 13.0641 17.8329 13.2351L17.8819 13.0005C17.9601 12.6242 18 12.2378 18 11.8125C18 8.71088 15.4766 6.1875 12.375 6.1875C9.27337 6.1875 6.75 8.71088 6.75 11.853C6.75 12.2378 6.78994 12.6242 6.86869 13.0005L7.55888 16.3125H6.75C6.12956 16.3125 5.625 16.8171 5.625 17.4375V19.6875H6.75V17.4375H7.92562C7.89469 17.6209 7.875 17.8082 7.875 18V23.5103C7.31644 23.3021 6.786 22.8639 6.58463 22.6637L5.78981 23.4602C5.92144 23.5924 7.11731 24.75 8.4375 24.75C9.75769 24.75 10.9536 23.5924 11.0852 23.4602L10.2904 22.6637C10.089 22.8634 9.55856 23.3016 9 23.5103V22.4511C9.26944 22.4077 9.53044 22.3374 9.77175 22.2339C11.0256 21.6962 12.5421 22.0337 13.4578 23.0513C14.6475 24.3737 15.2595 26.0848 15.1808 27.8691C15.0272 31.3447 12.1826 34.173 8.70581 34.3074C6.83944 34.3744 5.09231 33.7112 3.7575 32.427C2.42325 31.1423 1.6875 29.4148 1.6875 27.5625C1.6875 25.9071 2.29275 24.3157 3.39131 23.0799C4.01287 22.3813 4.86 21.9364 5.65762 21.8891L5.59181 20.7664C4.4865 20.8311 3.37781 21.4014 2.55094 22.3324C1.269 23.7741 0.5625 25.6314 0.5625 27.5625C0.5625 29.7236 1.42031 31.7391 2.97787 33.2381C4.4595 34.6635 6.38663 35.4381 8.43413 35.4381C8.53931 35.4381 8.64394 35.4358 8.74969 35.4319C10.7516 35.3548 12.5724 34.5094 13.9264 33.1881H30.375C31.9258 33.1881 33.1875 31.9264 33.1875 30.3756V19.6875H34.3125C34.9329 19.6875 35.4375 19.1829 35.4375 18.5625V17.4375C35.4375 16.8171 34.9329 16.3125 34.3125 16.3125ZM19.0789 13.4887C19.9952 12.4706 21.5111 12.1348 22.7655 12.6714C22.8611 12.7125 22.9613 12.7468 23.0625 12.7789V13.9742C22.473 13.7818 21.8959 13.3116 21.6844 13.1012L20.8896 13.8977C21.0212 14.0299 22.2171 15.1875 23.5373 15.1875C24.8574 15.1875 26.0533 14.0299 26.1849 13.8977L25.3901 13.1012C25.1994 13.2902 24.7129 13.6901 24.1875 13.9089V12.7783C24.2887 12.7462 24.3889 12.7119 24.4845 12.6709C25.7389 12.1342 27.2559 12.4712 28.1711 13.4882C28.9013 14.2999 29.4148 15.2663 29.6837 16.3119H17.5663C17.8352 15.2674 18.3487 14.3004 19.0789 13.4887ZM12.375 7.3125C14.8562 7.3125 16.875 9.33131 16.875 11.853C16.875 12.1607 16.8429 12.4695 16.7805 12.771L16.0425 16.3125H9.77738C10.1728 15.9666 10.6841 15.75 11.25 15.75V14.625C10.1869 14.625 9.2385 15.12 8.61919 15.8906L7.96894 12.771C7.90706 12.4695 7.875 12.1607 7.875 11.8125C7.875 9.33131 9.89381 7.3125 12.375 7.3125ZM16.3035 27.5625C16.3035 26.3801 16.0509 25.2321 15.5543 24.1875H32.0625V27.5625H16.3035ZM30.375 32.0625H14.8854C15.5784 31.0759 16.0521 29.9267 16.2315 28.6875H32.0625V30.375C32.0625 31.3054 31.3054 32.0625 30.375 32.0625ZM34.3125 18.5625H32.0625V23.0625H14.8922C14.7077 22.7987 14.5125 22.5416 14.2943 22.2992C13.0416 20.907 11.0452 20.466 9.32963 21.2001C9.22669 21.2439 9.11362 21.2726 9.00056 21.3008V19.6875H30.9381V18.5625H9V18C9 17.8048 9.03263 17.6186 9.07987 17.4375H34.3125V18.5625Z" fill="black"/>
<path d="M15.1875 11.8125H14.0625V12.9375H15.1875V11.8125Z" fill="black"/>
<path d="M15.1875 14.0625H14.0625V15.1875H15.1875V14.0625Z" fill="black"/>
<path d="M5.625 21.9375H7.875C7.875 20.0734 6.36412 18.5625 4.5 18.5625H2.25C2.25 20.4266 3.76088 21.9375 5.625 21.9375Z" fill="#68E96D"/>
</svg>
