<svg width="36" height="36" viewBox="0 0 36 36" fill="none" xmlns="http://www.w3.org/2000/svg">
<path d="M27.3431 24.12C26.9243 24.5381 26.403 24.8387 25.8314 24.9918C25.2597 25.1448 24.6579 25.1448 24.0862 24.9919L20.8237 28.2488C20.7969 28.6811 20.6459 29.0964 20.3888 29.445C20.1317 29.7936 19.7794 30.0606 19.3743 30.2138C18.9692 30.3671 18.5284 30.4002 18.105 30.3091C17.6815 30.2181 17.2934 30.0067 16.9871 29.7004C16.6808 29.3941 16.4694 29.006 16.3784 28.5825C16.2873 28.1591 16.3204 27.7183 16.4737 27.3132C16.6269 26.9081 16.8939 26.5558 17.2425 26.2987C17.5911 26.0416 18.0064 25.8906 18.4387 25.8638L21.6956 22.6013C21.5282 21.979 21.543 21.3218 21.738 20.7077C21.9331 20.0936 22.3002 19.5483 22.796 19.1367C23.2917 18.7251 23.8952 18.4644 24.5347 18.3855C25.1742 18.3067 25.8229 18.413 26.4037 18.6919L24.1594 20.9363L25.7513 22.5281L27.9956 20.2838C28.2982 20.9119 28.398 21.6186 28.281 22.3059C28.1641 22.9933 27.8364 23.6272 27.3431 24.12Z" fill="#303E9F"/>
<path d="M4.5 20.25H11.25V21.9375H4.5V20.25Z" fill="#303F9F"/>
<path d="M31.5 14.0625C30.9033 14.0625 30.331 13.8254 29.909 13.4035C29.4871 12.9815 29.25 12.4092 29.25 11.8125C29.25 12.4092 29.0129 12.9815 28.591 13.4035C28.169 13.8254 27.5967 14.0625 27 14.0625C26.4033 14.0625 25.831 13.8254 25.409 13.4035C24.9871 12.9815 24.75 12.4092 24.75 11.8125C24.75 12.4092 24.5129 12.9815 24.091 13.4035C23.669 13.8254 23.0967 14.0625 22.5 14.0625C21.9033 14.0625 21.331 13.8254 20.909 13.4035C20.4871 12.9815 20.25 12.4092 20.25 11.8125C20.25 12.4092 20.0129 12.9815 19.591 13.4035C19.169 13.8254 18.5967 14.0625 18 14.0625C17.4033 14.0625 16.831 13.8254 16.409 13.4035C15.9871 12.9815 15.75 12.4092 15.75 11.8125C15.75 12.4092 15.5129 12.9815 15.091 13.4035C14.669 13.8254 14.0967 14.0625 13.5 14.0625C12.9033 14.0625 12.331 13.8254 11.909 13.4035C11.4871 12.9815 11.25 12.4092 11.25 11.8125C11.25 12.4092 11.0129 12.9815 10.591 13.4035C10.169 13.8254 9.59674 14.0625 9 14.0625C8.40326 14.0625 7.83097 13.8254 7.40901 13.4035C6.98705 12.9815 6.75 12.4092 6.75 11.8125C6.75 12.4092 6.51295 12.9815 6.09099 13.4035C5.66903 13.8254 5.09674 14.0625 4.5 14.0625C3.90326 14.0625 3.33097 13.8254 2.90901 13.4035C2.48705 12.9815 2.25 12.4092 2.25 11.8125V34.3125H4.5V18.5625H11.25V34.3125H33.75V11.8125C33.75 12.4092 33.5129 12.9815 33.091 13.4035C32.669 13.8254 32.0967 14.0625 31.5 14.0625ZM31.5 32.0625H13.5V16.3125H31.5V32.0625Z" fill="#759DFD"/>
<path d="M29.25 8.4375V11.8125C29.25 12.4092 29.0129 12.9815 28.591 13.4035C28.169 13.8254 27.5967 14.0625 27 14.0625C26.4033 14.0625 25.831 13.8254 25.409 13.4035C24.9871 12.9815 24.75 12.4092 24.75 11.8125V8.4375H29.25Z" fill="#303E9F"/>
<path d="M20.25 8.4375V11.8125C20.25 12.4092 20.0129 12.9815 19.591 13.4035C19.169 13.8254 18.5967 14.0625 18 14.0625C17.4033 14.0625 16.831 13.8254 16.409 13.4035C15.9871 12.9815 15.75 12.4092 15.75 11.8125V8.4375H20.25Z" fill="#303E9F"/>
<path d="M11.25 8.4375V11.8125C11.25 12.4092 11.0129 12.9815 10.591 13.4035C10.169 13.8254 9.59674 14.0625 9 14.0625C8.40326 14.0625 7.83097 13.8254 7.40901 13.4035C6.98705 12.9815 6.75 12.4092 6.75 11.8125V8.4375H11.25Z" fill="#303E9F"/>
<path d="M1.6875 3.9375H34.3125V8.4375H1.6875V3.9375Z" fill="#759DFD"/>
<path d="M5.625 26.4375H6.75V28.6875H5.625V26.4375Z" fill="black"/>
<path d="M34.3125 9C34.4617 9 34.6048 8.94074 34.7102 8.83525C34.8157 8.72976 34.875 8.58668 34.875 8.4375V3.9375C34.875 3.78832 34.8157 3.64524 34.7102 3.53975C34.6048 3.43426 34.4617 3.375 34.3125 3.375V2.25C34.3116 1.95191 34.1928 1.66627 33.982 1.45549C33.7712 1.2447 33.4856 1.12589 33.1875 1.125H2.8125C2.51441 1.12589 2.22877 1.2447 2.01799 1.45549C1.8072 1.66627 1.68839 1.95191 1.6875 2.25V3.375C1.53832 3.375 1.39524 3.43426 1.28975 3.53975C1.18426 3.64524 1.125 3.78832 1.125 3.9375V8.4375C1.125 8.58668 1.18426 8.72976 1.28975 8.83525C1.39524 8.94074 1.53832 9 1.6875 9V33.75H1.125V34.875H34.875V33.75H34.3125V9ZM2.8125 2.25H33.1875V3.375H2.8125V2.25ZM10.6875 33.75H5.0625V22.5H10.6875V33.75ZM10.6875 21.375H5.0625V20.8125H10.6875V21.375ZM10.6875 19.6875H5.0625V19.125H10.6875V19.6875ZM33.1875 33.75H11.8125V18.5625C11.8125 18.4133 11.7532 18.2702 11.6477 18.1648C11.5423 18.0593 11.3992 18 11.25 18H4.5C4.35082 18 4.20774 18.0593 4.10225 18.1648C3.99676 18.2702 3.9375 18.4133 3.9375 18.5625V33.75H2.8125V14.0456C3.2957 14.4196 3.88899 14.6233 4.5 14.625C4.9381 14.6233 5.36974 14.5192 5.76042 14.3209C6.15109 14.1226 6.48998 13.8357 6.75 13.4831C7.00884 13.837 7.34748 14.1248 7.73843 14.3232C8.12937 14.5216 8.56159 14.625 9 14.625C9.43841 14.625 9.87063 14.5216 10.2616 14.3232C10.6525 14.1248 10.9912 13.837 11.25 13.4831C11.5088 13.837 11.8475 14.1248 12.2384 14.3232C12.6294 14.5216 13.0616 14.625 13.5 14.625C13.9384 14.625 14.3706 14.5216 14.7616 14.3232C15.1525 14.1248 15.4912 13.837 15.75 13.4831C16.0088 13.837 16.3475 14.1248 16.7384 14.3232C17.1294 14.5216 17.5616 14.625 18 14.625C18.4384 14.625 18.8706 14.5216 19.2616 14.3232C19.6525 14.1248 19.9912 13.837 20.25 13.4831C20.5088 13.837 20.8475 14.1248 21.2384 14.3232C21.6294 14.5216 22.0616 14.625 22.5 14.625C22.9384 14.625 23.3706 14.5216 23.7616 14.3232C24.1525 14.1248 24.4912 13.837 24.75 13.4831C25.0088 13.837 25.3475 14.1248 25.7384 14.3232C26.1294 14.5216 26.5616 14.625 27 14.625C27.4384 14.625 27.8706 14.5216 28.2616 14.3232C28.6525 14.1248 28.9912 13.837 29.25 13.4831C29.51 13.8357 29.8489 14.1226 30.2396 14.3209C30.6303 14.5192 31.0619 14.6233 31.5 14.625C32.111 14.6233 32.7043 14.4196 33.1875 14.0456V33.75ZM2.8125 11.8125V9H6.1875V11.8125C6.1875 12.2601 6.00971 12.6893 5.69324 13.0057C5.37678 13.3222 4.94755 13.5 4.5 13.5C4.05245 13.5 3.62322 13.3222 3.30676 13.0057C2.99029 12.6893 2.8125 12.2601 2.8125 11.8125ZM7.3125 11.8125V9H10.6875V11.8125C10.6875 12.2601 10.5097 12.6893 10.1932 13.0057C9.87678 13.3222 9.44755 13.5 9 13.5C8.55245 13.5 8.12322 13.3222 7.80676 13.0057C7.49029 12.6893 7.3125 12.2601 7.3125 11.8125ZM11.8125 11.8125V9H15.1875V11.8125C15.1875 12.2601 15.0097 12.6893 14.6932 13.0057C14.3768 13.3222 13.9476 13.5 13.5 13.5C13.0524 13.5 12.6232 13.3222 12.3068 13.0057C11.9903 12.6893 11.8125 12.2601 11.8125 11.8125ZM16.3125 11.8125V9H19.6875V11.8125C19.6875 12.2601 19.5097 12.6893 19.1932 13.0057C18.8768 13.3222 18.4476 13.5 18 13.5C17.5524 13.5 17.1232 13.3222 16.8068 13.0057C16.4903 12.6893 16.3125 12.2601 16.3125 11.8125ZM20.8125 11.8125V9H24.1875V11.8125C24.1875 12.2601 24.0097 12.6893 23.6932 13.0057C23.3768 13.3222 22.9476 13.5 22.5 13.5C22.0524 13.5 21.6232 13.3222 21.3068 13.0057C20.9903 12.6893 20.8125 12.2601 20.8125 11.8125ZM25.3125 11.8125V9H28.6875V11.8125C28.6875 12.2601 28.5097 12.6893 28.1932 13.0057C27.8768 13.3222 27.4476 13.5 27 13.5C26.5524 13.5 26.1232 13.3222 25.8068 13.0057C25.4903 12.6893 25.3125 12.2601 25.3125 11.8125ZM33.1875 11.8125C33.1875 12.2601 33.0097 12.6893 32.6932 13.0057C32.3768 13.3222 31.9476 13.5 31.5 13.5C31.0524 13.5 30.6232 13.3222 30.3068 13.0057C29.9903 12.6893 29.8125 12.2601 29.8125 11.8125V9H33.1875V11.8125ZM33.75 7.875H2.25V4.5H33.75V7.875Z" fill="black"/>
<path d="M31.5 15.75H13.5C13.3508 15.75 13.2077 15.8093 13.1023 15.9148C12.9968 16.0202 12.9375 16.1633 12.9375 16.3125V32.0625C12.9375 32.2117 12.9968 32.3548 13.1023 32.4602C13.2077 32.5657 13.3508 32.625 13.5 32.625H31.5C31.6492 32.625 31.7923 32.5657 31.8977 32.4602C32.0032 32.3548 32.0625 32.2117 32.0625 32.0625V16.3125C32.0625 16.1633 32.0032 16.0202 31.8977 15.9148C31.7923 15.8093 31.6492 15.75 31.5 15.75ZM30.9375 31.5H14.0625V16.875H30.9375V31.5Z" fill="black"/>
<path d="M18.5906 30.9077C19.2652 30.9105 19.9179 30.6687 20.4279 30.2271C20.9378 29.7854 21.2703 29.1739 21.3638 28.5058L24.264 25.6056C24.9764 25.7336 25.7104 25.6625 26.385 25.4C27.0595 25.1375 27.6485 24.6938 28.087 24.1179C28.5255 23.5419 28.7964 22.8561 28.8699 22.136C28.9434 21.4159 28.8166 20.6895 28.5036 20.0368C28.4606 19.9488 28.3954 19.8736 28.3144 19.8185C28.2334 19.7635 28.1394 19.7305 28.0418 19.7229C27.959 19.7166 27.8758 19.7284 27.7981 19.7575C27.7204 19.7867 27.6499 19.8325 27.5918 19.8917L25.7513 21.7327L24.9548 20.9362L26.7891 19.1025C26.8563 19.0402 26.9072 18.9625 26.9375 18.8761C26.9678 18.7896 26.9766 18.6971 26.963 18.6065C26.9494 18.5159 26.9139 18.43 26.8596 18.3563C26.8053 18.2826 26.7337 18.2232 26.6513 18.1834C25.9985 17.8705 25.2721 17.7439 24.5521 17.8175C23.832 17.8911 23.1462 18.1621 22.5703 18.6006C21.9944 19.0391 21.5508 19.6281 21.2882 20.3026C21.0257 20.9771 20.9545 21.7111 21.0825 22.4235L18.1823 25.3237C17.4807 25.4268 16.8442 25.7916 16.4006 26.3447C15.957 26.8978 15.7391 27.5984 15.7909 28.3055C15.8426 29.0127 16.16 29.6741 16.6794 30.1568C17.1988 30.6395 17.8816 30.9078 18.5906 30.9077ZM17.3976 26.9032C17.6877 26.6175 18.0716 26.4468 18.4781 26.4229C18.6138 26.4135 18.7415 26.3554 18.8376 26.2592L22.095 23.0017C22.1647 22.9322 22.2148 22.8455 22.2405 22.7504C22.2662 22.6554 22.2664 22.5553 22.2413 22.4601C22.1291 22.0437 22.1143 21.6071 22.198 21.184C22.2817 20.761 22.4617 20.3629 22.7239 20.0206C22.9862 19.6783 23.3237 19.401 23.7103 19.2101C24.097 19.0191 24.5224 18.9198 24.9536 18.9197C25.0869 18.9197 25.22 18.9293 25.3519 18.9484L23.7617 20.5386C23.6562 20.644 23.597 20.7871 23.597 20.9362C23.597 21.0854 23.6562 21.2284 23.7617 21.3339L25.3536 22.9258C25.4591 23.0313 25.6021 23.0905 25.7513 23.0905C25.9004 23.0905 26.0435 23.0313 26.1489 22.9258L27.7391 21.3356C27.805 21.7959 27.7556 22.2653 27.5954 22.7017C27.4352 23.1382 27.1692 23.5281 26.8212 23.8364C26.4732 24.1447 26.0541 24.3618 25.6015 24.4682C25.1489 24.5747 24.677 24.5671 24.228 24.4462C24.1327 24.421 24.0325 24.4212 23.9373 24.4469C23.8422 24.4725 23.7554 24.5227 23.6858 24.5925L20.4283 27.8505C20.3323 27.9462 20.2743 28.0735 20.2652 28.2088C20.2468 28.4803 20.1629 28.7433 20.0206 28.9753C19.8783 29.2073 19.682 29.4013 19.4483 29.5408C19.2146 29.6803 18.9506 29.761 18.6789 29.7761C18.4071 29.7912 18.1358 29.7402 17.8881 29.6275C17.6404 29.5147 17.4237 29.3437 17.2566 29.1289C17.0895 28.9141 16.977 28.662 16.9287 28.3941C16.8803 28.1263 16.8977 27.8508 16.9791 27.5911C17.0606 27.3315 17.2038 27.0954 17.3964 26.9032H17.3976Z" fill="black"/>
<path d="M18.5625 29.25C19.1838 29.25 19.6875 28.7463 19.6875 28.125C19.6875 27.5037 19.1838 27 18.5625 27C17.9412 27 17.4375 27.5037 17.4375 28.125C17.4375 28.7463 17.9412 29.25 18.5625 29.25Z" fill="black"/>
</svg>
