<svg width="36" height="36" viewBox="0 0 36 36" fill="none" xmlns="http://www.w3.org/2000/svg">
<path d="M28.6875 14.0625H32.0625V17.4375H28.6875V14.0625Z" fill="#303F9F"/>
<path d="M28.6875 19.6875H32.0625V23.0625H28.6875V19.6875Z" fill="#303F9F"/>
<path d="M28.6875 25.3125H32.0625V28.6875H28.6875V25.3125Z" fill="#303F9F"/>
<path d="M3.9375 14.0625H7.3125V17.4375H3.9375V14.0625Z" fill="#303F9F"/>
<path d="M11.8125 12.9375H14.0625V15.1875H11.8125V12.9375Z" fill="#303F9F"/>
<path d="M16.875 12.9375H19.125V15.1875H16.875V12.9375Z" fill="#303F9F"/>
<path d="M21.9375 12.9375H24.1875V15.1875H21.9375V12.9375Z" fill="#303F9F"/>
<path d="M11.8125 17.4375H14.0625V19.6875H11.8125V17.4375Z" fill="#303F9F"/>
<path d="M16.875 17.4375H19.125V19.6875H16.875V17.4375Z" fill="#303F9F"/>
<path d="M21.9375 17.4375H24.1875V19.6875H21.9375V17.4375Z" fill="#303F9F"/>
<path d="M11.8125 21.9375H14.0625V24.1875H11.8125V21.9375Z" fill="#303F9F"/>
<path d="M16.875 21.9375H19.125V24.1875H16.875V21.9375Z" fill="#303F9F"/>
<path d="M21.9375 21.9375H24.1875V24.1875H21.9375V21.9375Z" fill="#303F9F"/>
<path d="M3.9375 19.6875H7.3125V23.0625H3.9375V19.6875Z" fill="#303F9F"/>
<path d="M3.9375 25.3125H7.3125V28.6875H3.9375V25.3125Z" fill="#303F9F"/>
<path d="M21.375 6.1875H19.125V3.9375H16.875V6.1875H14.625V8.4375H16.875V10.6875H19.125V8.4375H21.375V6.1875Z" fill="#DD3E46"/>
<path d="M15.75 27.5625H20.25V34.3125H15.75V27.5625Z" fill="#303F9F"/>
<path d="M34.3125 11.25H27V1.6875C27 1.37644 26.748 1.125 26.4375 1.125H9.5625C9.252 1.125 9 1.37644 9 1.6875V11.25H1.6875C1.377 11.25 1.125 11.5014 1.125 11.8125V34.3125C1.125 34.6236 1.377 34.875 1.6875 34.875H34.3125C34.623 34.875 34.875 34.6236 34.875 34.3125V11.8125C34.875 11.5014 34.623 11.25 34.3125 11.25ZM2.25 12.375H9V33.75H2.25V12.375ZM19.6875 33.75H16.3125V28.125H19.6875V33.75ZM25.875 33.75H20.8125V28.125H21.9375V27H14.0625V28.125H15.1875V33.75H10.125V2.25H25.875V33.75ZM33.75 33.75H27V12.375H33.75V33.75Z" fill="#020202"/>
<path d="M28.6875 18H32.0625C32.373 18 32.625 17.7486 32.625 17.4375V14.0625C32.625 13.7514 32.373 13.5 32.0625 13.5H28.6875C28.377 13.5 28.125 13.7514 28.125 14.0625V17.4375C28.125 17.7486 28.377 18 28.6875 18ZM29.25 14.625H31.5V16.875H29.25V14.625Z" fill="#020202"/>
<path d="M28.6875 23.625H32.0625C32.373 23.625 32.625 23.3736 32.625 23.0625V19.6875C32.625 19.3764 32.373 19.125 32.0625 19.125H28.6875C28.377 19.125 28.125 19.3764 28.125 19.6875V23.0625C28.125 23.3736 28.377 23.625 28.6875 23.625ZM29.25 20.25H31.5V22.5H29.25V20.25Z" fill="#020202"/>
<path d="M28.6875 29.25H32.0625C32.373 29.25 32.625 28.9986 32.625 28.6875V25.3125C32.625 25.0014 32.373 24.75 32.0625 24.75H28.6875C28.377 24.75 28.125 25.0014 28.125 25.3125V28.6875C28.125 28.9986 28.377 29.25 28.6875 29.25ZM29.25 25.875H31.5V28.125H29.25V25.875Z" fill="#020202"/>
<path d="M7.3125 13.5H3.9375C3.627 13.5 3.375 13.7514 3.375 14.0625V17.4375C3.375 17.7486 3.627 18 3.9375 18H7.3125C7.623 18 7.875 17.7486 7.875 17.4375V14.0625C7.875 13.7514 7.623 13.5 7.3125 13.5ZM6.75 16.875H4.5V14.625H6.75V16.875Z" fill="#020202"/>
<path d="M11.8125 15.75H14.0625C14.373 15.75 14.625 15.4986 14.625 15.1875V12.9375C14.625 12.6264 14.373 12.375 14.0625 12.375H11.8125C11.502 12.375 11.25 12.6264 11.25 12.9375V15.1875C11.25 15.4986 11.502 15.75 11.8125 15.75ZM12.375 13.5H13.5V14.625H12.375V13.5Z" fill="#020202"/>
<path d="M19.125 12.375H16.875C16.5645 12.375 16.3125 12.6264 16.3125 12.9375V15.1875C16.3125 15.4986 16.5645 15.75 16.875 15.75H19.125C19.4355 15.75 19.6875 15.4986 19.6875 15.1875V12.9375C19.6875 12.6264 19.4355 12.375 19.125 12.375ZM18.5625 14.625H17.4375V13.5H18.5625V14.625Z" fill="#020202"/>
<path d="M21.375 12.9375V15.1875C21.375 15.4986 21.627 15.75 21.9375 15.75H24.1875C24.498 15.75 24.75 15.4986 24.75 15.1875V12.9375C24.75 12.6264 24.498 12.375 24.1875 12.375H21.9375C21.627 12.375 21.375 12.6264 21.375 12.9375ZM22.5 13.5H23.625V14.625H22.5V13.5Z" fill="#020202"/>
<path d="M11.8125 20.25H14.0625C14.373 20.25 14.625 19.9986 14.625 19.6875V17.4375C14.625 17.1264 14.373 16.875 14.0625 16.875H11.8125C11.502 16.875 11.25 17.1264 11.25 17.4375V19.6875C11.25 19.9986 11.502 20.25 11.8125 20.25ZM12.375 18H13.5V19.125H12.375V18Z" fill="#020202"/>
<path d="M19.125 16.875H16.875C16.5645 16.875 16.3125 17.1264 16.3125 17.4375V19.6875C16.3125 19.9986 16.5645 20.25 16.875 20.25H19.125C19.4355 20.25 19.6875 19.9986 19.6875 19.6875V17.4375C19.6875 17.1264 19.4355 16.875 19.125 16.875ZM18.5625 19.125H17.4375V18H18.5625V19.125Z" fill="#020202"/>
<path d="M24.1875 16.875H21.9375C21.627 16.875 21.375 17.1264 21.375 17.4375V19.6875C21.375 19.9986 21.627 20.25 21.9375 20.25H24.1875C24.498 20.25 24.75 19.9986 24.75 19.6875V17.4375C24.75 17.1264 24.498 16.875 24.1875 16.875ZM23.625 19.125H22.5V18H23.625V19.125Z" fill="#020202"/>
<path d="M11.8125 24.75H14.0625C14.373 24.75 14.625 24.4986 14.625 24.1875V21.9375C14.625 21.6264 14.373 21.375 14.0625 21.375H11.8125C11.502 21.375 11.25 21.6264 11.25 21.9375V24.1875C11.25 24.4986 11.502 24.75 11.8125 24.75ZM12.375 22.5H13.5V23.625H12.375V22.5Z" fill="#020202"/>
<path d="M19.125 21.375H16.875C16.5645 21.375 16.3125 21.6264 16.3125 21.9375V24.1875C16.3125 24.4986 16.5645 24.75 16.875 24.75H19.125C19.4355 24.75 19.6875 24.4986 19.6875 24.1875V21.9375C19.6875 21.6264 19.4355 21.375 19.125 21.375ZM18.5625 23.625H17.4375V22.5H18.5625V23.625Z" fill="#020202"/>
<path d="M24.1875 21.375H21.9375C21.627 21.375 21.375 21.6264 21.375 21.9375V24.1875C21.375 24.4986 21.627 24.75 21.9375 24.75H24.1875C24.498 24.75 24.75 24.4986 24.75 24.1875V21.9375C24.75 21.6264 24.498 21.375 24.1875 21.375ZM23.625 23.625H22.5V22.5H23.625V23.625Z" fill="#020202"/>
<path d="M7.3125 19.125H3.9375C3.627 19.125 3.375 19.3764 3.375 19.6875V23.0625C3.375 23.3736 3.627 23.625 3.9375 23.625H7.3125C7.623 23.625 7.875 23.3736 7.875 23.0625V19.6875C7.875 19.3764 7.623 19.125 7.3125 19.125ZM6.75 22.5H4.5V20.25H6.75V22.5Z" fill="#020202"/>
<path d="M7.3125 24.75H3.9375C3.627 24.75 3.375 25.0014 3.375 25.3125V28.6875C3.375 28.9986 3.627 29.25 3.9375 29.25H7.3125C7.623 29.25 7.875 28.9986 7.875 28.6875V25.3125C7.875 25.0014 7.623 24.75 7.3125 24.75ZM6.75 28.125H4.5V25.875H6.75V28.125Z" fill="#020202"/>
<path d="M14.625 9H16.3125V10.6875C16.3125 10.9986 16.5645 11.25 16.875 11.25H19.125C19.4355 11.25 19.6875 10.9986 19.6875 10.6875V9H21.375C21.6855 9 21.9375 8.74856 21.9375 8.4375V6.1875C21.9375 5.87644 21.6855 5.625 21.375 5.625H19.6875V3.9375C19.6875 3.62644 19.4355 3.375 19.125 3.375H16.875C16.5645 3.375 16.3125 3.62644 16.3125 3.9375V5.625H14.625C14.3145 5.625 14.0625 5.87644 14.0625 6.1875V8.4375C14.0625 8.74856 14.3145 9 14.625 9ZM15.1875 6.75H16.875C17.1855 6.75 17.4375 6.49856 17.4375 6.1875V4.5H18.5625V6.1875C18.5625 6.49856 18.8145 6.75 19.125 6.75H20.8125V7.875H19.125C18.8145 7.875 18.5625 8.12644 18.5625 8.4375V10.125H17.4375V8.4375C17.4375 8.12644 17.1855 7.875 16.875 7.875H15.1875V6.75Z" fill="#020202"/>
<path d="M23.625 31.5H24.75V32.625H23.625V31.5Z" fill="#020202"/>
<path d="M23.625 29.25H24.75V30.375H23.625V29.25Z" fill="#020202"/>
<path d="M23.625 27H24.75V28.125H23.625V27Z" fill="#020202"/>
</svg>
