<svg width="39" height="39" viewBox="0 0 39 39" fill="none" xmlns="http://www.w3.org/2000/svg">
<path d="M26.2031 13.4062H34.7344V14.3203C34.7344 14.7244 34.5739 15.1118 34.2882 15.3975C34.0025 15.6832 33.615 15.8438 33.2109 15.8438H27.7266C27.3225 15.8438 26.935 15.6832 26.6493 15.3975C26.3636 15.1118 26.2031 14.7244 26.2031 14.3203V13.4062Z" fill="#303F9F"/>
<path d="M34.7344 13.4062H26.2031V8.79494C26.2031 7.58248 26.4926 6.38754 27.0474 5.30945C27.6022 4.23137 28.4063 3.30131 29.3929 2.59658L30.4688 1.82812L31.5446 2.59658C32.5312 3.30131 33.3353 4.23137 33.8901 5.30945C34.4449 6.38754 34.7344 7.58248 34.7344 8.79494V13.4062Z" fill="#FA5D3F"/>
<path d="M29.8594 4.26562H31.0781V6.09375H29.8594V4.26562Z" fill="black"/>
<path d="M28.0312 6.70312H29.25V7.92188H28.0312V6.70312Z" fill="black"/>
<path d="M28.0312 8.53125H29.25V9.75H28.0312V8.53125Z" fill="black"/>
<path d="M28.0312 10.3594H29.25V11.5781H28.0312V10.3594Z" fill="black"/>
<path d="M31.6875 6.70312H32.9062V7.92188H31.6875V6.70312Z" fill="black"/>
<path d="M31.6875 8.53125H32.9062V9.75H31.6875V8.53125Z" fill="black"/>
<path d="M31.6875 10.3594H32.9062V11.5781H31.6875V10.3594Z" fill="black"/>
<path d="M33.5156 20.7188H18.8906V18.2812H34.7344L33.5156 20.7188Z" fill="#FA5D3F"/>
<path d="M5.48438 15.2344H18.8906V31.6875H5.48438V15.2344Z" fill="#303F9F"/>
<path d="M5.48438 26.2031H18.8906V28.6406H5.48438V26.2031Z" fill="#FFFEFA"/>
<path d="M37.1719 15.2344H35.1378C35.2737 14.9489 35.3441 14.6365 35.3438 14.3203V11.5781H34.125V12.7969H26.8125V8.79495C26.8136 7.67968 27.0804 6.58073 27.5907 5.58908C28.101 4.59742 28.8402 3.74159 29.7471 3.09243L30.4688 2.57697L31.1904 3.09243C32.0973 3.74159 32.8365 4.59742 33.3468 5.58908C33.8571 6.58073 34.1239 7.67968 34.125 8.79495V10.3594H35.3438V8.79495C35.3424 7.48573 35.0293 6.19566 34.4302 5.03154C33.8311 3.86742 32.9634 2.86275 31.8988 2.10071L30.8229 1.33224C30.7196 1.2584 30.5958 1.2187 30.4688 1.2187C30.3417 1.2187 30.2179 1.2584 30.1146 1.33224L29.0387 2.10069C27.9741 2.86274 27.1064 3.86741 26.5073 5.03153C25.9082 6.19565 25.5951 7.48573 25.5938 8.79495V14.3203C25.5934 14.6365 25.6638 14.9489 25.7997 15.2344H19.5C19.5 15.0728 19.4358 14.9178 19.3215 14.8035C19.2072 14.6892 19.0522 14.625 18.8906 14.625H5.48438C5.32276 14.625 5.16776 14.6892 5.05348 14.8035C4.9392 14.9178 4.875 15.0728 4.875 15.2344H1.82812C1.66651 15.2344 1.51151 15.2986 1.39723 15.4129C1.28295 15.5271 1.21875 15.6821 1.21875 15.8437V15.9961C1.21962 16.7635 1.52486 17.4992 2.0675 18.0419C2.61014 18.5845 3.34587 18.8897 4.11328 18.8906H4.875V21.9375H6.09375V15.8437H18.2812V25.5937H9.75V26.8125H18.2812V28.0312H6.09375V26.8125H8.53125V25.5937H6.09375V23.1562H4.875V31.6875C4.875 31.8491 4.9392 32.0041 5.05348 32.1184C5.16776 32.2327 5.32276 32.2969 5.48438 32.2969H14.4829L8.34044 36.5625H6.09375V37.7812H8.53125C8.6555 37.7813 8.77678 37.7433 8.87882 37.6724L16.6196 32.2969H18.8906C19.0522 32.2969 19.2072 32.2327 19.3215 32.1184C19.4358 32.0041 19.5 31.8491 19.5 31.6875V30.2966L30.1212 37.6724C30.2232 37.7433 30.3445 37.7813 30.4688 37.7812H32.9062V36.5625H30.6596L20.5683 29.5547L30.8163 22.438C30.8971 22.3819 30.9631 22.3071 31.0087 22.2199C31.0543 22.1328 31.0781 22.0359 31.0781 21.9375V21.3281H33.5156C33.6288 21.3281 33.7397 21.2966 33.836 21.2371C33.9323 21.1776 34.0101 21.0925 34.0607 20.9913L35.1155 18.8816C35.841 18.8232 36.5179 18.494 37.0118 17.9594C37.5057 17.4248 37.7804 16.7239 37.7812 15.9961V15.8437C37.7812 15.6821 37.717 15.5271 37.6028 15.4129C37.4885 15.2986 37.3335 15.2344 37.1719 15.2344ZM4.11328 17.6719C3.74861 17.6714 3.39401 17.5522 3.10309 17.3324C2.81217 17.1125 2.60076 16.8038 2.50084 16.4531H4.875V17.6719H4.11328ZM26.8125 14.3203V14.0156H34.125V14.3203C34.1247 14.5626 34.0283 14.795 33.857 14.9663C33.6856 15.1377 33.4533 15.2341 33.2109 15.2344H27.7266C27.4842 15.2341 27.2519 15.1377 27.0805 14.9663C26.9092 14.795 26.8128 14.5626 26.8125 14.3203ZM6.09375 31.0781V29.25H18.2812V31.0781H6.09375ZM33.139 20.1094H27.4249V21.3281H29.8594V21.6188L19.5 28.8128V21.3281H26.2031V20.1094H19.5V18.8906H33.7484L33.139 20.1094ZM34.8867 17.6719H19.5V16.4531H36.4992C36.3992 16.8038 36.1878 17.1125 35.8969 17.3324C35.606 17.5522 35.2514 17.6714 34.8867 17.6719Z" fill="black"/>
<path d="M6.94352 8.40259L7.72032 9.82296L9.14062 10.5998L7.72032 11.3766L6.94352 12.7969L6.16672 11.3766L4.74634 10.5998L6.16672 9.82296L6.94352 8.40259Z" fill="#303F9F"/>
<path d="M6.94347 13.4062C6.83412 13.4062 6.72677 13.3768 6.6327 13.321C6.53863 13.2653 6.4613 13.1852 6.40882 13.0893L5.71766 11.8255L4.4539 11.1344C4.35795 11.0819 4.27788 11.0046 4.22211 10.9105C4.16633 10.8165 4.1369 10.7091 4.1369 10.5997C4.1369 10.4904 4.16633 10.383 4.22211 10.289C4.27788 10.1949 4.35795 10.1176 4.4539 10.0651L5.71766 9.37393L6.40882 8.11018C6.4613 8.01424 6.53863 7.93418 6.6327 7.87841C6.72677 7.82264 6.83411 7.79321 6.94347 7.79321C7.05283 7.79322 7.16017 7.82264 7.25424 7.87841C7.34831 7.93418 7.42564 8.01424 7.47812 8.11018L8.16925 9.37393L9.43301 10.0651C9.52895 10.1176 9.609 10.1949 9.66477 10.289C9.72054 10.383 9.74997 10.4904 9.74997 10.5997C9.74997 10.7091 9.72054 10.8164 9.66477 10.9105C9.609 11.0046 9.52895 11.0819 9.43301 11.1344L8.16925 11.8255L7.47812 13.0893C7.42564 13.1852 7.34831 13.2653 7.25424 13.321C7.16017 13.3768 7.05283 13.4062 6.94347 13.4062ZM6.01628 10.5998L6.45903 10.8419C6.56129 10.8978 6.64537 10.9819 6.70131 11.0841L6.94347 11.5269L7.1856 11.0841C7.24153 10.9819 7.32559 10.8978 7.42783 10.8419L7.87061 10.5998L7.42783 10.3576C7.32558 10.3016 7.24152 10.2176 7.1856 10.1153L6.94347 9.67256L6.70131 10.1153C6.64537 10.2176 6.56131 10.3016 6.45908 10.3576L6.01628 10.5998Z" fill="black"/>
<path d="M14.3846 1.82812L15.1614 3.24843L16.5818 4.02523L15.1614 4.80203L14.3846 6.2224L13.6078 4.80203L12.1875 4.02523L13.6078 3.24843L14.3846 1.82812Z" fill="#303F9F"/>
<path d="M14.3846 6.83177C14.2753 6.83177 14.1679 6.80234 14.0738 6.74657C13.9798 6.6908 13.9024 6.61075 13.85 6.5148L13.1588 5.25105L11.8951 4.55989C11.7991 4.50741 11.7191 4.43008 11.6633 4.33601C11.6076 4.24194 11.5781 4.13459 11.5781 4.02523C11.5781 3.91587 11.6076 3.80853 11.6633 3.71446C11.7191 3.62039 11.7991 3.54306 11.8951 3.49058L13.1588 2.79946L13.85 1.53569C13.9024 1.43975 13.9798 1.3597 14.0738 1.30393C14.1679 1.24816 14.2753 1.21873 14.3846 1.21873C14.494 1.21873 14.6013 1.24816 14.6954 1.30393C14.7895 1.3597 14.8668 1.43975 14.9193 1.53569L15.6104 2.79946L16.8742 3.49058C16.9701 3.54305 17.0502 3.62038 17.106 3.71445C17.1618 3.80852 17.1912 3.91587 17.1912 4.02523C17.1912 4.1346 17.1618 4.24194 17.106 4.33602C17.0502 4.43009 16.9701 4.50742 16.8742 4.55989L15.6104 5.25105L14.9193 6.5148C14.8668 6.61075 14.7895 6.6908 14.6954 6.74657C14.6013 6.80234 14.494 6.83177 14.3846 6.83177ZM13.4575 4.02523L13.9003 4.26739C14.0025 4.32334 14.0866 4.40742 14.1425 4.50968L14.3846 4.95242L14.6268 4.50964C14.6827 4.4074 14.7668 4.32334 14.869 4.26741L15.3118 4.02524L14.869 3.78312C14.7668 3.7272 14.6827 3.64314 14.6268 3.54089L14.3846 3.0981L14.1425 3.54089C14.0865 3.64312 14.0025 3.72718 13.9002 3.78312L13.4575 4.02523Z" fill="black"/>
</svg>
