<svg width="36" height="36" viewBox="0 0 36 36" fill="none" xmlns="http://www.w3.org/2000/svg">
<path d="M24.9678 8.12903C24.9678 8.12903 22.6452 8.70967 18 8.70967C13.3549 8.70967 11.0323 8.12903 11.0323 8.12903H10.9382C10.9946 9.05051 11.0323 9.97374 11.0323 10.8975V11.0323C11.0323 11.0323 13.3549 11.6129 18 11.6129C22.6452 11.6129 24.9678 11.0323 24.9678 11.0323V10.8975C24.9678 9.97316 25.0055 9.05051 25.0618 8.12903H24.9678Z" fill="#303F9F"/>
<path d="M27.3542 26.748L21.4839 25.6471V24.6896C23.5817 23.5928 25.0961 21.5396 25.4572 19.1119C26.8246 18.8774 27.871 17.6911 27.871 16.2581C27.871 15.1095 27.1951 14.1236 26.2248 13.6533C27.8739 13.205 29.0323 12.5495 29.0323 11.6129C29.0323 10.6659 27.8925 9.95052 25.585 9.42852C25.6663 6.96136 25.938 4.49535 26.4217 2.07755L26.8374 0H9.16259L9.57833 2.07813C10.062 4.49535 10.3343 6.96194 10.415 9.4291C8.10755 9.95052 6.96775 10.6659 6.96775 11.6129C6.96775 12.5495 8.12613 13.205 9.77517 13.6533C8.80491 14.1236 8.12904 15.1095 8.12904 16.2581C8.12904 17.6911 9.17536 18.8774 10.5428 19.1119C10.9039 21.5396 12.4183 23.5928 14.5161 24.6896V25.6471L8.64581 26.748C6.61646 27.1277 4.88846 28.4743 4.0233 30.3486L1.41504 36H34.585L31.9767 30.3492C31.1116 28.4743 29.3836 27.1283 27.3542 26.748ZM22.6992 31.0686C21.1001 31.5528 19.6856 32.4563 18.5807 33.6745V33.1386C18.5807 30.8044 19.4412 28.6072 20.9967 26.8897L23.4755 28.5422L21.8241 30.1935L22.6992 31.0686ZM12.5245 28.5416L15.0033 26.8891C16.5588 28.6072 17.4194 30.8038 17.4194 33.138V33.6739C16.3144 32.4557 14.9005 31.5523 13.3008 31.068L14.1759 30.1935L12.5245 28.5416ZM25.5484 17.8932V14.6235C26.2225 14.8639 26.7097 15.5026 26.7097 16.2586C26.7097 17.0146 26.2225 17.6528 25.5484 17.8932ZM25.4207 1.16129L25.283 1.84994C24.7105 4.71135 24.4103 7.63897 24.3883 10.5585C23.5225 10.7175 21.3805 11.0323 18 11.0323C14.6195 11.0323 12.4775 10.7175 11.6117 10.5585C11.5897 7.63897 11.2895 4.71135 10.717 1.84994L10.5794 1.16129H25.4207ZM8.12788 11.6239C8.16852 11.4846 8.69227 11.0334 10.4447 10.6095C10.4452 10.7054 10.4516 10.8017 10.4516 10.8981V11.4857L10.8912 11.5955C10.9893 11.6199 13.3368 12.1935 18 12.1935C22.6632 12.1935 25.0107 11.6199 25.1088 11.5955L25.5484 11.4857V10.8981C25.5484 10.8017 25.5548 10.7059 25.5554 10.6095C27.3072 11.0328 27.8315 11.4823 27.8721 11.603C27.7003 12.2145 24.1577 13.3548 18 13.3548C11.8423 13.3548 8.29975 12.2145 8.12788 11.6239ZM9.29033 16.2581C9.29033 15.5021 9.77749 14.8634 10.4516 14.623V17.8926C9.77749 17.6528 9.29033 17.0141 9.29033 16.2581ZM11.6129 18V14.0423C13.7207 14.3907 16.1489 14.5161 18 14.5161C19.8511 14.5161 22.2794 14.3907 24.3871 14.0423V18C24.3871 21.5216 21.5216 24.3871 18 24.3871C14.4784 24.3871 11.6129 21.5216 11.6129 18ZM18 25.5484C18.8106 25.5484 19.5904 25.4166 20.3226 25.1791V25.9061C19.2681 27.0116 18.4848 28.307 18 29.7157C17.5152 28.307 16.7319 27.0116 15.6774 25.9061V25.1791C16.4096 25.4166 17.1894 25.5484 18 25.5484ZM5.07775 30.8352C5.78555 29.3017 7.19943 28.2002 8.85949 27.889L12.4078 27.2235L10.7013 28.361L12.5338 30.1935L11.0851 31.6417L12.8427 32.1445C14.4517 32.6044 15.8499 33.5491 16.8805 34.8387H3.23014L5.07775 30.8352ZM19.1195 34.8387C20.1501 33.5497 21.5483 32.6044 23.1573 32.1445L24.9149 31.6417L23.4662 30.1935L25.2987 28.3616L23.5922 27.2241L27.1405 27.8895C28.8006 28.2008 30.2145 29.3028 30.9223 30.8357L32.7699 34.8387H19.1195Z" fill="black"/>
<path d="M33.0968 2.32257H31.9355V4.06451H33.0968V2.32257Z" fill="black"/>
<path d="M30.8739 4.98235L31.6951 4.16125L30.4633 2.92961L29.6422 3.75071L30.8739 4.98235Z" fill="black"/>
<path d="M30.7742 5.22583H29.0323V6.38712H30.7742V5.22583Z" fill="black"/>
<path d="M30.4641 8.68008L31.6959 7.44836L30.8747 6.62722L29.643 7.85894L30.4641 8.68008Z" fill="black"/>
<path d="M33.0968 7.5484H31.9355V9.29034H33.0968V7.5484Z" fill="black"/>
<path d="M34.5683 8.68128L35.3895 7.86011L34.1577 6.62835L33.3366 7.44952L34.5683 8.68128Z" fill="black"/>
<path d="M36 5.22583H34.2581V6.38712H36V5.22583Z" fill="black"/>
<path d="M34.1592 4.98534L35.3909 3.75348L34.5698 2.93224L33.3381 4.1641L34.1592 4.98534Z" fill="black"/>
<path d="M4.06449 19.1613H2.9032V20.9032H4.06449V19.1613Z" fill="black"/>
<path d="M1.84266 21.8242L2.6637 21.0029L1.4318 19.7713L0.610767 20.5926L1.84266 21.8242Z" fill="black"/>
<path d="M1.74194 22.0645H0V23.2258H1.74194V22.0645Z" fill="black"/>
<path d="M1.43014 25.5181L2.66187 24.2864L1.84072 23.4652L0.608994 24.6969L1.43014 25.5181Z" fill="black"/>
<path d="M4.06449 24.3871H2.9032V26.129H4.06449V24.3871Z" fill="black"/>
<path d="M5.53706 25.5203L6.35809 24.6982L5.1262 23.4655L4.30517 24.2876L5.53706 25.5203Z" fill="black"/>
<path d="M6.96777 22.0645H5.22583V23.2258H6.96777V22.0645Z" fill="black"/>
<path d="M5.12729 21.8244L6.35901 20.5916L5.53786 19.7697L4.30614 21.0025L5.12729 21.8244Z" fill="black"/>
<path d="M31.3548 17.4194H30.1935V18.5807H31.3548V17.4194Z" fill="black"/>
<path d="M31.3548 19.7419H30.1935V20.9032H31.3548V19.7419Z" fill="black"/>
<path d="M32.5161 18.5806H31.3549V19.7419H32.5161V18.5806Z" fill="black"/>
<path d="M30.1936 18.5806H29.0323V19.7419H30.1936V18.5806Z" fill="black"/>
<path d="M6.96775 4.64514H5.80646V5.80643H6.96775V4.64514Z" fill="black"/>
<path d="M6.96775 6.96771H5.80646V8.129H6.96775V6.96771Z" fill="black"/>
<path d="M8.129 5.80646H6.96771V6.96775H8.129V5.80646Z" fill="black"/>
<path d="M5.80643 5.80646H4.64514V6.96775H5.80643V5.80646Z" fill="black"/>
<path d="M2.32261 11.0323H1.16132V12.1936H2.32261V11.0323Z" fill="black"/>
<path d="M2.32261 13.3549H1.16132V14.5161H2.32261V13.3549Z" fill="black"/>
<path d="M3.48386 12.1935H2.32257V13.3548H3.48386V12.1935Z" fill="black"/>
<path d="M1.16129 12.1935H0V13.3548H1.16129V12.1935Z" fill="black"/>
<path d="M34.8387 24.9677H33.6774V26.129H34.8387V24.9677Z" fill="black"/>
<path d="M34.8387 27.2903H33.6774V28.4516H34.8387V27.2903Z" fill="black"/>
<path d="M36 26.129H34.8387V27.2903H36V26.129Z" fill="black"/>
<path d="M33.6774 26.129H32.5161V27.2903H33.6774V26.129Z" fill="black"/>
<path d="M18 21.4839L17.8653 21.6186C17.208 22.2759 16.3167 22.6451 15.3871 22.6451C14.4575 22.6451 13.5662 22.2759 12.9089 21.6186L11.6129 20.3226H11.7621C12.7818 20.3226 13.7596 19.9173 14.4807 19.1967C14.875 18.8024 15.4103 18.5806 15.9678 18.5806C16.5252 18.5806 17.0605 18.8024 17.4548 19.1967L18 19.7419L18.5452 19.1967C18.9395 18.8024 19.4749 18.5806 20.0323 18.5806C20.5897 18.5806 21.125 18.8024 21.5193 19.1967C22.2399 19.9173 23.2183 20.3226 24.2379 20.3226H24.3871L23.0911 21.6186C22.4338 22.2759 21.5425 22.6451 20.6129 22.6451C19.6833 22.6451 18.792 22.2759 18.1347 21.6186L18 21.4839Z" fill="#303F9F"/>
</svg>
