<svg width="40" height="40" viewBox="0 0 40 40" fill="none" xmlns="http://www.w3.org/2000/svg">
<g clip-path="url(#clip0)">
<path d="M23.7992 19.0045V19.0092C23.7992 19.6553 23.2758 20.1788 22.6297 20.1788H1.7656C1.11951 20.1788 0.596069 19.6553 0.596069 19.0092V19.0045C0.596069 18.3584 1.11951 17.835 1.7656 17.835H22.6297C23.2758 17.835 23.7992 18.3584 23.7992 19.0045Z" fill="#303F9F"/>
<path d="M23.7992 19.0045V19.0092C23.7992 19.6553 23.2758 20.1788 22.6297 20.1788H20.432C21.0781 20.1788 21.6015 19.6553 21.6015 19.0092V19.0045C21.6015 18.3584 21.0781 17.835 20.432 17.835H22.6297C23.2758 17.835 23.7992 18.3584 23.7992 19.0045Z" fill="#303F9F"/>
<path d="M4.10962 34.0832H20.2859V36.4337H4.10962V34.0832Z" fill="#303F9F"/>
<path d="M20.2858 36.4337H18.0983V34.0832H20.2858V36.4337Z" fill="#303F9F"/>
<path d="M9.36957 9.85429H15.0258V12.073H9.36957V9.85429Z" fill="#303F9F"/>
<path d="M15.0259 12.073H13.0246V9.85429H15.0259V12.073Z" fill="#303F9F"/>
<path d="M38.3883 36.4334H30.2086L29.2219 35.4467L28.2352 36.4334H24.7399L23.7531 35.4467L22.7664 36.4334H20.2859L20.7664 31.2334H37.607L38.3883 36.4334Z" fill="#FFF148"/>
<path d="M38.3882 36.4334H36.2007L35.4195 31.2334H37.607L38.3882 36.4334Z" fill="#FFCF4A"/>
<path d="M30.4273 4.72406V31.2334H28.0906V4.72406C28.0906 4.40063 28.221 4.10844 28.4328 3.8975C28.5046 3.82563 28.5859 3.76234 28.675 3.71156C28.846 3.61234 29.046 3.55531 29.2585 3.55531C29.9039 3.55531 30.4273 4.07797 30.4273 4.72406Z" fill="#C4893B"/>
<path d="M30.4273 4.72406V31.2334H29.2586V4.72406C29.2586 4.29125 29.0242 3.91391 28.675 3.71156C28.8461 3.61234 29.0461 3.55531 29.2586 3.55531C29.9039 3.55531 30.4273 4.07797 30.4273 4.72406Z" fill="#B2581B"/>
<path d="M6.1616 8.3029C6.949 8.3029 7.58731 7.66459 7.58731 6.87719C7.58731 6.0898 6.949 5.45149 6.1616 5.45149C5.37421 5.45149 4.7359 6.0898 4.7359 6.87719C4.7359 7.66459 5.37421 8.3029 6.1616 8.3029Z" fill="#303F9F"/>
<path d="M22.6442 10.2081C23.4316 10.2081 24.0699 9.56975 24.0699 8.78235C24.0699 7.99496 23.4316 7.35665 22.6442 7.35665C21.8568 7.35665 21.2185 7.99496 21.2185 8.78235C21.2185 9.56975 21.8568 10.2081 22.6442 10.2081Z" fill="#303F9F"/>
<path d="M39.4137 30.6527H31.019V10.6103C31.019 10.2866 30.7565 10.0244 30.4327 10.0244C30.109 10.0244 29.8465 10.2866 29.8465 10.6103V30.6527H28.6807V4.72937C28.6807 4.40812 28.9422 4.14671 29.2636 4.14671C29.585 4.14671 29.8465 4.40812 29.8465 4.72937V7.91867C29.8465 8.24234 30.109 8.5046 30.4327 8.5046C30.7565 8.5046 31.019 8.24234 31.019 7.91867V4.72937C31.019 3.76187 30.2316 2.97484 29.2636 2.97484C28.2956 2.97484 27.5082 3.76187 27.5082 4.72937V30.6527H21.4599L23.1392 20.6952C23.8607 20.4767 24.3874 19.8052 24.3874 19.01C24.3874 18.0419 23.5995 17.2544 22.6309 17.2544H20.8723V13.6785C20.8723 11.8616 19.3933 10.3834 17.5755 10.3834H15.6095V9.85992C15.6095 9.53624 15.347 9.27398 15.0233 9.27398H9.36414C9.04039 9.27398 8.77789 9.53624 8.77789 9.85992V10.3834H6.81203C4.99414 10.3834 3.51523 11.8616 3.51523 13.6785V17.2544H1.75648C0.787969 17.2544 0 18.0419 0 19.0146C0 19.806 0.526719 20.4768 1.2482 20.6952L3.51523 34.1377V36.4392C3.51523 36.7629 3.77773 37.0252 4.10148 37.0252H22.7682C22.9237 37.0252 23.0728 36.9634 23.1827 36.8535L23.7554 36.2812L24.328 36.8536C24.438 36.9634 24.5871 37.0252 24.7426 37.0252H28.2398C28.3952 37.0252 28.5444 36.9634 28.6543 36.8535L29.227 36.2812L29.7996 36.8536C29.9095 36.9634 30.0587 37.0252 30.2141 37.0252H32.7493C33.073 37.0252 33.3355 36.7629 33.3355 36.4392C33.3355 36.1155 33.073 35.8533 32.7493 35.8533H30.457L29.6415 35.0381C29.5316 34.9283 29.3824 34.8666 29.227 34.8666C29.0715 34.8666 28.9223 34.9283 28.8124 35.0382L27.997 35.8533H24.9854L24.1699 35.0381C24.06 34.9283 23.9109 34.8666 23.7554 34.8666C23.5999 34.8666 23.4508 34.9283 23.3409 35.0382L22.5254 35.8533H20.8723V34.1377L21.2624 31.8245H37.1112L37.7168 35.8532H35.4482C35.1245 35.8532 34.862 36.1155 34.862 36.4391C34.862 36.7628 35.1245 37.0251 35.4482 37.0251H38.3977C38.5684 37.0251 38.7305 36.9508 38.842 36.8215C38.9534 36.6922 39.0028 36.5208 38.9774 36.3521L38.297 31.8245H39.4138C39.7376 31.8245 40.0001 31.5623 40.0001 31.2386C40.0001 30.9149 39.7375 30.6527 39.4137 30.6527ZM9.95039 10.4459H14.437V11.4927H9.95039V10.4459ZM4.68766 13.6784C4.68766 12.5077 5.64062 11.5552 6.81203 11.5552H8.77789V12.0786C8.77789 12.4023 9.04039 12.6645 9.36414 12.6645H15.0233C15.347 12.6645 15.6095 12.4023 15.6095 12.0786V11.5552H17.5755C18.7469 11.5552 19.6998 12.5076 19.6998 13.6784V17.2543H4.68766V13.6784ZM19.6998 35.8533H4.68766V34.6747H19.6998V35.8533ZM19.7903 33.5028H4.59719L2.44984 20.7702H7.15156C7.47531 20.7702 7.73781 20.508 7.73781 20.1843C7.73781 19.8606 7.47531 19.5984 7.15156 19.5984H1.76453C1.76148 19.5984 1.75844 19.5984 1.75547 19.5984C1.43391 19.5978 1.1725 19.3362 1.1725 19.01C1.1725 18.6881 1.43445 18.4262 1.75656 18.4262H22.631C22.953 18.4262 23.2151 18.6881 23.2151 19.0146C23.2151 19.3358 22.9543 19.5971 22.6332 19.5983C22.6295 19.5983 22.6259 19.5983 22.6223 19.5983H9.8982C9.57445 19.5983 9.31195 19.8605 9.31195 20.1842C9.31195 20.5079 9.57445 20.7702 9.8982 20.7702H21.9377L19.7903 33.5028Z" fill="black"/>
<path d="M6.15452 8.89444C7.26436 8.89444 8.16718 7.99194 8.16718 6.88272C8.16718 5.7735 7.26436 4.87108 6.15452 4.87108C5.04468 4.87108 4.14178 5.7735 4.14178 6.88272C4.14178 7.99194 5.04475 8.89444 6.15452 8.89444ZM6.15452 6.04295C6.6178 6.04295 6.99475 6.41967 6.99475 6.88272C6.99475 7.34584 6.61788 7.72256 6.15452 7.72256C5.69116 7.72256 5.31429 7.34584 5.31429 6.88272C5.31429 6.41967 5.69124 6.04295 6.15452 6.04295Z" fill="black"/>
<path d="M21.2744 10.2606C21.6615 10.6206 22.1537 10.7987 22.6448 10.7987C23.1846 10.7987 23.723 10.5835 24.1189 10.1584C24.875 9.34641 24.8291 8.07102 24.0167 7.31531C23.2043 6.55961 21.9283 6.60563 21.1722 7.4175C20.4161 8.22946 20.4619 9.50493 21.2744 10.2606ZM22.0304 8.21586C22.1956 8.03844 22.4204 7.9486 22.6458 7.9486C22.8508 7.9486 23.0564 8.02289 23.2179 8.17321C23.3822 8.32602 23.4772 8.5336 23.4852 8.75782C23.4933 8.98196 23.4136 9.19586 23.2606 9.36008C22.9451 9.69899 22.4123 9.71836 22.0731 9.40274C21.9088 9.24993 21.8139 9.04235 21.8058 8.81813C21.7977 8.59391 21.8775 8.38 22.0304 8.21586Z" fill="black"/>
<path d="M13.8018 16.0419C14.1249 16.0413 14.3863 15.7789 14.3857 15.456C14.385 15.133 14.1226 14.8717 13.7994 14.8724C13.4763 14.873 13.2149 15.1354 13.2155 15.4583C13.2162 15.7813 13.4786 16.0426 13.8018 16.0419Z" fill="black"/>
<path d="M7.00026 14.8701C7.32339 14.8694 7.58481 14.6071 7.58417 14.2841C7.58352 13.9612 7.32105 13.6999 6.99792 13.7005C6.67479 13.7012 6.41337 13.9635 6.41401 14.2865C6.41466 14.6094 6.67713 14.8707 7.00026 14.8701Z" fill="black"/>
<path d="M16.9273 15.2606C17.2504 15.2599 17.5118 14.9976 17.5112 14.6747C17.5105 14.3517 17.2481 14.0904 16.9249 14.0911C16.6018 14.0917 16.3404 14.354 16.341 14.677C16.3417 15 16.6041 15.2612 16.9273 15.2606Z" fill="black"/>
<path d="M26.1101 16.2395C26.1108 15.9165 25.8493 15.6542 25.5262 15.6536C25.2031 15.6529 24.9406 15.9142 24.94 16.2372C24.9393 16.5601 25.2007 16.8224 25.5239 16.8231C25.847 16.8237 26.1095 16.5625 26.1101 16.2395Z" fill="black"/>
<path d="M24.4454 13.2022C24.7685 13.2022 25.0305 12.9404 25.0305 12.6174C25.0305 12.2945 24.7685 12.0326 24.4454 12.0326C24.1222 12.0326 23.8603 12.2945 23.8603 12.6174C23.8603 12.9404 24.1222 13.2022 24.4454 13.2022Z" fill="black"/>
<path d="M16.1443 7.44819C16.4674 7.44819 16.7294 7.18639 16.7294 6.86343C16.7294 6.54047 16.4674 6.27866 16.1443 6.27866C15.8212 6.27866 15.5592 6.54047 15.5592 6.86343C15.5592 7.18639 15.8212 7.44819 16.1443 7.44819Z" fill="black"/>
<path d="M2.85744 10.4951C3.18057 10.4944 3.44199 10.2321 3.44134 9.90913C3.4407 9.58617 3.17823 9.32488 2.8551 9.32553C2.53197 9.32617 2.27054 9.58851 2.27119 9.91147C2.27183 10.2344 2.53431 10.4957 2.85744 10.4951Z" fill="black"/>
</g>
<defs>
<clipPath id="clip0">
<rect width="40" height="40" fill="white"/>
</clipPath>
</defs>
</svg>
