<svg width="35" height="35" viewBox="0 0 35 35" fill="none" xmlns="http://www.w3.org/2000/svg">
<path d="M20.4167 4.66667H18.6666V2.91667H16.3333V4.66667H14.5833V7H16.3333V8.75H18.6666V7H20.4167V4.66667Z" fill="#DD3E46"/>
<path d="M0.583374 11.0833H34.4167V13.4167H0.583374V11.0833Z" fill="#303F9F"/>
<path d="M5.83331 26.25H16.3333V29.1667H5.83331V26.25Z" fill="#303F9F"/>
<path d="M7 17.5H15.1667V26.25H7V17.5Z" fill="#303F9F"/>
<path d="M20.4167 21.5833H29.1667V28.5833H20.4167V21.5833Z" fill="#303F9F"/>
<path d="M26.8333 25.6667C26.5112 25.6667 26.25 25.4055 26.25 25.0833V24.5C26.25 24.1779 26.5112 23.9167 26.8333 23.9167C27.1555 23.9167 27.4167 24.1779 27.4167 24.5V25.0833C27.4167 25.4055 27.1555 25.6667 26.8333 25.6667Z" fill="#759DFD"/>
<path d="M34.4167 10.5H33.8333V4.08333C33.8333 3.76119 33.5721 3.5 33.25 3.5H23.3333V0.583333C23.3333 0.26119 23.0721 0 22.75 0H12.25C11.9279 0 11.6667 0.26119 11.6667 0.583333V3.5H1.75C1.42786 3.5 1.16667 3.76119 1.16667 4.08333V10.5H0.583333C0.26119 10.5 0 10.7612 0 11.0833V13.4167C0 13.7388 0.26119 14 0.583333 14H1.16667V34.4167C1.16667 34.7388 1.42786 35 1.75 35H33.25C33.5721 35 33.8333 34.7388 33.8333 34.4167V14H34.4167C34.7388 14 35 13.7388 35 13.4167V11.0833C35 10.7612 34.7388 10.5 34.4167 10.5ZM23.3333 4.66667H32.6667V10.5H23.3333V4.66667ZM12.8333 1.16667H22.1667V10.5H12.8333V1.16667ZM2.33333 4.66667H11.6667V10.5H2.33333V4.66667ZM28.5833 33.8333H21V29.1667H28.5833V33.8333ZM28.5833 28H21V22.1667H28.5833V28ZM28.5833 21H21V18.0833H28.5833V21ZM32.6667 33.8333H29.75V17.5C29.75 17.1779 29.4888 16.9167 29.1667 16.9167H20.4167C20.0945 16.9167 19.8333 17.1779 19.8333 17.5V33.8333H2.33333V14H32.6667V33.8333ZM33.8333 12.8333H1.16667V11.6667H33.8333V12.8333Z" fill="black"/>
<path d="M5.83333 29.75H16.3333C16.6555 29.75 16.9167 29.4888 16.9167 29.1667V26.25C16.9167 25.9279 16.6555 25.6667 16.3333 25.6667H15.75V17.5C15.75 17.1779 15.4888 16.9167 15.1667 16.9167H7C6.67786 16.9167 6.41667 17.1779 6.41667 17.5V25.6667H5.83333C5.51119 25.6667 5.25 25.9279 5.25 26.25V29.1667C5.25 29.4888 5.51119 29.75 5.83333 29.75ZM7.58333 18.0833H14.5833V25.6667H7.58333V18.0833ZM6.41667 26.8333H15.75V28.5833H6.41667V26.8333Z" fill="black"/>
<path d="M26.8333 25.6667C27.1555 25.6667 27.4167 25.4055 27.4167 25.0833V24.5C27.4167 24.1779 27.1555 23.9167 26.8333 23.9167C26.5112 23.9167 26.25 24.1779 26.25 24.5V25.0833C26.25 25.4055 26.5112 25.6667 26.8333 25.6667Z" fill="black"/>
<path d="M20.4167 4.08333H19.25V2.91666C19.25 2.59452 18.9888 2.33333 18.6667 2.33333H16.3333C16.0112 2.33333 15.75 2.59452 15.75 2.91666V4.08333H14.5833C14.2612 4.08333 14 4.34452 14 4.66666V7C14 7.32214 14.2612 7.58333 14.5833 7.58333H15.75V8.75C15.75 9.07214 16.0112 9.33333 16.3333 9.33333H18.6667C18.9888 9.33333 19.25 9.07214 19.25 8.75V7.58333H20.4167C20.7388 7.58333 21 7.32214 21 7V4.66666C21 4.34452 20.7388 4.08333 20.4167 4.08333ZM19.8333 6.41666H18.6667C18.3445 6.41666 18.0833 6.67785 18.0833 7V8.16666H16.9167V7C16.9167 6.67785 16.6555 6.41666 16.3333 6.41666H15.1667V5.25H16.3333C16.6555 5.25 16.9167 4.98881 16.9167 4.66666V3.5H18.0833V4.66666C18.0833 4.98881 18.3445 5.25 18.6667 5.25H19.8333V6.41666Z" fill="black"/>
<path d="M9.74576 21.9958L11.4958 20.2458C11.7168 20.0168 11.7137 19.653 11.4886 19.428C11.2636 19.203 10.8999 19.1999 10.6709 19.4209L8.92089 21.1709C8.76936 21.3173 8.70841 21.5343 8.76196 21.7383C8.81522 21.9422 8.97444 22.1014 9.17838 22.1547C9.38232 22.2083 9.59936 22.1473 9.74576 21.9958Z" fill="black"/>
<path d="M12.4209 20.5876L9.50421 23.5042C9.35268 23.6506 9.29172 23.8677 9.34527 24.0716C9.39853 24.2756 9.55776 24.4348 9.76169 24.488C9.96563 24.5416 10.1827 24.4806 10.3291 24.3291L13.2457 21.4124C13.4668 21.1834 13.4636 20.8197 13.2386 20.5947C13.0136 20.3697 12.6499 20.3665 12.4209 20.5876Z" fill="black"/>
</svg>
