<svg width="41" height="41" viewBox="0 0 41 41" fill="none" xmlns="http://www.w3.org/2000/svg">
<path d="M32.8445 9.56666C31.7896 9.56666 30.9312 8.70826 30.9312 7.65333C30.9312 6.5984 31.7896 5.74 32.8445 5.74C33.8995 5.74 34.7579 6.5984 34.7579 7.65333C34.7579 8.70826 33.8995 9.56666 32.8445 9.56666ZM32.8445 6.83333C32.3923 6.83333 32.0245 7.2011 32.0245 7.65333C32.0245 8.10556 32.3923 8.47333 32.8445 8.47333C33.2968 8.47333 33.6645 8.10556 33.6645 7.65333C33.6645 7.2011 33.2968 6.83333 32.8445 6.83333Z" fill="#4C241D"/>
<path d="M27.3779 5.53896C27.7197 5.53896 27.9968 5.26184 27.9968 4.92C27.9968 4.57815 27.7197 4.30103 27.3779 4.30103C27.036 4.30103 26.7589 4.57815 26.7589 4.92C26.7589 5.26184 27.036 5.53896 27.3779 5.53896Z" fill="#4C241D"/>
<path d="M36.1246 13.1923C36.4664 13.1923 36.7435 12.9152 36.7435 12.5733C36.7435 12.2315 36.4664 11.9544 36.1246 11.9544C35.7827 11.9544 35.5056 12.2315 35.5056 12.5733C35.5056 12.9152 35.7827 13.1923 36.1246 13.1923Z" fill="#4C241D"/>
<path d="M10.9779 6.08562C11.3198 6.08562 11.5969 5.80851 11.5969 5.46666C11.5969 5.12482 11.3198 4.8477 10.9779 4.8477C10.6361 4.8477 10.3589 5.12482 10.3589 5.46666C10.3589 5.80851 10.6361 6.08562 10.9779 6.08562Z" fill="#4C241D"/>
<path d="M5.32712 8.65755C5.18731 8.65755 5.04736 8.60411 4.94062 8.49738C4.72715 8.2839 4.72715 7.93787 4.94062 7.72439L6.94894 5.71608C7.16241 5.5026 7.50845 5.5026 7.72193 5.71608C7.9354 5.92955 7.9354 6.27559 7.72193 6.48906L5.71361 8.49738C5.60674 8.60411 5.46693 8.65755 5.32712 8.65755Z" fill="#4C241D"/>
<path d="M7.33545 8.65756C7.19564 8.65756 7.05569 8.60412 6.94895 8.49738L4.9405 6.48893C4.72703 6.27546 4.72703 5.92942 4.9405 5.71594C5.15397 5.50247 5.50001 5.50247 5.71349 5.71594L7.72194 7.7244C7.93541 7.93787 7.93541 8.28391 7.72194 8.49738C7.6152 8.60412 7.47526 8.65756 7.33545 8.65756Z" fill="#4C241D"/>
<path d="M34.8471 35.9909C34.7073 35.9909 34.5674 35.9375 34.4606 35.8307C34.2472 35.6172 34.2472 35.2712 34.4606 35.0577L36.469 33.0494C36.6824 32.8359 37.0285 32.8359 37.2419 33.0494C37.4554 33.2629 37.4554 33.6089 37.2419 33.8224L35.2336 35.8307C35.1268 35.9375 34.9869 35.9909 34.8471 35.9909Z" fill="#4C241D"/>
<path d="M36.8555 35.9909C36.7157 35.9909 36.5757 35.9375 36.469 35.8307L34.4605 33.8223C34.247 33.6088 34.247 33.2627 34.4605 33.0493C34.674 32.8358 35.02 32.8358 35.2335 33.0493L37.2418 35.0576C37.4553 35.2711 37.4553 35.6171 37.2418 35.8306C37.1352 35.9375 36.9953 35.9909 36.8555 35.9909Z" fill="#4C241D"/>
<path d="M26.5416 36.869H11.7733V31.8854C11.7733 29.6406 12.6485 27.6064 14.0066 26.6947L19.1574 23.2368L24.3083 26.6947C25.6664 27.6064 26.5416 29.6406 26.5416 31.8854V36.869Z" fill="#303F9F"/>
<path d="M29.2912 37.4467H9.06455C8.76265 37.4467 8.51788 37.2019 8.51788 36.9V32.4034C8.51788 30.1638 9.84642 28.1294 11.9023 27.2202L18.9569 24.1001C19.0973 24.0376 19.2585 24.0376 19.3989 24.1001L26.4535 27.2202C28.5094 28.1293 29.8379 30.1638 29.8379 32.4034V36.9C29.8379 37.2019 29.5931 37.4467 29.2912 37.4467ZM9.61122 36.3533H28.7446V32.4034C28.7446 30.5962 27.6717 28.9542 26.0115 28.2202L19.1779 25.1978L12.3443 28.2202C10.6841 28.9542 9.61122 30.5964 9.61122 32.4034V36.3533Z" fill="#4C241D"/>
<path d="M26.0113 37.4467H12.3446C12.0427 37.4467 11.7979 37.2019 11.7979 36.9V27.6221C11.7979 27.4056 11.9256 27.2096 12.1236 27.1222L18.9569 24.1001C19.0973 24.0376 19.2585 24.0376 19.3989 24.1001L26.2322 27.1222C26.4303 27.2098 26.5579 27.4056 26.5579 27.6221V36.9C26.5579 37.2019 26.3131 37.4467 26.0113 37.4467ZM12.8912 36.3533H25.4646V27.9783L19.1779 25.1976L12.8912 27.9783V36.3533Z" fill="#4C241D"/>
<path d="M19.1779 30.34C17.8193 30.34 16.7179 29.2386 16.7179 27.88V23.2333H21.6379V27.88C21.6379 29.2386 20.5365 30.34 19.1779 30.34Z" fill="#F2C09D"/>
<path d="M19.1779 30.8867C17.52 30.8867 16.1712 29.5379 16.1712 27.88V23.2333C16.1712 22.9314 16.416 22.6867 16.7179 22.6867H21.6379C21.9398 22.6867 22.1845 22.9314 22.1845 23.2333V27.88C22.1845 29.5379 20.8358 30.8867 19.1779 30.8867ZM17.2645 23.78V27.88C17.2645 28.9349 18.1229 29.7933 19.1779 29.7933C20.2328 29.7933 21.0912 28.9349 21.0912 27.88V23.78H17.2645Z" fill="#4C241D"/>
<path d="M26.0112 16.4C25.971 16.4 25.9653 15.9981 25.9718 15.5389C25.9832 14.7433 25.4507 14.0357 24.6781 13.845C20.9003 12.9128 16.8437 13.0869 13.1617 14.2177C12.6791 14.3659 12.3624 14.829 12.3766 15.3337C12.391 15.8457 12.3948 16.3999 12.3444 16.3999C11.573 16.3999 10.9509 17.0389 10.9787 17.8164C10.9943 18.2536 11.2631 18.6487 11.6257 18.8933C12.0653 19.19 12.4429 19.169 12.7779 19.0563C13.3202 21.702 15.2409 23.9145 17.8929 24.7681C18.6532 25.0129 19.4757 24.9895 20.2355 24.7432L20.4781 24.6646C23.0875 23.8189 24.9912 21.6526 25.5584 19.0505C25.892 19.1682 26.2721 19.1888 26.7024 18.9207C27.0508 18.7037 27.3168 18.3475 27.3669 17.9402C27.4697 17.1079 26.8231 16.4 26.0112 16.4Z" fill="#F2C09D"/>
<path d="M19.0073 25.4886C18.571 25.4886 18.1398 25.4222 17.7258 25.2889C15.1017 24.4441 13.0882 22.3215 12.3653 19.6803C12.0071 19.6976 11.6582 19.575 11.3201 19.3469C10.7852 18.9857 10.4534 18.4213 10.4323 17.8364C10.4139 17.3113 10.604 16.8148 10.9678 16.438C11.2115 16.1857 11.511 16.0093 11.8396 15.9202C11.8396 15.7864 11.8374 15.6023 11.8306 15.3492C11.8092 14.5935 12.291 13.9134 13.0015 13.6952C16.8369 12.5173 21.0304 12.3817 24.8092 13.3146C25.8306 13.5664 26.5336 14.4843 26.5187 15.5467C26.5162 15.7023 26.5159 15.825 26.5165 15.9214C26.8721 16.0188 27.1959 16.218 27.4449 16.4995C27.8078 16.9098 27.9772 17.459 27.9098 18.0068C27.8423 18.5535 27.4993 19.0687 26.9918 19.3847C26.6614 19.5908 26.3202 19.6946 25.9637 19.6788C25.2201 22.2661 23.2231 24.3495 20.6471 25.1847L20.4039 25.2634C19.9413 25.4133 19.4713 25.4886 19.0073 25.4886ZM12.7781 18.5099C12.8728 18.5099 12.9668 18.5345 13.0506 18.5827C13.1864 18.6606 13.282 18.7933 13.3135 18.9468C13.8244 21.4385 15.6436 23.4699 18.0608 24.2482C18.6851 24.449 19.3981 24.4401 20.067 24.2233L20.3102 24.1446C22.6853 23.3748 24.4919 21.3782 25.0246 18.9342C25.058 18.781 25.1557 18.6494 25.2926 18.573C25.4298 18.4962 25.5932 18.4833 25.7405 18.5351C25.9884 18.6225 26.1836 18.6001 26.414 18.4567C26.6436 18.3136 26.7973 18.0955 26.8245 17.8734C26.8542 17.6329 26.7837 17.4023 26.626 17.2237C26.47 17.0475 26.2462 16.9467 26.0112 16.9467C25.865 16.9467 25.7192 16.8853 25.6164 16.7812C25.4372 16.5991 25.4122 16.4358 25.4253 15.5309C25.4331 14.9806 25.0722 14.5054 24.5474 14.376C20.9572 13.4901 16.9717 13.6201 13.3223 14.7406C13.08 14.8151 12.9157 15.0526 12.9232 15.3187C12.9545 16.4504 12.9195 16.5963 12.7428 16.778C12.6398 16.8839 12.4922 16.9467 12.3446 16.9467C12.12 16.9467 11.9105 17.0355 11.7544 17.1973C11.5985 17.3589 11.5172 17.5718 11.5251 17.7974C11.5334 18.0302 11.6892 18.2768 11.9317 18.4407C12.1981 18.6203 12.3935 18.6096 12.6038 18.5384C12.6607 18.5192 12.7193 18.5099 12.7781 18.5099ZM26.5291 16.2577H26.5347H26.5291Z" fill="#4C241D"/>
<path d="M21.9112 19.1333C22.2131 19.1333 22.4579 18.8886 22.4579 18.5867C22.4579 18.2848 22.2131 18.04 21.9112 18.04C21.6093 18.04 21.3646 18.2848 21.3646 18.5867C21.3646 18.8886 21.6093 19.1333 21.9112 19.1333Z" fill="#4C241D"/>
<path d="M16.4446 19.1333C16.7465 19.1333 16.9912 18.8886 16.9912 18.5867C16.9912 18.2848 16.7465 18.04 16.4446 18.04C16.1426 18.04 15.8979 18.2848 15.8979 18.5867C15.8979 18.8886 16.1426 19.1333 16.4446 19.1333Z" fill="#4C241D"/>
<path d="M15.6246 13.94C16.8529 15.3425 21.6379 18.86 26.0112 16.1267C26.0112 15.58 26.0077 15.8155 26.0112 15.58C26.0231 14.7998 25.4579 14.0381 24.7005 13.8509C22.4181 13.2866 17.2646 12.8467 15.6246 13.94Z" fill="#303F9F"/>
<path d="M22.5047 17.6959C19.0281 17.6959 16.0274 15.2295 15.2132 14.3C15.1096 14.1818 15.0619 14.0242 15.0827 13.8681C15.1032 13.7119 15.1903 13.5724 15.3213 13.485C17.283 12.1777 22.8439 12.8289 24.8317 13.3201C25.8315 13.5673 26.5736 14.5423 26.5579 15.5882L26.5566 15.7305L26.5579 16.1265C26.5579 16.315 26.4608 16.4901 26.3009 16.5902C25.0269 17.3866 23.7358 17.6959 22.5047 17.6959ZM16.581 14.1092C18.119 15.4457 21.9113 17.8126 25.4635 15.8162L25.4632 15.7428L25.4646 15.5719C25.4727 15.0395 25.0709 14.5055 24.569 14.3814C22.3512 13.833 18.4361 13.558 16.581 14.1092Z" fill="#4C241D"/>
<path d="M12.3836 16.114C13.631 15.7836 14.8717 14.5797 15.7045 13.6101C14.8164 13.7709 13.9395 13.9796 13.0838 14.2433C12.6463 14.378 12.3608 14.7983 12.3746 15.2558C12.3836 15.5584 12.3898 15.887 12.3836 16.114Z" fill="#BF7E68"/>
<path d="M12.3835 16.6605C12.2617 16.6605 12.1419 16.6196 12.0443 16.5425C11.9093 16.4355 11.8323 16.2714 11.8371 16.0992C11.843 15.8803 11.8368 15.5637 11.8281 15.272C11.8071 14.5637 12.2571 13.9258 12.9228 13.7208C13.7725 13.4592 14.6754 13.2408 15.6071 13.0722C15.8313 13.0305 16.0635 13.1371 16.1789 13.3383C16.294 13.539 16.2702 13.7908 16.1193 13.9661C15.2449 14.9841 13.9116 16.2748 12.5235 16.6423C12.4773 16.6546 12.4303 16.6605 12.3835 16.6605ZM14.0097 14.5465C13.7503 14.6157 13.4948 14.6888 13.2447 14.7657C13.0477 14.8266 12.9145 15.0214 12.9209 15.2396C12.9217 15.2625 12.9223 15.2855 12.9231 15.3087C13.2676 15.1238 13.6328 14.8676 14.0097 14.5465Z" fill="#4C241D"/>
<path d="M36.3979 22.14C36.3979 21.5362 35.9083 21.0467 35.3046 21.0467H28.1979C27.5941 21.0467 27.1046 21.5362 27.1046 22.14C27.1046 22.5462 27.3287 22.8966 27.6575 23.0852C27.7243 25.291 29.5292 27.06 31.7512 27.06C33.9733 27.06 35.7782 25.291 35.8449 23.0852C36.1738 22.8966 36.3979 22.5462 36.3979 22.14Z" fill="#F53E28"/>
<path d="M31.7512 27.6067C29.3178 27.6067 27.337 25.77 27.1272 23.3761C26.7704 23.0676 26.5579 22.6167 26.5579 22.14C26.5579 21.2357 27.2935 20.5 28.1979 20.5H35.3045C36.2088 20.5 36.9445 21.2357 36.9445 22.14C36.9445 22.6167 36.732 23.0676 36.3752 23.3761C36.1654 25.77 34.1845 27.6067 31.7512 27.6067ZM28.1979 21.5933C27.8965 21.5933 27.6512 21.8386 27.6512 22.14C27.6512 22.3349 27.7553 22.5111 27.9296 22.6111C28.0943 22.7055 28.1984 22.8788 28.204 23.0686C28.2625 25.0002 29.8205 26.5133 31.7512 26.5133C33.6819 26.5133 35.2399 25.0002 35.2984 23.0686C35.304 22.8788 35.4081 22.7057 35.5728 22.6111C35.7471 22.5111 35.8512 22.3349 35.8512 22.14C35.8512 21.8386 35.6059 21.5933 35.3045 21.5933H28.1979Z" fill="#4C241D"/>
<path d="M31.4779 37.4467C31.176 37.4467 30.9312 37.2019 30.9312 36.9V27.06C30.9312 26.7581 31.176 26.5133 31.4779 26.5133C31.7798 26.5133 32.0245 26.7581 32.0245 27.06V36.9C32.0245 37.2019 31.7798 37.4467 31.4779 37.4467Z" fill="#4C241D"/>
<path d="M30.9312 23.78H27.6512C27.3493 23.78 27.1046 23.5352 27.1046 23.2333C27.1046 22.9314 27.3493 22.6867 27.6512 22.6867H30.9312C31.2331 22.6867 31.4779 22.9314 31.4779 23.2333C31.4779 23.5352 31.2331 23.78 30.9312 23.78Z" fill="#4C241D"/>
<path d="M33.3606 17.5674C33.3606 18.4563 32.6401 19.1768 31.7512 19.1768C30.8624 19.1768 30.1418 18.4563 30.1418 17.5674C30.1418 16.6785 31.7512 14.1697 31.7512 14.1697C31.7512 14.1697 33.3606 16.6787 33.3606 17.5674Z" fill="#9DC1E4"/>
<path d="M31.7513 19.7235C30.5624 19.7235 29.5953 18.7564 29.5953 17.5675C29.5953 16.5689 31.0079 14.3161 31.2911 13.8747C31.4924 13.5613 32.0102 13.5613 32.2114 13.8747C32.4946 14.3161 33.9072 16.5691 33.9072 17.5675C33.9073 18.7564 32.9401 19.7235 31.7513 19.7235ZM31.7513 15.2184C31.1824 16.1938 30.6887 17.2123 30.6887 17.5675C30.6887 18.1534 31.1654 18.6301 31.7513 18.6301C32.3371 18.6301 32.8138 18.1534 32.8138 17.5675C32.814 17.2122 32.3201 16.1936 31.7513 15.2184Z" fill="#4C241D"/>
<path d="M7.9712 23.2428V17.0694C9.03036 16.7306 9.6112 15.8296 9.6112 14.76C9.6112 13.9877 9.20776 13.3071 8.5892 12.8561C8.25929 13.406 8.70004 15.0333 6.87786 15.0333C5.23786 15.0333 5.49644 13.406 5.16652 12.8561C4.54797 13.3071 4.14453 13.9877 4.14453 14.76C4.14453 15.8296 4.72536 16.7305 5.78453 17.0694V23.2428C4.72536 23.5816 4.14453 24.4826 4.14453 25.5522C4.14453 26.3245 4.54797 27.0051 5.16652 27.4561C5.49644 26.9062 5.05569 25.2788 6.87786 25.2788C8.51786 25.2788 8.25929 26.9061 8.5892 27.4561C9.20776 27.0051 9.6112 26.3245 9.6112 25.5522C9.6112 24.4826 9.03036 23.5817 7.9712 23.2428Z" fill="#B5A19C"/>
<path d="M8.58922 28.0027C8.55287 28.0027 8.51665 27.9993 8.48057 27.9918C8.32997 27.9613 8.19945 27.8691 8.12046 27.7375C7.98488 27.5114 7.9283 27.2384 7.86844 26.9492C7.70321 26.1505 7.56737 25.8254 6.87788 25.8254C6.05652 25.8254 5.97438 26.1564 5.86628 26.9048C5.82255 27.208 5.78141 27.4941 5.63545 27.7373C5.55646 27.8689 5.42594 27.9613 5.27533 27.9917C5.12527 28.0224 4.96838 27.9877 4.84456 27.8976C4.0523 27.3197 3.59802 26.4648 3.59802 25.5519C3.59802 24.3477 4.21644 23.3535 5.23802 22.8712V17.4406C4.21644 16.9583 3.59802 15.9639 3.59802 14.7599C3.59802 13.8469 4.0523 12.9919 4.84456 12.4141C4.96893 12.3239 5.12514 12.29 5.27533 12.3201C5.42594 12.3506 5.55646 12.4428 5.63545 12.5744C5.77102 12.8005 5.8276 13.0735 5.88746 13.3627C6.05269 14.1614 6.18854 14.4865 6.87802 14.4865C7.69939 14.4865 7.78152 14.1555 7.88963 13.4071C7.93336 13.1039 7.9745 12.8178 8.12046 12.5746C8.19945 12.443 8.32997 12.3506 8.48057 12.3202C8.63009 12.2889 8.78725 12.3239 8.91135 12.4143C9.7036 12.9922 10.1579 13.8471 10.1579 14.76C10.1579 15.9642 9.53947 16.9584 8.51788 17.4407V22.8713C9.53947 23.3536 10.1579 24.348 10.1579 25.552C10.1579 26.465 9.7036 27.3199 8.91135 27.8978C8.81718 27.9665 8.70402 28.0027 8.58922 28.0027ZM6.87788 24.7322C8.263 24.7322 8.67382 25.6488 8.85531 26.3554C8.99171 26.1058 9.06455 25.8325 9.06455 25.5522C9.06455 24.6846 8.59346 24.016 7.80462 23.7635C7.5783 23.6909 7.42455 23.4806 7.42455 23.2426V17.0694C7.42455 16.8316 7.5783 16.6213 7.80462 16.5486C8.59332 16.296 9.06455 15.6274 9.06455 14.7599C9.06455 14.505 9.00428 14.2557 8.89057 14.0245C8.73409 14.7085 8.31985 15.58 6.87788 15.58C5.49277 15.58 5.08195 14.6634 4.90046 13.9568C4.76406 14.2064 4.69122 14.4797 4.69122 14.76C4.69122 15.6276 5.16231 16.2961 5.95115 16.5487C6.17747 16.6213 6.33122 16.8316 6.33122 17.0695V23.2428C6.33122 23.4806 6.17747 23.6909 5.95115 23.7636C5.16245 24.0162 4.69122 24.6847 4.69122 25.5523C4.69122 25.8072 4.75149 26.0565 4.8652 26.2877C5.02168 25.6037 5.43592 24.7322 6.87788 24.7322Z" fill="#4C241D"/>
<path d="M26.0252 11.67H12.3929V8.87728C12.3929 7.83891 13.4951 6.95812 15.0039 6.76964C16.1394 6.62784 17.2377 6.36287 18.3052 5.99569C18.7078 5.85721 19.1873 5.85084 19.5996 5.97539C20.8207 6.34405 22.0829 6.62479 23.4081 6.77056C24.9249 6.93736 26.0252 7.83983 26.0252 8.87977V11.67Z" fill="#303F9F"/>
<path d="M26.0112 15.0333H12.3446C12.0427 15.0333 11.7979 14.7886 11.7979 14.4867V10.3496C11.7979 8.55725 13.087 7.01784 14.8628 6.68984C15.9091 6.49686 16.9728 6.128 18.024 5.59377C18.5691 5.31702 19.23 5.30117 19.7922 5.55181C21.071 6.12226 22.2757 6.49427 23.4753 6.68943C25.2615 6.9793 26.558 8.52021 26.558 10.3533V14.4867C26.5579 14.7886 26.3131 15.0333 26.0112 15.0333ZM12.8912 13.94H25.4646V10.3533C25.4646 9.05923 24.5541 7.97232 23.2998 7.76868C22.006 7.55835 20.713 7.15983 19.3468 6.55016C19.082 6.43249 18.773 6.43933 18.5193 6.56834C17.3745 7.15027 16.2109 7.55275 15.0612 7.76499C13.8038 7.99719 12.8911 9.08437 12.8911 10.3496V13.94H12.8912Z" fill="#4C241D"/>
<path d="M26.0112 16.6733C25.9311 16.6733 25.8507 16.6557 25.7763 16.6202C21.0014 14.3478 16.6949 14.3428 12.6093 16.605C12.4398 16.6988 12.2337 16.6957 12.0668 16.5975C11.9 16.4992 11.7977 16.3202 11.7977 16.1267V12.8467C11.7977 12.6417 11.9125 12.4538 12.0951 12.36C16.825 9.9369 21.5915 9.93703 26.2628 12.3614C26.444 12.4554 26.5577 12.6425 26.5577 12.8467V16.1267C26.5577 16.3143 26.4617 16.4886 26.3031 16.589C26.2143 16.645 26.1129 16.6733 26.0112 16.6733ZM18.9193 13.8361C21.036 13.8361 23.2216 14.3172 25.4647 15.2795V13.1822C21.2646 11.098 17.1448 11.0988 12.8913 13.1841V15.2293C14.8261 14.3007 16.8399 13.8361 18.9193 13.8361Z" fill="#4C241D"/>
<path d="M15.0779 32.5267H23.2779V36.9H15.0779V32.5267Z" fill="#303F9F"/>
<path d="M23.2779 37.4467H15.0779C14.776 37.4467 14.5312 37.2019 14.5312 36.9V32.5267C14.5312 32.2248 14.776 31.98 15.0779 31.98H23.2779C23.5798 31.98 23.8246 32.2248 23.8246 32.5267V36.9C23.8246 37.2019 23.5798 37.4467 23.2779 37.4467ZM15.6246 36.3533H22.7313V33.0733H15.6246V36.3533Z" fill="#4C241D"/>
</svg>
