<svg width="34" height="34" viewBox="0 0 34 34" fill="none" xmlns="http://www.w3.org/2000/svg">
<path d="M17.9487 29.5256L17.0376 28.2983L16.1264 29.5256L14.8104 33.4932H17.0376H19.2648L17.9487 29.5256Z" fill="white"/>
<path d="M17.0376 26.2793L14.6752 25.9146L15.0777 27.3552L16.1264 29.5256H17.0376H17.9488L18.9975 27.3552L19.3999 25.9146L17.0376 26.2793Z" fill="white"/>
<path d="M23.9083 14.0504C24.959 14.0504 25.8108 13.1986 25.8108 12.1479C25.8108 11.0972 24.959 10.2454 23.9083 10.2454C22.8576 10.2454 22.0058 11.0972 22.0058 12.1479C22.0058 13.1986 22.8576 14.0504 23.9083 14.0504Z" fill="#FFCDBE"/>
<path d="M10.4024 14.0504C11.4531 14.0504 12.3049 13.1986 12.3049 12.1479C12.3049 11.0972 11.4531 10.2454 10.4024 10.2454C9.35165 10.2454 8.49988 11.0972 8.49988 12.1479C8.49988 13.1986 9.35165 14.0504 10.4024 14.0504Z" fill="#FFCDBE"/>
<path d="M21.3081 4.36264C20.4587 3.87464 19.1762 3.6178 18.2018 3.48576C17.4355 3.3819 16.6598 3.3819 15.8936 3.48576C14.9192 3.6178 13.6367 3.8747 12.7872 4.36264C12.4733 4.54299 12.2292 4.82267 12.0922 5.15776C11.2749 7.15647 8.11904 15.958 14.1646 19.7892C15.9195 20.9013 18.1758 20.9013 19.9306 19.7892C25.9763 15.958 22.8204 7.15654 22.003 5.15776C21.8661 4.82267 21.6221 4.54299 21.3081 4.36264Z" fill="#FFCDBE"/>
<path d="M22.0031 5.15777C21.866 4.82268 21.622 4.54293 21.3081 4.36265C20.4586 3.87464 19.1761 3.6178 18.2018 3.48577C17.4987 3.39049 16.7877 3.38373 16.0834 3.46327C16.1467 3.47043 16.21 3.47719 16.2732 3.48577C17.2476 3.6178 18.5301 3.87471 19.3795 4.36265C19.6935 4.543 19.9375 4.82268 20.0746 5.15777C20.8919 7.15647 24.0477 15.958 18.0021 19.7892C17.4072 20.1661 16.7546 20.4149 16.0834 20.5364C17.3919 20.773 18.7708 20.5242 19.9307 19.7892C25.9763 15.958 22.8204 7.15654 22.0031 5.15777Z" fill="#EBAE9D"/>
<path d="M15.7019 14.3063C15.7019 14.3063 14.0391 14.2704 12.94 15.7466C11.841 17.2228 9.97705 16.2344 9.97705 16.2344C9.97705 16.2344 10.8012 19.4112 15.0793 17.0068C15.3833 16.8359 15.6991 16.6836 16.0334 16.5844C16.5142 16.4417 16.8649 15.9964 16.8649 15.4693C16.8649 14.827 16.3441 14.3063 15.7019 14.3063Z" fill="#61362B"/>
<path d="M18.0278 14.3063C18.0278 14.3063 19.6906 14.2704 20.7897 15.7466C21.8887 17.2228 23.7526 16.2344 23.7526 16.2344C23.7526 16.2344 22.9284 19.4112 18.6504 17.0068C18.3464 16.8359 18.0306 16.6836 17.6962 16.5844C17.2154 16.4417 16.8647 15.9964 16.8647 15.4693C16.8648 14.827 17.3855 14.3063 18.0278 14.3063Z" fill="#61362B"/>
<path d="M16.7298 26.3155L14.6508 28.0183C14.4774 28.1604 14.2167 28.1011 14.1216 27.8981L11.7887 22.9148L13.8222 21.418L16.7298 26.3155Z" fill="#303F9F"/>
<path d="M17.4055 26.3155L19.4865 28.02C19.6592 28.1615 19.9189 28.1033 20.0148 27.9017L22.3434 23.0042L20.3129 21.4179L17.4055 26.3155Z" fill="#303F9F"/>
<path d="M20.7738 12.4119H13.3137C11.806 12.4119 10.5839 11.1898 10.5839 9.6821V9.62068H23.5036V9.6821C23.5036 11.1897 22.2814 12.4119 20.7738 12.4119Z" fill="#62A4FB"/>
<path d="M20.7738 12.4119H13.3137C11.806 12.4119 10.5839 11.1898 10.5839 9.6821V9.62068H23.5036V9.6821C23.5036 11.1897 22.2814 12.4119 20.7738 12.4119Z" fill="#303F9F"/>
<path d="M25.7603 3.15702L24.8423 2.3196C24.3412 1.86248 23.7234 1.5528 23.0573 1.42475L19.6212 0.7641C17.845 0.422592 16.02 0.422592 14.2438 0.7641L11.1723 1.35461C10.2678 1.52854 9.42886 1.94904 8.74834 2.56982L8.10459 3.15695C7.01432 4.15148 6.62361 5.70117 7.11216 7.09369C7.52583 8.27282 8.50961 9.16139 9.72462 9.4533L12.384 10.0923H21.481L24.1404 9.4533C25.3554 9.16139 26.3392 8.27275 26.7529 7.09369C27.2413 5.70117 26.8506 4.15148 25.7603 3.15702Z" fill="#303F9F"/>
<path d="M25.7603 3.15702L24.8423 2.3196C24.3411 1.86248 23.7234 1.5528 23.0573 1.42475L19.6212 0.764101C18.3996 0.529221 17.1549 0.455906 15.9189 0.544087C16.4801 0.584157 17.0394 0.657473 17.5941 0.764101L21.0302 1.42475C21.6963 1.5528 22.314 1.86248 22.8151 2.3196L23.7332 3.15702C24.8235 4.15155 25.2141 5.70124 24.7256 7.09376C24.3119 8.27289 23.3281 9.16146 22.1131 9.45337L19.4538 10.0924H21.4809L24.1403 9.45337C25.3553 9.16146 26.3391 8.27282 26.7527 7.09376C27.2413 5.70117 26.8506 4.15148 25.7603 3.15702Z" fill="#303F9F"/>
<path d="M15.2867 3.46468C15.1718 3.46468 15.066 3.53036 15.0178 3.63469C14.8261 4.04938 14.7165 4.52846 14.7165 5.03904C14.7165 6.61623 15.7602 7.89483 17.0477 7.89483C18.3352 7.89483 19.379 6.61623 19.379 5.03904C19.379 4.52846 19.2693 4.04938 19.0776 3.63469C19.0293 3.53036 18.9236 3.46468 18.8086 3.46468H15.2867Z" fill="#F7D958"/>
<path d="M19.0776 3.63469C19.0293 3.53036 18.9236 3.46468 18.8086 3.46468H16.7815C16.8964 3.46468 17.0022 3.53036 17.0503 3.63469C17.242 4.04938 17.3517 4.52846 17.3517 5.03904C17.3517 6.1712 16.8138 7.14944 16.0341 7.61136C16.3406 7.79293 16.6844 7.89476 17.0476 7.89476C18.3352 7.89476 19.3789 6.61616 19.3789 5.03897C19.3789 4.5284 19.2693 4.04938 19.0776 3.63469Z" fill="#F3C625"/>
<path d="M21.4764 9.62068V9.6821C21.4764 11.1898 20.2542 12.4119 18.7466 12.4119H20.7737C22.2814 12.4119 23.5036 11.1898 23.5036 9.6821V9.62068H21.4764Z" fill="#303F9F"/>
<path d="M28.9076 26.239C28.5047 25.2994 27.7282 24.5455 26.777 24.1704L22.5012 22.4843L20.7137 21.0879V19.8651C21.2925 19.4367 21.8023 18.9461 22.2322 18.3993C22.2559 18.3691 22.2753 18.337 22.2911 18.3038C22.4137 18.2701 22.5333 18.2295 22.649 18.1803C23.8964 17.6492 24.2297 16.4139 24.2433 16.3616C24.2936 16.1679 24.2242 15.9631 24.0675 15.8384C23.9342 15.7322 23.7577 15.7026 23.5987 15.7528C23.7169 15.3693 23.8135 14.9706 23.8864 14.5561C23.8937 14.5564 23.9009 14.5571 23.9083 14.5571C25.2367 14.5571 26.3175 13.4763 26.3175 12.1479C26.3175 11.0646 25.5989 10.1463 24.6133 9.84407C25.8349 9.43547 26.7993 8.49203 27.231 7.26148C27.7878 5.67421 27.3446 3.91613 26.1019 2.78254L25.1838 1.94519C24.6134 1.42489 23.9111 1.07284 23.153 0.927088L19.7168 0.266438C17.8692 -0.0887872 15.9955 -0.0887872 14.148 0.266438L11.0765 0.856948C10.0798 1.04858 9.15659 1.51145 8.40675 2.19541L7.76306 2.78254C6.52028 3.91613 6.07707 5.67421 6.63393 7.26148C7.09383 8.57217 8.15781 9.55737 9.49351 9.91719C8.6144 10.2767 7.99314 11.1409 7.99314 12.1479C7.99314 13.4109 8.97016 14.4492 10.2079 14.5486C10.2917 15.0266 10.4059 15.4841 10.5499 15.9207C10.3461 15.8543 10.2158 15.7874 10.2145 15.7867C10.0369 15.6926 9.82056 15.7122 9.66298 15.8367C9.50533 15.9612 9.43607 16.1672 9.48655 16.3616C9.50013 16.4139 9.83333 17.6492 11.0808 18.1803C11.3317 18.287 11.599 18.3564 11.8817 18.39C11.9003 18.4348 11.9255 18.4777 11.9578 18.5172C12.3423 18.9867 12.788 19.4137 13.2864 19.7936V21.1831L11.5413 22.4676L7.22296 24.1704C6.27188 24.5454 5.49528 25.2994 5.09235 26.239C4.18425 28.3567 3.72382 30.5987 3.72382 32.9028C3.72382 33.5078 4.21601 34 4.82098 34H11.7887C12.0685 34 12.2954 33.7731 12.2954 33.4932C12.2954 33.2133 12.0685 32.9864 11.7887 32.9864H8.87881C8.89178 32.4444 8.97962 31.6415 9.12652 31.0074C9.1897 30.7347 9.01983 30.4625 8.74718 30.3993C8.47459 30.3362 8.20228 30.506 8.1391 30.7786C7.98179 31.4579 7.87746 32.3369 7.86503 32.9864H4.82098C4.7749 32.9864 4.73739 32.9489 4.73739 32.9028C4.73739 30.7368 5.17026 28.6292 6.02396 26.6385C6.32101 25.9458 6.89354 25.3898 7.59487 25.1133L11.5316 23.561L13.6626 28.113C13.7747 28.3524 13.9868 28.5233 14.2446 28.5818C14.308 28.5962 14.3718 28.6033 14.435 28.6033C14.6291 28.6033 14.8178 28.5367 14.972 28.4104L15.0098 28.3794L15.5808 29.5611L14.4446 32.9864H13.8159C13.536 32.9864 13.3091 33.2133 13.3091 33.4932C13.3091 33.7731 13.536 34 13.8159 34H29.1791C29.7841 34 30.2763 33.5078 30.2763 32.9028C30.2762 30.5987 29.8157 28.3567 28.9076 26.239ZM18.0636 26.1996L20.4547 22.1718L21.7113 23.1534L19.6464 27.496L18.0636 26.1996ZM17.0676 25.8919L14.2998 21.2297V20.4516C15.1562 20.9021 16.1017 21.1279 17.0476 21.1279C17.9584 21.1279 18.8692 20.9183 19.7001 20.5006V21.4574L17.0676 25.8919ZM19.6594 19.3611C18.0728 20.3665 16.0224 20.3665 14.4359 19.3611C13.9557 19.0568 13.5231 18.7079 13.1429 18.3207C13.8093 18.1827 14.5388 17.8919 15.3275 17.4485C15.6518 17.2663 15.9219 17.146 16.1776 17.0701C16.4415 16.9918 16.6755 16.8501 16.8649 16.6649C17.0543 16.8501 17.2882 16.9918 17.5521 17.0701C17.8078 17.146 18.0778 17.2663 18.4021 17.4485C19.316 17.9622 20.1499 18.2706 20.8984 18.3742C20.5312 18.7401 20.1173 19.0709 19.6594 19.3611ZM11.6624 16.0184C11.2075 14.8633 11.0041 13.515 11.0546 11.9967C11.6382 12.5665 12.4355 12.9187 13.3137 12.9187H20.7738C21.6561 12.9187 22.4568 12.5634 23.0412 11.9888C23.093 13.5252 22.8846 14.8873 22.42 16.0511C21.9039 16.054 21.502 15.8545 21.1962 15.4439C19.9807 13.8112 18.1715 13.7982 18.024 13.7995C17.5737 13.8005 17.1649 13.981 16.8649 14.2727C16.5648 13.981 16.1562 13.8005 15.7059 13.7995C15.5575 13.7976 13.749 13.8114 12.5336 15.4439C12.3012 15.756 12.0135 15.9461 11.6624 16.0184ZM22.2403 17.2526C21.4449 17.5843 20.2893 17.3465 18.8988 16.565C18.5068 16.3447 18.1706 16.1964 17.8406 16.0985C17.5645 16.0165 17.3717 15.7578 17.3717 15.4692C17.3717 15.1074 17.6661 14.813 18.0279 14.813C18.0309 14.813 18.0356 14.8129 18.0418 14.813C18.1534 14.813 19.4824 14.8393 20.3833 16.0492C20.9974 16.8741 21.8338 17.0978 22.5824 17.0607C22.4823 17.1333 22.3688 17.1991 22.2403 17.2526ZM25.304 12.1479C25.304 12.8805 24.7362 13.4819 24.0177 13.538C24.0897 12.6818 24.0754 11.7694 23.9736 10.805C23.9719 10.7881 23.9692 10.7714 23.9658 10.7551C24.7086 10.7856 25.304 11.3977 25.304 12.1479ZM7.59035 6.92591C7.16829 5.72293 7.50419 4.39055 8.44608 3.53137L9.08977 2.94424C9.70156 2.38623 10.4547 2.00864 11.2679 1.85228L14.3394 1.26177C16.0599 0.930872 17.8048 0.930872 19.5254 1.26177L22.9616 1.92242C23.5362 2.0329 24.0684 2.29974 24.5007 2.69402L25.4187 3.53137C26.3606 4.39048 26.6965 5.72293 26.2745 6.92591C25.9162 7.94713 25.0741 8.70772 24.0218 8.96057L23.384 9.11389H16.0001C15.7203 9.11389 15.4933 9.3408 15.4933 9.62068C15.4933 9.90056 15.7203 10.1275 16.0001 10.1275H22.952C22.7452 11.1406 21.8471 11.9051 20.7738 11.9051H13.3137C12.2404 11.9051 11.3423 11.1406 11.1354 10.1275H13.973C14.2529 10.1275 14.4798 9.90056 14.4798 9.62068C14.4798 9.3408 14.2529 9.11389 13.973 9.11389C13.973 9.11389 10.5324 9.11646 10.5074 9.12024L9.84299 8.96057C8.79069 8.70772 7.94861 7.94713 7.59035 6.92591ZM9.00665 12.1479C9.00665 11.473 9.48817 10.9087 10.1256 10.7799C10.0229 11.7405 10.0062 12.6498 10.0756 13.5034C9.46337 13.3556 9.00665 12.8047 9.00665 12.1479ZM11.1473 17.0607C11.8963 17.0976 12.7324 16.874 13.3465 16.0493C14.2474 14.8393 15.5764 14.813 15.688 14.813C15.6955 14.813 15.6978 14.813 15.7019 14.813C16.0637 14.813 16.3581 15.1074 16.3581 15.4692C16.3581 15.7578 16.1652 16.0165 15.8892 16.0985C15.5591 16.1964 15.2229 16.3447 14.8309 16.565C13.4403 17.3465 12.2848 17.5842 11.4894 17.2526C11.3609 17.1991 11.2473 17.1333 11.1473 17.0607ZM12.4392 23.1093C12.4555 23.0855 12.4693 23.0603 12.4813 23.0342L13.6719 22.1578L16.0714 26.1996L14.4917 27.4935L12.4392 23.1093ZM17.0508 26.7076C17.0567 26.7028 17.062 26.6975 17.0676 26.6925C17.0732 26.6975 17.0784 26.7028 17.0843 26.7076L18.276 27.6836L17.6308 29.0188H16.4444L15.8162 27.7188L17.0508 26.7076ZM16.4923 30.0324H17.5829L18.5628 32.9864H15.5124L16.4923 30.0324ZM29.179 32.9864H26.135C26.1225 32.3368 26.0182 31.4579 25.8609 30.7786C25.7977 30.506 25.5255 30.3362 25.2528 30.3993C24.9802 30.4625 24.8103 30.7347 24.8735 31.0074C25.0203 31.6415 25.1082 32.4443 25.1212 32.9864H19.6306L18.4945 29.5611L19.0825 28.3442L19.1653 28.4121C19.3195 28.5384 19.5082 28.605 19.7023 28.605C19.7647 28.605 19.8277 28.5981 19.8902 28.5841C20.1472 28.5265 20.3593 28.3571 20.4724 28.1193L22.6127 23.6179L26.4052 25.1133C27.1064 25.3898 27.679 25.9457 27.976 26.6385C28.8297 28.6292 29.2626 30.7368 29.2626 32.9028C29.2627 32.9489 29.2252 32.9864 29.179 32.9864Z" fill="black"/>
<path d="M23.5559 29.9828H20.5178C20.2378 29.9828 20.011 30.2097 20.011 30.4896C20.011 30.7695 20.2378 30.9964 20.5178 30.9964H23.5559C23.8359 30.9964 24.0627 30.7695 24.0627 30.4896C24.0627 30.2097 23.8358 29.9828 23.5559 29.9828Z" fill="black"/>
<path d="M17.0477 8.40155C18.6126 8.40155 19.8858 6.89314 19.8858 5.03897C19.8858 4.4738 19.7654 3.91464 19.5376 3.42198C19.4072 3.14007 19.1212 2.95782 18.8087 2.95782H15.2867C14.9743 2.95782 14.6882 3.14 14.5578 3.42198C14.3301 3.91464 14.2097 4.47373 14.2097 5.03897C14.2097 6.89314 15.4828 8.40155 17.0477 8.40155ZM15.4244 3.97147H18.6711C18.803 4.30095 18.8722 4.66712 18.8722 5.03904C18.8722 6.33425 18.0538 7.38804 17.0478 7.38804C16.0418 7.38804 15.2234 6.33425 15.2234 5.03904C15.2233 4.66705 15.2926 4.30082 15.4244 3.97147Z" fill="black"/>
</svg>
