<svg width="36" height="36" viewBox="0 0 36 36" fill="none" xmlns="http://www.w3.org/2000/svg">
<path d="M31.0309 17.8762C29.898 16.7428 28.1408 16.5184 26.7593 17.3284L23.8759 19.0187L23.7386 19.1227C24.7118 20.4373 25.3125 22.2199 25.3125 24.1875C25.3125 25.2765 25.1213 26.3042 24.7928 27.2329C26.356 27.0726 27.7526 26.8622 28.9581 26.6192L31.5788 22.1484C32.3893 20.7658 32.1638 19.0091 31.0309 17.8762Z" fill="#303F9F"/>
<path d="M4.84875 27.8617L3.85425 28.3888C5.42306 31.3487 8.47237 33.1875 11.8125 33.1875H12.375V32.0625H11.8125C8.88975 32.0625 6.22181 30.4526 4.84875 27.8617Z" fill="black"/>
<path d="M35.4375 12.6562V11.25L33.9671 6.26512C33.7781 5.63512 33.2561 5.18625 32.625 5.08444V2.25C32.625 1.31962 31.8679 0.5625 30.9375 0.5625H11.8125C10.8821 0.5625 10.125 1.31962 10.125 2.25V5.08444C9.49387 5.18625 8.97188 5.63512 8.78288 6.26512L7.33612 11.0886L7.3125 12.6562C7.3125 13.5321 7.75969 14.3044 8.4375 14.7589V18.3189H9.5625V15.1588C9.65588 15.1695 9.74756 15.1875 9.84375 15.1875H10.4062C11.2056 15.1875 11.9109 14.8078 12.375 14.2279C12.8391 14.8078 13.5444 15.1875 14.3438 15.1875H14.9062C15.7056 15.1875 16.4109 14.8078 16.875 14.2279C17.3391 14.8078 18.0444 15.1875 18.8438 15.1875H19.4062C20.2056 15.1875 20.9109 14.8078 21.375 14.2279C21.8391 14.8078 22.5444 15.1875 23.3438 15.1875H23.9062C24.7056 15.1875 25.4109 14.8078 25.875 14.2279C26.3391 14.8078 27.0444 15.1875 27.8438 15.1875H28.4062C29.2056 15.1875 29.9109 14.8078 30.375 14.2279C30.8391 14.8078 31.5444 15.1875 32.3438 15.1875H32.9062C33.0024 15.1875 33.0941 15.1695 33.1875 15.1588V21.8587C32.805 21.6872 32.3859 21.5207 31.9061 21.3643C31.8268 21.6332 31.7256 21.8976 31.5788 22.1473L31.4342 22.3937C33.5486 23.0653 34.3125 23.7701 34.3125 24.1875C34.3125 24.9705 32.3944 25.9251 28.9581 26.6186C28.9575 26.6186 28.9575 26.6186 28.9569 26.6186C28.656 26.6794 28.3433 26.7379 28.0193 26.7941C28.0181 26.7941 28.0176 26.7947 28.0164 26.7947C27.2199 26.9336 26.3469 27.0562 25.4171 27.1631C25.7175 26.2238 25.875 25.2113 25.875 24.1875C25.875 19.845 23.0991 16.3125 19.6875 16.3125C17.8875 16.3125 16.182 17.3025 15.0081 19.0282L15.9379 19.6611C16.8992 18.2481 18.2661 17.4375 19.6875 17.4375C22.4786 17.4375 24.75 20.4654 24.75 24.1875C24.75 25.2731 24.5436 26.3357 24.1689 27.2919C22.3234 27.4613 20.2641 27.5625 18 27.5625C7.89356 27.5625 1.6875 25.5966 1.6875 24.1875C1.6875 23.7386 2.56612 22.9618 5.04338 22.2491L4.73231 21.168C1.96537 21.9639 0.5625 22.9798 0.5625 24.1875C0.5625 30.3908 5.60925 35.4375 11.8125 35.4375H24.1875C30.3908 35.4375 35.4375 30.3908 35.4375 24.1875C35.4375 23.5659 35.0511 22.9972 34.3125 22.4814V14.7589C34.9903 14.3044 35.4375 13.5321 35.4375 12.6562ZM24.1875 34.3125H11.8125C6.85069 34.3125 2.71969 30.7226 1.85962 26.0055C4.61081 27.7717 11.3344 28.6875 18 28.6875C24.6656 28.6875 31.3892 27.7717 34.1404 26.0055C33.2803 30.7226 29.1493 34.3125 24.1875 34.3125ZM11.8125 12.6562C11.8125 13.4314 11.1814 14.0625 10.4062 14.0625H9.84375C9.06863 14.0625 8.4375 13.4314 8.4375 12.6562V11.8125H11.8125V12.6562ZM11.9137 10.6875H8.631L9.86063 6.58856C9.93263 6.34894 10.1492 6.1875 10.3995 6.1875H12.8138L11.9137 10.6875ZM16.3125 12.6562C16.3125 13.4314 15.6814 14.0625 14.9062 14.0625H14.3438C13.5686 14.0625 12.9375 13.4314 12.9375 12.6562V11.8125H16.3125V12.6562ZM16.4137 10.6875H13.0612L13.9613 6.1875H17.3138L16.4137 10.6875ZM20.8125 12.6562C20.8125 13.4314 20.1814 14.0625 19.4062 14.0625H18.8438C18.0686 14.0625 17.4375 13.4314 17.4375 12.6562V11.8125H20.8125V12.6562ZM20.8125 10.6875H17.5612L18.4613 6.1875H20.8125V10.6875ZM11.25 5.0625V2.25C11.25 1.94006 11.5026 1.6875 11.8125 1.6875H30.9375C31.2474 1.6875 31.5 1.94006 31.5 2.25V5.0625H11.25ZM25.1887 10.6875H21.9375V6.1875H24.2887L25.1887 10.6875ZM25.3125 12.6562C25.3125 13.4314 24.6814 14.0625 23.9062 14.0625H23.3438C22.5686 14.0625 21.9375 13.4314 21.9375 12.6562V11.8125H25.3125V12.6562ZM25.4346 6.1875H28.7887L29.6887 10.6875H26.3261L25.4346 6.1875ZM29.8125 12.6562C29.8125 13.4314 29.1814 14.0625 28.4062 14.0625H27.8438C27.0686 14.0625 26.4375 13.4314 26.4375 12.6562V11.8125H29.8125V12.6562ZM29.9363 6.1875H32.3505C32.6008 6.1875 32.8174 6.34894 32.8894 6.588L34.119 10.6875H30.8261L29.9363 6.1875ZM32.9062 14.0625H32.3438C31.5686 14.0625 30.9375 13.4314 30.9375 12.6562V11.8125H34.3125V12.6562C34.3125 13.4314 33.6814 14.0625 32.9062 14.0625Z" fill="black"/>
<path d="M12.375 2.8125H13.5V3.9375H12.375V2.8125Z" fill="black"/>
<path d="M14.625 2.8125H28.125V3.9375H14.625V2.8125Z" fill="black"/>
<path d="M29.25 2.8125H30.375V3.9375H29.25V2.8125Z" fill="black"/>
<path d="M13.5 32.0625H14.625V33.1875H13.5V32.0625Z" fill="black"/>
<path d="M19.6875 18.5625V19.6875C20.7056 19.6875 21.6861 20.664 22.1839 22.1749L23.2521 21.8222C22.5996 19.8422 21.2001 18.5625 19.6875 18.5625Z" fill="black"/>
<path d="M23.6249 24.1875C23.6249 23.7808 23.5929 23.373 23.5304 22.9747L22.4189 23.1502C22.4729 23.4906 22.4999 23.8393 22.4999 24.1875H23.6249Z" fill="black"/>
<path d="M18 27.5625C18.2694 27.5625 18.5344 27.5603 18.7976 27.5574C19.0136 26.8329 19.125 26.0814 19.125 25.3125C19.125 20.97 15.5925 17.4375 11.25 17.4375C6.9075 17.4375 3.375 20.97 3.375 25.3125C3.375 25.3991 3.38175 25.4858 3.38456 25.5724C5.877 26.6203 11.0025 27.5625 18 27.5625Z" fill="#303F9F"/>
<path d="M13.5 20.25H12.375C12.375 20.4795 11.9368 20.8125 11.25 20.8125C10.5632 20.8125 10.125 20.4795 10.125 20.25H9C9 21.1961 9.98831 21.9375 11.25 21.9375C12.5117 21.9375 13.5 21.1961 13.5 20.25Z" fill="black"/>
</svg>
