<svg width="36" height="36" viewBox="0 0 36 36" fill="none" xmlns="http://www.w3.org/2000/svg">
<path d="M14.5 31C21.4036 31 27 25.6274 27 19C27 12.3726 21.4036 7 14.5 7C7.59644 7 2 12.3726 2 19C2 25.6274 7.59644 31 14.5 31Z" fill="#759DFD"/>
<path d="M13.6337 23.625C13.5425 23.625 13.4527 23.6028 13.372 23.5604C13.2913 23.518 13.2222 23.4566 13.1705 23.3815C13.1188 23.3064 13.0861 23.2199 13.0753 23.1294C13.0644 23.0389 13.0758 22.9471 13.1083 22.8619L14.8244 18.3619C14.8501 18.292 14.8894 18.2279 14.94 18.1734C14.9906 18.1188 15.0516 18.0748 15.1193 18.044C15.1871 18.0131 15.2603 17.9961 15.3347 17.9937C15.4091 17.9914 15.4832 18.0038 15.5528 18.0304C15.6223 18.0569 15.6859 18.0969 15.7399 18.1482C15.7938 18.1995 15.8371 18.261 15.8671 18.3291C15.8971 18.3972 15.9133 18.4706 15.9148 18.5451C15.9162 18.6195 15.9029 18.6935 15.8755 18.7627L14.1594 23.2627C14.1188 23.3692 14.0468 23.461 13.9529 23.5257C13.859 23.5904 13.7477 23.625 13.6337 23.625Z" fill="#3775A4"/>
<path d="M14.0626 29.4609V34.3125H12.9376V29.4609C12.9376 29.3118 12.9968 29.1687 13.1023 29.0632C13.2078 28.9577 13.3509 28.8984 13.5001 28.8984C13.6492 28.8984 13.7923 28.9577 13.8978 29.0632C14.0033 29.1687 14.0626 29.3118 14.0626 29.4609Z" fill="#3775A4"/>
<path d="M21.4626 28.125L27.0876 27.5625V25.875H21.5372L21.4626 28.125Z" fill="#F6BB92"/>
<path d="M4.50047 10.125C4.37367 10.1252 4.25055 10.0825 4.15107 10.0039C4.05158 9.92524 3.98157 9.81533 3.9524 9.69194C3.92322 9.56855 3.93659 9.43892 3.99033 9.32408C4.04407 9.20924 4.13504 9.11593 4.24847 9.05927L5.06255 8.65238V6.75H3.37505V8.4375C3.37504 8.54196 3.34595 8.64435 3.29104 8.7332C3.23612 8.82206 3.15755 8.89387 3.06412 8.94059L1.93912 9.50309C1.80586 9.56843 1.65217 9.57846 1.51154 9.53099C1.37091 9.48351 1.25475 9.38238 1.18837 9.24962C1.12198 9.11687 1.11076 8.96326 1.15713 8.82227C1.20351 8.68128 1.30374 8.56433 1.43597 8.49691L2.25005 8.08988V6.1875C2.25005 6.03832 2.30931 5.89524 2.4148 5.78975C2.52029 5.68426 2.66336 5.625 2.81255 5.625H5.62505C5.77423 5.625 5.9173 5.68426 6.02279 5.78975C6.12828 5.89524 6.18755 6.03832 6.18755 6.1875V9C6.18754 9.10446 6.15845 9.20685 6.10354 9.2957C6.04862 9.38456 5.97005 9.45637 5.87662 9.50309L4.75162 10.0656C4.67367 10.1047 4.58767 10.125 4.50047 10.125Z" fill="#AAE5C8"/>
<path d="M25.8751 6.18749C25.7642 6.18742 25.6559 6.15462 25.5637 6.09321C25.4715 6.0318 25.3994 5.94452 25.3566 5.84232C25.3138 5.74011 25.3021 5.62754 25.3231 5.51873C25.344 5.40991 25.3966 5.30971 25.4743 5.23068L26.1124 4.58163L25.4954 2.78205C25.447 2.64094 25.4566 2.48639 25.5222 2.35239C25.5878 2.2184 25.7039 2.11593 25.845 2.06753L28.5054 1.15544C28.6466 1.10706 28.8011 1.11671 28.9351 1.18227C29.0691 1.24783 29.1716 1.36393 29.22 1.50503L30.1318 4.16552C30.1656 4.2643 30.1713 4.37056 30.1482 4.47239C30.1251 4.57422 30.074 4.6676 30.0009 4.74208L29.1191 5.63906C29.0674 5.69173 29.0057 5.7337 28.9377 5.76255C28.8697 5.7914 28.7967 5.80657 28.7228 5.8072C28.6489 5.80783 28.5757 5.7939 28.5072 5.76622C28.4387 5.73853 28.3763 5.69763 28.3237 5.64584C28.271 5.59406 28.229 5.5324 28.2002 5.4644C28.1713 5.39639 28.1561 5.32337 28.1555 5.24951C28.1549 5.17564 28.1688 5.10237 28.1965 5.03389C28.2242 4.9654 28.2651 4.90304 28.3169 4.85036L28.9549 4.20138L28.3379 2.4018L26.7418 2.94904L27.2891 4.54514C27.323 4.64392 27.3286 4.75018 27.3055 4.85201C27.2824 4.95383 27.2314 5.04722 27.1582 5.1217L26.2762 6.01931C26.2239 6.07264 26.1615 6.11499 26.0926 6.14387C26.0237 6.17275 25.9497 6.18758 25.8751 6.18749Z" fill="#C0F5F9"/>
<path d="M30.3755 14.0625C30.2487 14.0627 30.1256 14.02 30.0261 13.9414C29.9266 13.8628 29.8566 13.7528 29.8274 13.6294C29.7982 13.5061 29.8116 13.3764 29.8653 13.2616C29.9191 13.1467 30.0101 13.0534 30.1235 12.9968L30.9376 12.5899V11.25C30.9376 11.1456 30.9667 11.0432 31.0216 10.9543C31.0765 10.8655 31.1551 10.7936 31.2485 10.7469L32.3735 10.1844C32.4396 10.1507 32.5118 10.1304 32.5858 10.1247C32.6598 10.119 32.7342 10.128 32.8047 10.1512C32.8753 10.1744 32.9405 10.2113 32.9967 10.2599C33.0529 10.3084 33.0989 10.3676 33.1321 10.434C33.1653 10.5004 33.185 10.5727 33.1901 10.6467C33.1953 10.7208 33.1857 10.7951 33.1619 10.8655C33.1382 10.9358 33.1007 11.0008 33.0518 11.0566C33.0028 11.1124 32.9433 11.1579 32.8766 11.1906L32.0626 11.5976V12.9375C32.0626 13.042 32.0335 13.1444 31.9786 13.2332C31.9236 13.3221 31.8451 13.3939 31.7516 13.4406L30.6266 14.0031C30.5487 14.0422 30.4627 14.0625 30.3755 14.0625Z" fill="#F55648"/>
<path d="M14.1501 21.9375C13.2053 21.9364 12.2919 22.2764 11.578 22.8951C10.8467 22.1493 9.90268 21.6479 8.87525 21.4598C7.84781 21.2716 6.78734 21.406 5.83927 21.8444C4.89121 22.2828 4.10199 23.0037 3.57986 23.9084C3.05773 24.813 2.82827 25.857 2.92294 26.8973C3.01761 27.9375 3.43178 28.9229 4.10864 29.7185C4.78551 30.514 5.69192 31.0806 6.70354 31.3407C7.71517 31.6007 8.78247 31.5414 9.75907 31.1709C10.7357 30.8004 11.5737 30.1368 12.1583 29.2712C12.6802 29.5774 13.2657 29.7592 13.8693 29.8024C14.4729 29.8457 15.0784 29.7492 15.6387 29.5205C16.1989 29.2919 16.699 28.9371 17.0999 28.4839C17.5009 28.0306 17.792 27.491 17.9506 26.907C18.1092 26.323 18.1311 25.7103 18.0145 25.1165C17.8979 24.5227 17.646 23.9637 17.2784 23.483C16.9108 23.0024 16.4373 22.6129 15.8948 22.3448C15.3523 22.0768 14.7552 21.9374 14.1501 21.9375Z" fill="#303F9F"/>
<path d="M14.1501 14.625L12.3751 15.75L15.3497 19.125L14.1501 14.625Z" fill="#303F9F"/>
<path d="M16.875 14.625L15.3497 19.125L18.5625 17.4375L16.875 14.625Z" fill="#303F9F"/>
<path d="M18.0005 24.75C17.915 24.7499 17.8306 24.7304 17.7538 24.6929C17.677 24.6554 17.6097 24.6009 17.557 24.5336C17.5044 24.4662 17.4678 24.3877 17.45 24.3041C17.4322 24.2205 17.4337 24.1339 17.4544 24.0509L18.0169 21.8009C18.0539 21.6572 18.1463 21.5338 18.2739 21.4579C18.4015 21.3819 18.5539 21.3595 18.698 21.3955C18.842 21.4316 18.966 21.5231 19.0429 21.6501C19.1197 21.7772 19.1432 21.9294 19.1082 22.0738L18.5457 24.3238C18.5154 24.4454 18.4452 24.5534 18.3464 24.6307C18.2476 24.7079 18.1259 24.7499 18.0005 24.75Z" fill="#3775A4"/>
<path d="M22.4161 12.0812L28.0158 14.7171L27.0573 16.7533L21.4576 14.1174L22.4161 12.0812Z" fill="#C3C3C3"/>
<path d="M21.938 14.7786C22.87 14.7786 23.6255 14.023 23.6255 13.0911C23.6255 12.1591 22.87 11.4036 21.938 11.4036C21.006 11.4036 20.2505 12.1591 20.2505 13.0911C20.2505 14.023 21.006 14.7786 21.938 14.7786Z" fill="#EA9D2D"/>
<path d="M17.5254 12.375V15.75L15.3499 19.125L14.1504 14.625V12.375H17.5254Z" fill="#F6BB92"/>
<path d="M17.5254 12.9375V13.758C17.3287 14.0103 17.0805 14.2178 16.7973 14.3666C16.5141 14.5154 16.2024 14.6022 15.883 14.6211C15.5637 14.64 15.244 14.5906 14.9452 14.4762C14.6464 14.3618 14.3755 14.1851 14.1504 13.9577V12.9375H17.5254Z" fill="#EEB58E"/>
<path d="M18.0001 8.92969L11.8126 10.6875V8.85938C11.8126 8.00157 12.1533 7.17889 12.7599 6.57233C13.3664 5.96576 14.1891 5.625 15.0469 5.625H18.2813C18.6543 5.625 19.012 5.77316 19.2757 6.03688C19.5394 6.3006 19.6876 6.65829 19.6876 7.03125C19.6876 7.40421 19.5394 7.7619 19.2757 8.02562C19.012 8.28934 18.6543 8.4375 18.2813 8.4375H18.0001V8.92969Z" fill="#834B10"/>
<path d="M13.5001 11.8125H12.9376C12.6392 11.8125 12.353 11.694 12.1421 11.483C11.9311 11.272 11.8126 10.9859 11.8126 10.6875C11.8126 10.3891 11.9311 10.103 12.1421 9.89201C12.353 9.68103 12.6392 9.5625 12.9376 9.5625H13.5001V11.8125Z" fill="#F6BB92"/>
<path d="M9 28.6875C10.2426 28.6875 11.25 27.6801 11.25 26.4375C11.25 25.1949 10.2426 24.1875 9 24.1875C7.75736 24.1875 6.75 25.1949 6.75 26.4375C6.75 27.6801 7.75736 28.6875 9 28.6875Z" fill="#D18D28"/>
<path d="M34.3682 24.75L31.9004 25.875L29.8126 25.1862L12.3751 27.0773L12.3071 24.8379L29.8126 22.924L31.3379 21.9375L34.1504 22.5105L34.3682 24.75Z" fill="#303F9F"/>
<path d="M9.65045 24.1875L7.96295 22.5L6.54475 21.0818L4.52748 22.2637C4.24488 22.4759 3.90521 22.5986 3.55225 22.616L7.96295 25.5066L8.52545 25.875L9.52522 27.3746C9.56374 27.4324 9.61594 27.4798 9.67717 27.5126C9.7384 27.5453 9.80677 27.5625 9.87622 27.5625H12.0411C12.153 27.5625 12.2603 27.518 12.3394 27.4389C12.4185 27.3598 12.4629 27.2525 12.4629 27.1406V25.0959C12.463 24.9983 12.4292 24.9038 12.3673 24.8284C12.3055 24.753 12.2195 24.7013 12.1238 24.6821L9.65045 24.1875Z" fill="#F6BB92"/>
<path d="M24.2751 27.6104V25.7736C24.2751 25.6436 24.3202 25.5176 24.4026 25.417C24.485 25.3165 24.5998 25.2476 24.7273 25.2221L26.4148 24.8846C26.4964 24.8683 26.5806 24.8702 26.6613 24.8904C26.7421 24.9106 26.8173 24.9484 26.8817 25.0011C26.946 25.0539 26.9979 25.1203 27.0335 25.1955C27.0691 25.2707 27.0876 25.3529 27.0876 25.4361V27.2166C27.0876 27.3142 27.0538 27.4087 26.992 27.4841C26.9302 27.5595 26.8441 27.6112 26.7485 27.6304L24.7797 28.0241C24.7185 28.0364 24.6553 28.0349 24.5948 28.0197C24.5342 28.0046 24.4778 27.9763 24.4295 27.9367C24.3812 27.8971 24.3423 27.8473 24.3156 27.7909C24.2889 27.7345 24.2751 27.6728 24.2751 27.6104Z" fill="#F6BB92"/>
<path d="M23.743 34.3163L23.625 16.8788C23.6246 16.8112 23.6363 16.744 23.6597 16.6806L24.9027 13.3056L25.9583 13.6944L24.7507 16.9734L24.868 34.3087L23.743 34.3163Z" fill="#3775A4"/>
<path d="M15.7501 14.0625C15.1533 14.0625 14.581 13.8254 14.1591 13.4035C13.7371 12.9815 13.5001 12.4092 13.5001 11.8125V8.4375H18.0001V11.8125C18.0001 12.4092 17.763 12.9815 17.3411 13.4035C16.9191 13.8254 16.3468 14.0625 15.7501 14.0625Z" fill="#F6BB92"/>
<path d="M4.24847 9.05941C4.18181 9.0921 4.12229 9.13765 4.07332 9.19346C4.02436 9.24926 3.98692 9.3142 3.96318 9.38453C3.93943 9.45487 3.92984 9.52921 3.93496 9.60327C3.94009 9.67733 3.95982 9.74965 3.99302 9.81605C4.02623 9.88244 4.07224 9.94161 4.12842 9.99014C4.18461 10.0387 4.24984 10.0756 4.32036 10.0988C4.39088 10.122 4.46529 10.131 4.53931 10.1253C4.61333 10.1196 4.68549 10.0993 4.75162 10.0656L5.87662 9.50309C5.97005 9.45637 6.04862 9.38456 6.10354 9.2957C6.15845 9.20685 6.18754 9.10445 6.18755 9V6.1875C6.18755 6.03832 6.12828 5.89524 6.02279 5.78975C5.9173 5.68426 5.77423 5.625 5.62505 5.625H2.81255C2.66336 5.625 2.52029 5.68426 2.4148 5.78975C2.30931 5.89524 2.25005 6.03832 2.25005 6.1875V8.08987L1.43597 8.49691C1.30374 8.56433 1.20351 8.68128 1.15713 8.82227C1.11076 8.96326 1.12198 9.11687 1.18837 9.24962C1.25475 9.38238 1.37091 9.48351 1.51154 9.53098C1.65217 9.57846 1.80586 9.56843 1.93912 9.50309L3.06412 8.94059C3.15755 8.89387 3.23612 8.82206 3.29104 8.7332C3.34595 8.64435 3.37504 8.54196 3.37505 8.4375V6.75H5.06255V8.65237L4.24847 9.05941Z" fill="black"/>
<path d="M28.3236 5.64609C28.3763 5.69787 28.4387 5.73876 28.5072 5.76642C28.5757 5.79409 28.6489 5.808 28.7228 5.80734C28.7967 5.80669 28.8697 5.79149 28.9377 5.76262C29.0057 5.73374 29.0673 5.69176 29.1191 5.63906L30.0008 4.74208C30.074 4.6676 30.125 4.57422 30.1482 4.47239C30.1713 4.37056 30.1656 4.2643 30.1318 4.16552L29.2196 1.50503C29.1712 1.36393 29.0687 1.24783 28.9347 1.18227C28.8007 1.11671 28.6462 1.10706 28.5051 1.15544L25.8446 2.06753C25.7036 2.116 25.5875 2.2185 25.522 2.35249C25.4566 2.48647 25.447 2.64099 25.4954 2.78205L26.1123 4.58163L25.4743 5.23068C25.4219 5.28323 25.3804 5.34562 25.3522 5.41427C25.324 5.48292 25.3097 5.55647 25.3101 5.63068C25.3104 5.70489 25.3255 5.77829 25.3543 5.84666C25.3832 5.91502 25.4253 5.977 25.4782 6.02902C25.5312 6.08105 25.5938 6.12208 25.6627 6.14977C25.7316 6.17745 25.8052 6.19124 25.8794 6.19034C25.9536 6.18944 26.0269 6.17386 26.0951 6.1445C26.1632 6.11515 26.2249 6.0726 26.2765 6.01931L27.1583 5.1224C27.2315 5.04792 27.2825 4.95454 27.3056 4.85271C27.3288 4.75088 27.3231 4.64462 27.2892 4.54584L26.7419 2.94974L28.338 2.4025L28.9547 4.20159L28.3167 4.85057C28.2649 4.90326 28.224 4.96563 28.1963 5.03412C28.1687 5.10261 28.1547 5.17589 28.1554 5.24976C28.156 5.32363 28.1712 5.39665 28.2001 5.46465C28.2289 5.53266 28.2709 5.59431 28.3236 5.64609Z" fill="black"/>
<path d="M30.3754 14.0625C30.4627 14.0625 30.5487 14.0421 30.6266 14.003L31.7516 13.4405C31.845 13.3937 31.9236 13.322 31.9785 13.2331C32.0334 13.1443 32.0625 13.0419 32.0625 12.9375V11.5976L32.8766 11.1906C32.9433 11.1579 33.0028 11.1124 33.0518 11.0566C33.1007 11.0008 33.1381 10.9358 33.1619 10.8655C33.1856 10.7951 33.1952 10.7208 33.1901 10.6467C33.185 10.5727 33.1653 10.5004 33.132 10.434C33.0988 10.3676 33.0528 10.3084 32.9966 10.2599C32.9405 10.2113 32.8752 10.1744 32.8047 10.1512C32.7342 10.128 32.6598 10.119 32.5858 10.1247C32.5117 10.1304 32.4396 10.1507 32.3734 10.1844L31.2484 10.7469C31.155 10.7936 31.0764 10.8655 31.0215 10.9543C30.9666 11.0432 30.9375 11.1456 30.9375 11.25V12.5899L30.1234 12.9969C30.0101 13.0536 29.9192 13.1469 29.8655 13.2617C29.8118 13.3765 29.7985 13.5061 29.8277 13.6295C29.8568 13.7528 29.9268 13.8627 30.0262 13.9413C30.1256 14.0199 30.2487 14.0626 30.3754 14.0625Z" fill="black"/>
<path d="M34.2625 21.9594L31.45 21.3863C31.3057 21.3568 31.1557 21.3851 31.0322 21.4652L29.6189 22.3793L24.7909 22.907L24.7507 16.9734L24.9687 16.3815L26.8183 17.2517C26.8851 17.2832 26.9575 17.3013 27.0313 17.3048C27.1051 17.3083 27.1788 17.2972 27.2483 17.2722C27.3178 17.2471 27.3817 17.2087 27.4364 17.1589C27.491 17.1092 27.5353 17.0492 27.5667 16.9823L28.525 14.9468C28.5564 14.8799 28.5744 14.8075 28.5779 14.7337C28.5814 14.6599 28.5703 14.5862 28.5453 14.5167C28.5202 14.4471 28.4818 14.3832 28.432 14.3286C28.3823 14.274 28.3223 14.2297 28.2555 14.1982L24.0031 12.1977C23.8326 11.8019 23.5522 11.4633 23.195 11.2221C22.8379 10.9809 22.4191 10.8472 21.9883 10.8368C21.5575 10.8264 21.1327 10.9398 20.7644 11.1635C20.3961 11.3873 20.0997 11.7119 19.9103 12.099C19.721 12.4862 19.6466 12.9195 19.696 13.3475C19.7455 13.7756 19.9167 14.1806 20.1893 14.5143C20.462 14.8481 20.8246 15.0966 21.2342 15.2305C21.6439 15.3643 22.0833 15.3779 22.5004 15.2696C22.5225 15.2639 22.5441 15.2572 22.5659 15.2509L23.9469 15.9007L23.6597 16.6805C23.6363 16.744 23.6246 16.8111 23.625 16.8787L23.6667 23.0299L22.5734 23.1494L22.5372 20.6201C22.5258 19.7243 22.2695 18.8487 21.7962 18.0881C21.3228 17.3274 20.6504 16.7108 19.8517 16.3049L18.3525 15.5403L18.3481 15.538L18.088 15.4057V13.3737C18.3979 12.912 18.5631 12.3685 18.5625 11.8125V8.98017C19.0557 8.90965 19.5038 8.65479 19.8165 8.26696C20.1292 7.87913 20.2832 7.38718 20.2475 6.89028C20.2119 6.39337 19.9891 5.92847 19.6242 5.58928C19.2594 5.2501 18.7795 5.06186 18.2813 5.0625H15.0469C14.0403 5.06366 13.0752 5.46405 12.3634 6.17586C11.6516 6.88766 11.2512 7.85274 11.25 8.85938V10.6875C11.2505 11.1349 11.4285 11.5638 11.7449 11.8802C12.0612 12.1965 12.4901 12.3745 12.9375 12.375H12.9941C13.087 12.8291 13.291 13.253 13.5879 13.6089V14.0625H12.0249C10.3681 14.0623 8.74374 14.5221 7.33278 15.3905L2.47362 18.3808C2.10264 18.6089 1.80303 18.9365 1.60878 19.3262L1.3726 19.7986C1.19712 20.1485 1.11247 20.537 1.12642 20.9282C1.14038 21.3194 1.2525 21.7009 1.45247 22.0374C1.65244 22.374 1.93383 22.6548 2.27076 22.8541C2.60769 23.0534 2.98933 23.1648 3.38058 23.178C2.80943 23.9803 2.45898 24.9184 2.36428 25.8986C2.26959 26.8788 2.43397 27.8667 2.84099 28.7634C3.248 29.6601 3.88337 30.4342 4.68353 31.0083C5.48368 31.5823 6.42056 31.9362 7.40042 32.0344V34.3125C7.40042 34.4617 7.45968 34.6048 7.56517 34.7103C7.67066 34.8157 7.81373 34.875 7.96292 34.875H18C18.0778 34.875 18.1548 34.8589 18.2261 34.8276C18.2973 34.7964 18.3613 34.7506 18.414 34.6934C18.4667 34.6361 18.5069 34.5686 18.5322 34.4949C18.5574 34.4213 18.5671 34.3433 18.5606 34.2657L18.0483 28.1221C18.1916 27.8744 18.3107 27.6135 18.4039 27.3429L18.526 27.7703C18.6026 28.0342 18.7625 28.2661 18.9819 28.4314C19.2013 28.5967 19.4684 28.6866 19.7431 28.6875H21.4629C21.4817 28.6875 21.5005 28.6866 21.5192 28.6847H21.5217L23.7035 28.4667L23.7431 34.3167L24.8681 34.3091L24.8293 28.5851C24.8496 28.5824 24.8698 28.5801 24.89 28.5761L27.1441 28.1226C27.2828 28.1087 27.4115 28.0437 27.505 27.9403C27.5986 27.8369 27.6504 27.7024 27.6503 27.5629V25.9884L29.7522 25.7584C29.7522 25.7584 31.8408 26.4375 31.9001 26.4375C31.9806 26.4375 32.0602 26.4202 32.1335 26.3868L34.6014 25.2618C34.7081 25.2132 34.7969 25.1325 34.8554 25.031C34.9139 24.9295 34.9393 24.8122 34.928 24.6956L34.71 22.4561C34.6984 22.3364 34.6486 22.2235 34.568 22.1341C34.4875 22.0447 34.3804 21.9835 34.2625 21.9594ZM25.7491 14.2624L27.2672 14.9766L26.788 15.9943L25.3587 15.3217L25.7491 14.2624ZM22.2194 14.1803C22.004 14.236 21.7769 14.2265 21.5668 14.1531C21.3568 14.0796 21.1732 13.9456 21.0394 13.7678C20.9056 13.5901 20.8274 13.3766 20.8149 13.1545C20.8024 12.9323 20.856 12.7114 20.969 12.5198C21.082 12.3281 21.2493 12.1742 21.4497 12.0776C21.6502 11.981 21.8747 11.946 22.0951 11.9771C22.3154 12.0081 22.5216 12.1038 22.6875 12.252C22.8535 12.4003 22.9717 12.5944 23.0274 12.8098C23.0655 12.9529 23.0748 13.1021 23.0547 13.2488C23.0345 13.3955 22.9854 13.5368 22.9102 13.6643C22.835 13.7919 22.7352 13.9032 22.6165 13.9918C22.4979 14.0804 22.3628 14.1445 22.2191 14.1803H22.2194ZM18.8177 18.5549C18.8974 18.5416 18.9733 18.5113 19.0403 18.4661C19.1072 18.4208 19.1636 18.3617 19.2057 18.2927C19.2477 18.2236 19.2744 18.1464 19.2839 18.0661C19.2933 17.9859 19.2854 17.9045 19.2607 17.8276L19.044 17.1563L19.3406 17.3075C19.9568 17.6206 20.4755 18.0964 20.8407 18.6832C21.2059 19.27 21.4036 19.9455 21.4124 20.6367L21.4501 23.2726L18.7344 23.5695L19.1082 22.0743C19.1432 21.93 19.1197 21.7777 19.0428 21.6506C18.966 21.5236 18.842 21.4321 18.698 21.3961C18.5539 21.36 18.4015 21.3825 18.2739 21.4584C18.1463 21.5343 18.0539 21.6577 18.0168 21.8015L17.6919 23.1011C16.9902 22.2083 15.9782 21.6124 14.8571 21.4318L15.7599 19.0644L18.8177 18.5549ZM8.99356 25.5631C8.95232 25.5013 8.89927 25.4482 8.83746 25.407L4.83289 22.7371C4.83436 22.7361 4.83584 22.7352 4.83732 22.7341L6.4545 21.7868L9.25294 24.5852C9.33149 24.6637 9.43146 24.7172 9.54031 24.739L11.9007 25.2115V27H9.95072L8.99356 25.5631ZM9.49791 28.0484C9.19444 28.1425 8.87057 28.1489 8.56361 28.0669C8.25665 27.985 7.9791 27.8179 7.76294 27.5851C7.54678 27.3522 7.4008 27.0631 7.34182 26.7509C7.28284 26.4387 7.31327 26.1162 7.4296 25.8205L8.11971 26.2806L9.0574 27.6881C9.16558 27.8489 9.31881 27.9743 9.49791 28.0484ZM9.92773 23.6694L8.2024 21.944C9.32783 22.0004 10.3902 22.4808 11.1757 23.2887C11.2758 23.391 11.4112 23.4512 11.5542 23.4572C11.6971 23.4632 11.837 23.4145 11.9453 23.3209C12.2898 23.0232 12.691 22.7983 13.1248 22.6598C13.5585 22.5213 14.0158 22.4721 14.4691 22.5151C14.9224 22.5581 15.3622 22.6924 15.7622 22.91C16.1622 23.1276 16.5139 23.4239 16.7963 23.7811L12.5372 24.2466C12.4432 24.1914 12.3406 24.1523 12.2337 24.1309L9.92773 23.6694ZM17.4375 11.8125C17.4375 12.2601 17.2597 12.6893 16.9433 13.0057C16.6268 13.3222 16.1976 13.5 15.75 13.5C15.3025 13.5 14.8733 13.3222 14.5568 13.0057C14.2403 12.6893 14.0625 12.2601 14.0625 11.8125V9H17.4375V11.8125ZM17.6525 16.5051L17.99 17.5523L16.673 17.7718L17.6525 16.5051ZM14.7129 14.426C15.0729 14.5693 15.4587 14.6365 15.8459 14.6234C16.2332 14.6103 16.6135 14.5171 16.9629 14.3497V15.5578L15.5707 17.3578L14.7129 14.5415V14.426ZM12.9375 11.25C12.7883 11.25 12.6453 11.1907 12.5398 11.0853C12.4343 10.9798 12.375 10.8367 12.375 10.6875C12.375 10.5383 12.4343 10.3952 12.5398 10.2898C12.6453 10.1843 12.7883 10.125 12.9375 10.125V11.25ZM13.5 7.875C13.3508 7.875 13.2078 7.93427 13.1023 8.03975C12.9968 8.14524 12.9375 8.28832 12.9375 8.4375V9C12.7459 8.99993 12.5556 9.03265 12.375 9.09675V8.85938C12.3758 8.151 12.6576 7.47186 13.1585 6.97096C13.6594 6.47006 14.3385 6.1883 15.0469 6.1875H18.2813C18.5051 6.1875 18.7197 6.2764 18.8779 6.43463C19.0361 6.59286 19.125 6.80748 19.125 7.03125C19.125 7.25503 19.0361 7.46964 18.8779 7.62787C18.7197 7.78611 18.5051 7.875 18.2813 7.875H13.5ZM13.8499 15.5698L14.3533 17.2221L12.9369 16.2779L13.8499 15.5698ZM2.73518 21.8137C2.50799 21.6435 2.3478 21.3988 2.2826 21.1225C2.21739 20.8462 2.2513 20.5558 2.37842 20.302L2.61495 19.829C2.71578 19.6268 7.92235 16.3485 7.92235 16.3485C9.15604 15.5893 10.5763 15.1873 12.0249 15.1875H12.5072L11.6297 15.8681C11.5593 15.9227 11.5028 15.9934 11.465 16.0742C11.4272 16.1549 11.4092 16.2435 11.4124 16.3327C11.4156 16.4218 11.4399 16.5089 11.4834 16.5868C11.5269 16.6646 11.5883 16.731 11.6625 16.7805L14.664 18.7815L13.6647 21.4017C12.9291 21.4817 12.2246 21.7418 11.6135 22.1589C10.6056 21.2929 9.32134 20.8156 7.99245 20.8131L9.86818 19.5967C9.93036 19.5566 9.98403 19.5047 10.0261 19.4438C10.0682 19.3829 10.0978 19.3143 10.1133 19.242C10.1289 19.1697 10.13 19.095 10.1166 19.0222C10.1032 18.9494 10.0756 18.88 10.0353 18.8179C9.99503 18.7558 9.94292 18.7023 9.88193 18.6604C9.82095 18.6185 9.7523 18.589 9.67991 18.5737C9.60752 18.5584 9.53282 18.5575 9.46009 18.571C9.38735 18.5846 9.31801 18.6124 9.25604 18.6529C9.25604 18.6529 3.79894 22.0293 3.57268 22.0505H3.57071C3.27243 22.0783 2.9745 21.9939 2.73518 21.8137ZM3.46292 26.4375C3.46219 25.4747 3.77139 24.5372 4.34478 23.7637L6.48087 25.188C6.16904 25.8162 6.10322 26.5382 6.29634 27.2124C6.48947 27.8866 6.92758 28.4643 7.52471 28.8322C8.12184 29.2 8.83488 29.3314 9.52389 29.2005C10.2129 29.0697 10.8282 28.6861 11.2489 28.125H12.041C12.2199 28.1248 12.3953 28.076 12.5485 27.9836C12.7017 27.8913 12.8268 27.759 12.9105 27.601L17.2863 27.1224C17.1066 27.5743 16.8314 27.982 16.4795 28.3176C16.1276 28.6533 15.7072 28.9088 15.2473 29.0669C14.7874 29.2249 14.2988 29.2817 13.8149 29.2332C13.331 29.1848 12.8633 29.0323 12.4438 28.7863C12.3205 28.7137 12.1742 28.6909 12.0347 28.7223C11.8951 28.7538 11.7728 28.8373 11.6926 28.9557C11.1535 29.7544 10.3722 30.3589 9.46375 30.6803C8.55529 31.0017 7.56766 31.023 6.64621 30.741C5.72476 30.4591 4.91815 29.8888 4.3451 29.1141C3.77205 28.3393 3.46282 27.4011 3.46292 26.4375ZM12.9375 33.75H8.52542V32.0339C9.2624 31.9601 9.97753 31.7414 10.6297 31.3903C11.2819 31.0393 11.8583 30.5628 12.3258 29.9883C12.5242 30.076 12.7286 30.1493 12.9375 30.2075V33.75ZM14.0625 33.75V30.3727C14.0918 30.3733 14.1211 30.375 14.1504 30.375C15.1987 30.3774 16.2145 30.012 17.0211 29.3425L17.3887 33.75H14.0625ZM20.9188 27.5625H19.7431C19.7125 27.5624 19.6828 27.5525 19.6584 27.5341C19.634 27.5158 19.6161 27.4901 19.6075 27.4608L19.4435 26.8864L20.9468 26.722L20.9188 27.5625ZM13.0254 26.4567V25.3247L23.6742 24.1608L23.6819 25.2911L13.0254 26.4567ZM22.0465 27.5013L22.0765 26.5985L23.6896 26.422L23.6958 27.3367L22.0465 27.5013ZM24.3372 14.8411L23.6688 14.5266C23.9116 14.2332 24.0765 13.8833 24.1482 13.5093L24.7274 13.7817L24.3372 14.8411ZM26.5251 27.1013L24.8376 27.4388V25.795C24.8376 25.7912 24.8376 25.7874 24.8376 25.7836V25.7737L26.5251 25.4362V27.1013ZM31.8673 25.2718L29.9889 24.6516C29.9124 24.6262 29.8314 24.6177 29.7514 24.6265L27.4982 24.8731C27.381 24.6692 27.2027 24.5073 26.9885 24.4104C26.7742 24.3134 26.5349 24.2862 26.3044 24.3327L24.8026 24.6331L24.7985 24.0377L29.8737 23.4828C29.9608 23.4734 30.0445 23.4437 30.118 23.396L31.4503 22.5342L33.6306 22.9785L33.7693 24.4045L31.8673 25.2718Z" fill="black"/>
</svg>
