<svg width="36" height="36" viewBox="0 0 36 36" fill="none" xmlns="http://www.w3.org/2000/svg">
<g clip-path="url(#clip0)">
<path d="M0.528198 30.4899V17.2509L2.88725 15.3835L6.60502 21.2237C8.08489 23.5485 9.1959 26.0884 9.89853 28.7531L10.3092 30.3104C10.4269 30.757 10.0901 31.1941 9.62825 31.1941H1.23238C0.843479 31.1941 0.528198 30.8788 0.528198 30.4899Z" fill="#303E9F"/>
<path d="M35.4718 30.4899V17.2509L33.1127 15.3835L29.395 21.2237C27.9151 23.5485 26.8041 26.0884 26.1015 28.7531L25.6908 30.3104C25.5731 30.757 25.9099 31.1941 26.3717 31.1941H34.7676C35.1565 31.1941 35.4718 30.8788 35.4718 30.4899Z" fill="#303E9F"/>
<path d="M10.3092 30.3104L9.89853 28.7531C9.1959 26.0883 8.08489 23.5485 6.60502 21.2237L2.88725 15.3835L1.31921 16.6247L2.71843 18.8227C4.1983 21.1475 5.3093 23.6874 6.01194 26.3521L6.42256 27.9093C6.54033 28.356 6.20347 28.7931 5.74165 28.7931H0.528198V30.4899C0.528198 30.8788 0.843479 31.1941 1.23238 31.1941H9.62825C10.0901 31.1941 10.4269 30.757 10.3092 30.3104Z" fill="#303E9F"/>
<path d="M33.1127 15.3835L33.0708 15.4493V28.0889C33.0708 28.4778 32.7556 28.7931 32.3667 28.7931H26.0909L25.6908 30.3103C25.5731 30.7569 25.9099 31.1941 26.3717 31.1941H34.7676C35.1565 31.1941 35.4718 30.8788 35.4718 30.4899V17.2509L33.1127 15.3835Z" fill="#303E9F"/>
<path d="M19.0029 34.7504H17.0055C16.6172 34.7504 16.3024 34.4356 16.3024 34.0473V26.0503H19.706V34.0472C19.706 34.4355 19.3911 34.7504 19.0029 34.7504Z" fill="#759DFD"/>
<path d="M18.2403 26.0503V34.0462C18.2403 34.4351 17.925 34.7503 17.5361 34.7503H19.0017C19.3906 34.7503 19.7059 34.4351 19.7059 34.0462V26.0503H18.2403Z" fill="#759DFD"/>
<path d="M19.7708 27.7529H16.2375C15.6162 27.7529 15.1125 27.2492 15.1125 26.6279V23.5724H20.8958V26.6279C20.8958 27.2492 20.3921 27.7529 19.7708 27.7529Z" fill="#759DFD"/>
<path d="M19.1156 23.5724V26.6261C19.1156 27.2484 18.6112 27.7529 17.9889 27.7529H19.7691C20.3913 27.7529 20.8958 27.2485 20.8958 26.6261V23.5724H19.1156Z" fill="#759DFD"/>
<path d="M20.1674 24.396H15.747C13.883 24.396 12.372 22.885 12.372 21.021V10.8726C12.372 9.00863 13.883 7.49762 15.747 7.49762H20.1674C22.0314 7.49762 23.5424 9.00863 23.5424 10.8726V21.021C23.5424 22.885 22.0313 24.396 20.1674 24.396Z" fill="#759DFD"/>
<path d="M21.0191 7.60745C21.0799 7.86114 21.113 8.12558 21.113 8.3979V18.536C21.113 20.4028 19.5996 21.9162 17.7328 21.9162H13.3227C13.0266 21.9162 12.7396 21.8779 12.4659 21.8063C12.8219 23.2917 14.1577 24.3961 15.7521 24.3961H20.1622C22.029 24.3961 23.5424 22.8828 23.5424 21.0159V10.8778C23.5425 9.30704 22.4709 7.98679 21.0191 7.60745Z" fill="#759DFD"/>
<path d="M11.6597 1.2496H1.23238C0.84348 1.2496 0.528198 1.56488 0.528198 1.95378V19.3149L1.76837 18.7125C6.37539 16.4748 9.76016 12.3181 11.0181 7.35322L12.3423 2.12675C12.455 1.68181 12.1187 1.2496 11.6597 1.2496Z" fill="#303E9F"/>
<path d="M24.3404 1.2496H34.7677C35.1566 1.2496 35.4718 1.56488 35.4718 1.95378V19.3149L34.2317 18.7125C29.6246 16.4748 26.2399 12.3181 24.9819 7.35322L23.6577 2.12675C23.545 1.68181 23.8813 1.2496 24.3404 1.2496Z" fill="#303E9F"/>
<path d="M11.6597 1.2496H9.77408L8.61709 5.81605C7.46741 10.3537 4.54044 14.2154 0.528198 16.5549V19.315L1.76837 18.7126C6.37539 16.4749 9.76016 12.3182 11.0181 7.35336L12.3423 2.12689C12.455 1.68181 12.1187 1.2496 11.6597 1.2496Z" fill="#303E9F"/>
<path d="M34.7676 1.2496H33.0709V14.2443C33.0709 14.8816 32.4039 15.2991 31.8307 15.0207C29.6358 13.9546 27.7193 12.4522 26.1771 10.6351C27.8621 14.1272 30.6838 16.9892 34.2316 18.7125L35.4718 19.3149V1.95385C35.4718 1.56488 35.1565 1.2496 34.7676 1.2496Z" fill="#303E9F"/>
<path d="M20.1623 6.96942H15.7522C13.5971 6.96942 11.8439 8.72266 11.8439 10.8777V21.0158C11.8439 22.7643 12.998 24.2481 14.5844 24.7458V26.6261C14.5844 27.3772 15.0875 28.0125 15.7742 28.214V34.0461C15.7742 34.7256 16.3271 35.2785 17.0066 35.2785H19.0018C19.6813 35.2785 20.2341 34.7256 20.2341 34.0461V28.214C20.9209 28.0125 21.424 27.3771 21.424 26.6261V24.714C22.9616 24.1879 24.0706 22.7294 24.0706 21.0158V10.8777C24.0706 8.72266 22.3173 6.96942 20.1623 6.96942ZM19.0018 34.2222H17.0066C16.9095 34.2222 16.8305 34.1432 16.8305 34.0461V28.281H19.1778V34.0461C19.1778 34.1432 19.0989 34.2222 19.0018 34.2222ZM23.0143 12.461H19.6905C19.3988 12.461 19.1623 12.6974 19.1623 12.9892C19.1623 13.2808 19.3987 13.5173 19.6905 13.5173H23.0143V14.8553H19.6905C19.3988 14.8553 19.1623 15.0918 19.1623 15.3835C19.1623 15.6752 19.3987 15.9117 19.6905 15.9117H23.0143V17.2497H19.6905C19.3988 17.2497 19.1623 17.4861 19.1623 17.7779C19.1623 18.0696 19.3987 18.306 19.6905 18.306H23.0143V19.644H19.6905C19.3988 19.644 19.1623 19.8805 19.1623 20.1722C19.1623 20.4639 19.3987 20.7004 19.6905 20.7004H23.0143V21.016C23.0143 22.5886 21.7349 23.868 20.1623 23.868H18.4078C18.1161 23.868 17.8796 24.1045 17.8796 24.3962C17.8796 24.6879 18.116 24.9244 18.4078 24.9244H20.1623C20.2312 24.9244 20.2996 24.9225 20.3677 24.919V26.6264C20.3677 26.9565 20.0991 27.225 19.7691 27.225H16.2392C15.9092 27.225 15.6407 26.9565 15.6407 26.6264V24.9216C15.6778 24.9227 15.7148 24.9244 15.7522 24.9244C16.0439 24.9244 16.2804 24.688 16.2804 24.3962C16.2804 24.1046 16.0439 23.868 15.7522 23.868C14.1796 23.868 12.9002 22.5886 12.9002 21.016V20.7004H16.224C16.5156 20.7004 16.7522 20.4639 16.7522 20.1722C16.7522 19.8806 16.5157 19.644 16.224 19.644H12.9002V18.306H16.224C16.5156 18.306 16.7522 18.0695 16.7522 17.7779C16.7522 17.4862 16.5157 17.2497 16.224 17.2497H12.9002V15.9117H16.224C16.5156 15.9117 16.7522 15.6752 16.7522 15.3835C16.7522 15.0919 16.5157 14.8553 16.224 14.8553H12.9002V13.5173H16.224C16.5156 13.5173 16.7522 13.2809 16.7522 12.9892C16.7522 12.6975 16.5157 12.461 16.224 12.461H12.9002V10.8777C12.9002 9.55284 13.8083 8.43621 15.0348 8.1172V9.43528C15.0348 9.72694 15.2713 9.96347 15.563 9.96347C15.8546 9.96347 16.0912 9.72701 16.0912 9.43528V8.02573H17.4292V9.43528C17.4292 9.72694 17.6657 9.96347 17.9574 9.96347C18.2491 9.96347 18.4856 9.72701 18.4856 9.43528V8.02573H19.8236V9.43528C19.8236 9.72694 20.06 9.96347 20.3518 9.96347C20.6434 9.96347 20.8799 9.72701 20.8799 9.43528V8.1172C22.1064 8.43614 23.0146 9.55284 23.0146 10.8777V12.461H23.0143Z" fill="black"/>
<path d="M11.1126 4.82962C11.041 5.11242 11.2121 5.39972 11.4949 5.4713C11.7776 5.54287 12.0649 5.3718 12.1366 5.08908L12.8542 2.25647C12.9483 1.88529 12.8673 1.49913 12.6322 1.19693C12.397 0.894725 12.0426 0.721405 11.6596 0.721405H1.23237C0.552867 0.721475 0 1.27427 0 1.95384V30.49C0 31.1695 0.552867 31.7223 1.23237 31.7223H9.62824C10.0135 31.7223 10.3693 31.5473 10.6045 31.2422C10.8396 30.9369 10.9181 30.5483 10.8199 30.1758L10.4093 28.6185C9.6918 25.8974 8.56174 23.314 7.05059 20.9402L4.83926 17.4664C8.12981 15.0307 10.506 11.5249 11.5301 7.48301C11.6017 7.20028 11.4306 6.91298 11.1478 6.84133C10.8649 6.7699 10.5777 6.94083 10.5061 7.22362C9.28364 12.0485 6.01481 16.0629 1.53766 18.2375L1.05638 18.4712V1.95384C1.05638 1.85674 1.13534 1.77778 1.23244 1.77778H11.6597C11.7346 1.77778 11.7789 1.82032 11.7986 1.8457C11.8184 1.87101 11.8488 1.92445 11.8304 1.99708L11.1126 4.82962ZM2.09123 19.1413L2.84941 22.5107C2.99348 23.1841 4.03966 22.9431 3.87991 22.2788L3.05817 18.6272C3.36881 18.4499 3.6732 18.264 3.97104 18.0696L6.15945 21.5074C7.61196 23.7892 8.69815 26.2723 9.38777 28.8878L9.7984 30.4451C9.81759 30.5179 9.78736 30.5719 9.7676 30.5975C9.74784 30.6231 9.70348 30.6661 9.6281 30.6661H1.23237C1.13527 30.6661 1.0563 30.5871 1.0563 30.49V19.6455C1.0563 19.6455 2.06037 19.1565 2.09123 19.1413Z" fill="black"/>
<path d="M34.7676 0.721985H24.3404C23.9574 0.721985 23.603 0.895305 23.3678 1.19751C23.1327 1.49971 23.0517 1.88587 23.1458 2.25705L24.4699 7.48359C25.494 11.5254 27.8703 15.0313 31.1608 17.467L28.9495 20.9408C28.3379 21.9015 27.7813 22.9109 27.2952 23.9407C26.9948 24.5547 27.9632 25.0172 28.2505 24.3916C28.7177 23.4016 29.2526 22.4315 29.8405 21.508L32.0289 18.0702C32.3025 18.2487 32.5815 18.4201 32.8659 18.5842L32.0344 22.2793C31.8747 22.944 32.9209 23.1842 33.0649 22.5112L33.8318 19.1031C33.8882 19.1313 34.9436 19.6461 34.9436 19.6461V30.4905C34.9436 30.5876 34.8647 30.6666 34.7676 30.6666H26.3718C26.2965 30.6666 26.2521 30.6236 26.2324 30.598C26.2126 30.5724 26.1824 30.5185 26.2016 30.4456L26.6122 28.8883C26.8111 28.1344 27.0465 27.3804 27.312 26.6475C27.4113 26.3733 27.2695 26.0704 26.9953 25.9711C26.7211 25.8717 26.4182 26.0135 26.3188 26.2878C26.0426 27.0502 25.7977 27.8346 25.5909 28.619L25.1802 30.1763C25.0819 30.5488 25.1605 30.9375 25.3957 31.2427C25.6308 31.5478 25.9866 31.7228 26.3719 31.7228H34.7678C35.4473 31.7228 36.0001 31.17 36.0001 30.4905V1.95435C36 1.27478 35.4471 0.721985 34.7676 0.721985ZM34.4624 18.238C29.9853 16.0633 26.7164 12.0489 25.4939 7.22413L24.1697 1.99759C24.1513 1.92503 24.1817 1.87159 24.2014 1.84628C24.2212 1.8209 24.2655 1.77836 24.3404 1.77836H34.7676C34.8647 1.77836 34.9437 1.85732 34.9437 1.95442V18.4552V18.4719L34.4624 18.238Z" fill="black"/>
</g>
<defs>
<clipPath id="clip0">
<rect width="36" height="36" fill="white"/>
</clipPath>
</defs>
</svg>
