<svg width="36" height="46" viewBox="0 0 36 46" fill="none" xmlns="http://www.w3.org/2000/svg">
<g clip-path="url(#clip0)">
<path d="M7.875 38.0675C6.94462 38.0675 6.1875 37.1228 6.1875 35.9619C6.1875 34.801 6.94462 33.8563 7.875 33.8563C8.80538 33.8563 9.5625 34.801 9.5625 35.9619C9.5625 37.1228 8.80538 38.0675 7.875 38.0675Z" fill="#303E9F"/>
<path d="M27 12.0984H32.625V16.3096H27V12.0984Z" fill="#759DFD"/>
<path d="M11.25 7.88715H15.75V16.3096H11.25V7.88715Z" fill="#759DFD"/>
<path d="M18 7.88715H24.75V16.3096H18V7.88715Z" fill="#303E9F"/>
<path d="M33.75 14.2039C34.6804 14.2039 35.4375 13.2592 35.4375 12.0983V6.48336C35.4375 5.32247 34.6804 4.37775 33.75 4.37775C33.4974 4.37775 33.2601 4.45215 33.0452 4.57638C32.6284 2.83996 31.338 1.57028 29.8125 1.57028C27.9512 1.57028 26.4375 3.45901 26.4375 5.78149V15.6076H25.3125V7.68566L22.653 2.37603C22.4004 1.87138 21.9645 1.57028 21.4875 1.57028H21.2625C20.7855 1.57028 20.3496 1.87138 20.097 2.37532L17.4375 7.68566V15.6076H16.3125V7.75935L14.787 2.68344C14.5873 2.01807 14.0698 1.57028 13.5 1.57028C12.9302 1.57028 12.4127 2.01807 12.213 2.68274L10.6875 7.75935V15.6076H10.125C9.19462 15.6076 8.4375 16.5524 8.4375 17.7132V19.117C8.4375 20.0434 8.92294 20.8232 9.59062 21.104L9.73744 24.0301H2.25C1.31962 24.0301 0.5625 24.9748 0.5625 26.1357V32.8862L1.6875 33.5881V35.5281L0.5625 36.2299V42.9805C0.5625 44.1414 1.31962 45.0861 2.25 45.0861H11.25C11.9824 45.0861 12.6011 44.4972 12.834 43.6824H12.8357H31.0399C32.2251 43.6824 33.2117 42.5264 33.2854 41.0504L34.2844 21.104C34.9521 20.8232 35.4375 20.0434 35.4375 19.117V17.7132C35.4375 16.5524 34.6804 15.6076 33.75 15.6076H33.1875V14.0748C33.3641 14.1534 33.552 14.2039 33.75 14.2039ZM33.75 5.78149C34.0599 5.78149 34.3125 6.09593 34.3125 6.48336V12.0983C34.3125 12.4857 34.0599 12.8002 33.75 12.8002C33.4401 12.8002 33.1875 12.4857 33.1875 12.0983V6.48336C33.1875 6.09593 33.4401 5.78149 33.75 5.78149ZM18.5625 8.08853L21.051 3.12001C21.0966 3.02876 21.1759 2.97402 21.2625 2.97402H21.4875C21.5741 2.97402 21.6529 3.02876 21.6984 3.12001L24.1875 8.08853V15.6076H21.9375V7.88709H20.8125V15.6076H18.5625V8.08853ZM11.8125 8.01483L13.2666 3.17545C13.3391 2.93401 13.6603 2.93331 13.7329 3.17616L15.1875 8.01483V15.6076H11.8125V8.01483ZM10.7235 21.2226H12.7041L14.9541 24.0301L12.9375 26.547V26.1357C12.9375 24.9748 12.1804 24.0301 11.25 24.0301H10.8641L10.7235 21.2226ZM11.8125 35.5281V33.5881L12.9375 32.8862V29.2337L14.9546 31.7506L11.889 35.5758L11.8125 35.5281ZM18.8921 21.2226L21.1421 24.0301L18.8437 26.8979L16.5454 24.0301L18.7954 21.2226H18.8921ZM25.0796 21.2226L27.3296 24.0301L25.0312 26.8979L22.7329 24.0301L24.9829 21.2226H25.0796ZM13.4516 35.6109L15.75 32.743L18.0484 35.6109L15.75 38.4787L13.4516 35.6109ZM14.9546 39.4712L12.9375 41.9881V36.9543L14.9546 39.4712ZM16.5454 31.7506L18.8437 28.8828L21.1421 31.7506L18.8437 34.6184L16.5454 31.7506ZM21.9375 32.743L24.2359 35.6109L21.9375 38.4787L19.6391 35.6109L21.9375 32.743ZM22.7329 31.7506L25.0312 28.8828L27.3296 31.7506L25.0312 34.6184L22.7329 31.7506ZM25.8266 27.8903L28.125 25.0225L30.4234 27.8903L28.125 30.7582L25.8266 27.8903ZM24.2359 27.8903L21.9375 30.7582L19.6391 27.8903L21.9375 25.0225L24.2359 27.8903ZM18.0484 27.8903L15.75 30.7582L13.4516 27.8903L15.75 25.0225L18.0484 27.8903ZM15.75 40.4636L17.2046 42.2786H14.2954L15.75 40.4636ZM18.7954 42.2786L16.5454 39.4712L18.8437 36.6033L21.1421 39.4712L18.8921 42.2786H18.7954ZM21.9375 40.4636L23.3921 42.2786H20.4829L21.9375 40.4636ZM25.0796 42.2786H24.9829L22.7329 39.4712L25.0312 36.6033L27.3296 39.4712L25.0796 42.2786ZM28.125 40.4636L29.5796 42.2786H26.6704L28.125 40.4636ZM25.8266 35.6109L28.125 32.743L30.4234 35.6109L28.125 38.4787L25.8266 35.6109ZM28.9204 31.7506L31.2187 28.8828L32.6762 30.7013L32.4056 36.1001L28.9204 31.7506ZM32.0141 27.8903L32.8702 26.8221L32.7696 28.8336L32.0141 27.8903ZM32.9766 24.7046L31.2187 26.8979L28.9204 24.0301L31.1704 21.2226H33.1509L32.9766 24.7046ZM28.125 23.0376L26.6704 21.2226H29.5796L28.125 23.0376ZM21.9375 23.0376L20.4829 21.2226H23.3921L21.9375 23.0376ZM15.75 23.0376L14.2954 21.2226H17.2046L15.75 23.0376ZM11.8125 42.9805C11.8125 43.3679 11.5599 43.6824 11.25 43.6824H8.4375V37.9383C8.26087 38.0169 8.073 38.0674 7.875 38.0674C7.677 38.0674 7.48912 38.0169 7.3125 37.9383V43.6824H5.0625V28.2413H7.3125V33.9854C7.48912 33.9067 7.677 33.8562 7.875 33.8562C8.073 33.8562 8.26087 33.9067 8.4375 33.9854V26.8375H3.9375V43.6824H2.25C1.94006 43.6824 1.6875 43.3679 1.6875 42.9805V37.0974L2.19037 36.7837C2.574 36.5451 2.8125 36.0643 2.8125 35.5281V33.5881C2.8125 33.0519 2.574 32.5711 2.19094 32.3325L1.6875 32.0187V26.1357C1.6875 25.7482 1.94006 25.4338 2.25 25.4338H11.25C11.5599 25.4338 11.8125 25.7482 11.8125 26.1357V32.0187L11.3096 32.3325C10.926 32.5711 10.6875 33.0519 10.6875 33.5881V35.5281C10.6875 36.0643 10.926 36.5451 11.3091 36.7837L11.8125 37.0974V42.9805ZM31.1586 42.2639L28.9204 39.4712L31.2187 36.6033L32.3122 37.9678L32.1621 40.9626C32.1283 41.6505 31.6963 42.1923 31.1586 42.2639ZM34.3125 17.7132V19.117C34.3125 19.5044 34.0599 19.8188 33.75 19.8188H10.125C9.81506 19.8188 9.5625 19.5044 9.5625 19.117V17.7132C9.5625 17.3258 9.81506 17.0114 10.125 17.0114H33.75C34.0599 17.0114 34.3125 17.3258 34.3125 17.7132ZM27.5625 15.6076V5.78149C27.5625 4.23317 28.5716 2.97402 29.8125 2.97402C31.0534 2.97402 32.0625 4.23317 32.0625 5.78149V6.48336V12.0983V15.6076H27.5625Z" fill="black"/>
</g>
<defs>
<clipPath id="clip0">
<rect width="36" height="44.9196" fill="white" transform="translate(0 0.868469)"/>
</clipPath>
</defs>
</svg>
